<svg xmlns="http://www.w3.org/2000/svg" viewBox="0 0 57.59 56.87">
    <defs>
        <style>.cls-1{fill:#fff;}</style>
    </defs>
    <g id="Layer_2" data-name="Layer 2">
        <g id="Layer_1-2" data-name="Layer 1">
            <ellipse class="cls-1" cx="7.74" cy="19.2" rx="6.42" ry="8.69"
                transform="translate(-10.67 9.74) rotate(-40.85)" />
            <ellipse class="cls-1" cx="19.14" cy="7.8" rx="6.42" ry="8.69"
                transform="translate(-0.44 14.42) rotate(-40.85)" />
            <ellipse class="cls-1" cx="37.75" cy="9.31" rx="6.42" ry="8.69"
                transform="translate(2.2 25.05) rotate(-37.73)" />
            <ellipse class="cls-1" cx="8.41" cy="38.36" rx="6.42" ry="8.69"
                transform="translate(-30.33 31.93) rotate(-68.2)" />
            <path class="cls-1"
                d="M53.51,34.37c-1.93,1-3.92,2-5.87,3a24.07,24.07,0,0,0-11.19,12,23.6,23.6,0,0,1-3.19,5.78c-3.37,4-15.19,1.25-13.43-9.11A17,17,0,0,0,18,34c-4.65-8.91,4.49-18.36,12.18-16.75a22,22,0,0,1,5.11,1.81,16.61,16.61,0,0,0,9.22,1.53,26.24,26.24,0,0,1,7.13.33,7,7,0,0,1,5.89,6.56C57.89,30.72,56.83,32.57,53.51,34.37Z" />
        </g>
    </g>
</svg>