<svg xmlns="http://www.w3.org/2000/svg" viewBox="0 0 201.01 186.22">
    <g id="Layer_2">
        <g id="Layer_1-2">
            <path
                d="M17.51,50.44c5.75.91,11.4,3.57,17.15,2.65,3.83-.62,7.59-2.81,11.36-1.9,3.31.79,5.67,3.78,8.86,4.94C63,59.09,71,49.19,79.6,50.29c4.43.56,8,4,12.39,4.93,8.85,1.94,17.34-6.6,26.28-5.16,6.08,1,10.93,6.42,17.08,6.57,6.67.17,12.29-6,19-5.77s12.33,6.8,18.89,5.61c4.25-.77,8.1-4.75,12.2-3.4,2.19.72,3.63,2.82,4.48,5a17.77,17.77,0,0,1-6.07,20.37c-5.92,4.2-13.74,4.25-21,4.14L3.68,80.15c-2.23,0-2.06-20.53-1.24-22.76C4.57,51.55,11.84,49.53,17.51,50.44Z"
                fill="#9d78a6" />
            <path
                d="M50.35,76.78c.86-1.12.29-3.22-.83-4.1a8.74,8.74,0,0,0-4-1.35,7.54,7.54,0,0,1-3.93-1.47c-2.28-2-1.77-6.21-4.34-7.85-2.35-1.51-5.74.18-8.16-1.22C27.19,59.69,26.6,57,24.68,56c-2.26-1.28-5.25.17-7.64-.83-1.58-.66-2.53-2.24-3.67-3.52-2.79-3.17-9-4.81-13.24-4.24V76.78Z"
                fill="#94579e" />
            <path d="M.13,55.52V76.78H28.58C14.81,73.57,5.77,64.22.13,55.52Z" fill="#823c8f" />
            <path
                d="M201,36.09c-3.18-.36-7.48,1.79-8.41,4.85-.45,1.51-.42,3.22-1.38,4.46C189.53,47.56,185.88,47,184,49c-1.75,1.78-1.43,5-3.38,6.57-1.76,1.4-4.47.7-6.44,1.79s-2.66,3.77-4.2,5.53c-1.81,2.06-4.67,2.72-7.13,3.91a17,17,0,0,0-9,11.14L201,77.59Z"
                fill="#94579e" />
            <path d="M167.4,77.82,201,77.59V52.51A51.65,51.65,0,0,1,167.4,77.82Z" fill="#823c8f" />
            <path d="M.13,147.05l.55.35C29,165.16,105.22,203.62,200.84,177.26h.07V76.85H0Z"
                fill="#854e90" />
            <path
                d="M155.24,80.31c-1.94-2.14-5.59-2.45-9.25-2.46l-39.31-.13-11.41,0c-1.23,0-2.5-.12-3.84-.24a28.1,28.1,0,0,0-6.6-.09C82,77.79,78.35,79.7,77.47,82a3.15,3.15,0,0,0,.66,3.26,7.83,7.83,0,0,0,3.93,2.12c8.5,2.45,17.74,1.62,26.68.81,7.32-.67,14.86-1.35,22-.22a45.65,45.65,0,0,0-13.2,4.36l-1.18.55,1.28.21a65,65,0,0,0,10.86,1,62.91,62.91,0,0,0,18.57-2.91c2.59-.79,5.5-1.85,7.44-3.81S157.2,82.48,155.24,80.31Z"
                fill="#823c8f" />
            <path
                d="M55.32,94.42c-5.5,3.52-11.32,9.93-11.44,16.45s4,11.36,10.82,14.36c2.83,1.24,43.63,9.94,59.63-1.27,5.57-3.9,10.72-10.09,11.49-16.86s-1-12.47-7.51-14.48c-7.48-2.31-17.86,1.16-25-2.06C92.16,90,66.13,87.51,55.32,94.42Z"
                fill="#7a6caf" />
            <path
                d="M48.14,109.44h-.07a.41.41,0,0,1-.33-.46,15.37,15.37,0,0,1,2.67-6.33.4.4,0,0,1,.56-.1.41.41,0,0,1,.09.57,14.66,14.66,0,0,0-2.53,6A.39.39,0,0,1,48.14,109.44Z"
                fill="#9f92c6" />
            <path
                d="M54,100a.39.39,0,0,1-.32-.16.4.4,0,0,1,.08-.56,14.6,14.6,0,0,1,3.38-1.93.41.41,0,0,1,.53.22.4.4,0,0,1-.23.52,14.31,14.31,0,0,0-3.19,1.83A.39.39,0,0,1,54,100Z"
                fill="#9f92c6" />
            <path
                d="M125.93,105.93c-3,2.68-6.87,5.89-12,9.72-19.74,14.85-46.33,11.85-61.28,8.6.64.34,1.31.67,2,1,2.83,1.24,43.63,9.94,59.63-1.27,5.57-3.9,10.72-10.09,11.49-16.86C125.87,106.71,125.9,106.32,125.93,105.93Z"
                fill="#6d5fa6" />
            <path
                d="M118.31,92.62c-7.48-2.31-17.86,1.16-25-2.06A16.88,16.88,0,0,0,90.73,90a17.5,17.5,0,0,1-.6,8l.34.68a11,11,0,0,0-3.73-1.52c-2.27-.45-4.63-.18-6.9-.61-1.85-.34-3.59-1.15-5.44-1.49a11.34,11.34,0,0,0-8.48,1.86,2,2,0,0,0-1,1.31c-.07.86.83,1.43,1.61,1.8a21.47,21.47,0,0,1,6.56,4c1.91,2,3,4.62,4.41,7a21.37,21.37,0,0,0,12.66,9.2c3.47.88,6.77.08,10.09-1.17h0c2.59-.53,4.48-2.87,5.26-5.41l.09-.06c3.4-7.57,9.68-13.49,15.9-19.44A11.58,11.58,0,0,0,118.31,92.62Z"
                fill="#de9433" />
            <path
                d="M90.32,97.37l-.24,1.1,4.23,4.21a23.6,23.6,0,0,0-1-12.12A16.88,16.88,0,0,0,90.73,90,18,18,0,0,1,90.32,97.37Z"
                fill="#d18728" />
            <path
                d="M106.22,112l-.25.13a27.63,27.63,0,0,0-.36-7c-.14-.59-5.1,1.31-5.62,1.59-2.15,1.15-4.92,2.52-6.42,5.67.15-2.18,1.56-5.34,3.27-6.54a26.29,26.29,0,0,1,6.77-3,4.61,4.61,0,0,1,3.19-.26,3,3,0,0,1,1.61,2.34,8.89,8.89,0,0,1-.18,3c-.07.4-.15.8-.25,1.21A33.41,33.41,0,0,0,106.22,112Z"
                fill="#d18728" />
            <path
                d="M93.42,104.54a.35.35,0,0,1-.2-.05.4.4,0,0,1-.15-.55,2.33,2.33,0,0,0,.06-1.91,4.93,4.93,0,0,0-1.25-1.73,10.48,10.48,0,0,0-2.31-1.69A.4.4,0,0,1,90,97.9a11.55,11.55,0,0,1,2.49,1.82,5.62,5.62,0,0,1,1.44,2,3.1,3.1,0,0,1-.11,2.59A.41.41,0,0,1,93.42,104.54Z"
                fill="#a16415" />
            <path
                d="M65.81,96.72l-.06,0a2,2,0,0,0-1.06,1.16c-.16.85.67,1.52,1.41,2l.86.53.38-.35A2.69,2.69,0,0,0,65.81,96.72Z"
                fill="#a16415" />
            <path
                d="M82.57,107.72a.38.38,0,0,1-.36-.23,5.86,5.86,0,0,0-1.84-2.23c-.23-.17-.42-.24-.51-.2s-.16.26-.13.48,0,.2,0,.3a2.56,2.56,0,0,1,0,.84.41.41,0,0,1-.8-.14,1.52,1.52,0,0,0,0-.55c0-.12,0-.24-.06-.36a1.22,1.22,0,0,1,.6-1.3,1.3,1.3,0,0,1,1.32.28,6.75,6.75,0,0,1,2.08,2.54.4.4,0,0,1-.19.54A.51.51,0,0,1,82.57,107.72Z"
                fill="#a16415" />
            <path
                d="M84.21,111.1a.39.39,0,0,1-.31-.15,1.44,1.44,0,0,0-1.14-.35l-.54.05a5.27,5.27,0,0,1-1.13,0,1.74,1.74,0,0,1-1.55-1.22.4.4,0,1,1,.79-.17c.07.33.48.54.85.59a4.4,4.4,0,0,0,.95,0l.59,0a2.13,2.13,0,0,1,1.8.64.4.4,0,0,1,0,.56A.44.44,0,0,1,84.21,111.1Z"
                fill="#a16415" />
            <path
                d="M94.5,116.26a.39.39,0,0,1-.33-.18,5.33,5.33,0,0,1,.48-6.11,11.46,11.46,0,0,1,5.16-3.42c.6-.23,1.21-.43,1.8-.63a25.45,25.45,0,0,0,3.79-1.53.41.41,0,0,1,.59.3c.36,2.67.77,5.7.08,8.55a.41.41,0,0,1-.49.3.4.4,0,0,1-.29-.49,21.14,21.14,0,0,0,0-7.69,32.21,32.21,0,0,1-3.4,1.32c-.59.2-1.19.4-1.77.62a10.71,10.71,0,0,0-4.81,3.16,4.61,4.61,0,0,0-.46,5.17.4.4,0,0,1-.1.56A.48.48,0,0,1,94.5,116.26Z"
                fill="#a16415" />
            <path
                d="M96,114.62a.39.39,0,0,1-.38-.3,3.76,3.76,0,0,1,1.13-3.54A8.91,8.91,0,0,1,99.88,109l.46-.18a12.71,12.71,0,0,0,2.6-1.25,6.09,6.09,0,0,0,2-2.44.4.4,0,0,1,.53-.2.41.41,0,0,1,.2.54,6.8,6.8,0,0,1-2.31,2.76,13.27,13.27,0,0,1-2.76,1.34l-.45.17a8.22,8.22,0,0,0-2.84,1.66,3,3,0,0,0-.93,2.76.39.39,0,0,1-.28.49Z"
                fill="#a16415" />
            <path d="M73.27,97.37a.47.47,0,0,1,.48.8.47.47,0,1,1-.48-.8Z" fill="#a16415" />
            <path d="M72.49,95.92a.47.47,0,0,1,.64.16.48.48,0,0,1-.16.65.47.47,0,0,1-.48-.81Z"
                fill="#a16415" />
            <path d="M74.43,95.58a.47.47,0,1,1-.16.65A.48.48,0,0,1,74.43,95.58Z" fill="#a16415" />
            <path d="M75,97.15a.47.47,0,0,1,.48.8.47.47,0,1,1-.48-.8Z" fill="#a16415" />
            <path
                d="M100.23,39.77a.4.4,0,0,0-.75-.15,23.4,23.4,0,0,1-4.43,5c-1.93,1.83-3.92,3.71-4.81,5.58a16,16,0,0,0-1.16,5.07l-1,8.72c-.19,1.63.79,2.93,1.74,4.18l.23.3c.54.72,1.87.82,2.62.82h0c1.33,0,2.91-.33,3.47-1.08.42-.56.13-1.93-.08-2.57-.26-.81-.6-1.28-1-1.41a5.6,5.6,0,0,0-1.94-.17c-.62-2.58.62-6.7,2.16-8.55a8.4,8.4,0,0,1,2.87-2.06,9.6,9.6,0,0,0,3-2.09.45.45,0,0,0,.1-.31Z"
                fill="#ec672a" />
            <path
                d="M99.91,39.41a.38.38,0,0,0-.43.21,23.75,23.75,0,0,1-4.41,5c.05,3.2.5,7.33,2.26,9.28l.82-.44a9.6,9.6,0,0,0,3-2.09.45.45,0,0,0,.1-.31l-1-11.27A.38.38,0,0,0,99.91,39.41Z"
                fill="#d95f27" />
            <path
                d="M166.43,71.48c-1.52-14.48-9.84-29.92-22.27-41.32-4.35-4-9.65-7.21-14.78-10.32-7-4.28-14.35-8.71-19.16-15.18a.3.3,0,0,0-.08-.08l-5.44-4a.48.48,0,0,0-.18-.07c-3.72-.61-7.66-.91-11.31.92A21.7,21.7,0,0,0,82.63,13.33c-.31.86-.57,1.75-.82,2.61a20,20,0,0,1-2,5,20.46,20.46,0,0,1-5.29,5.16l-.14.11c-.42.32-1.7,1.3-1.32,2.53a2.32,2.32,0,0,0,1.47,1.32,11.68,11.68,0,0,0,9,0,22.22,22.22,0,0,0,2.56-1.35,24.45,24.45,0,0,1,2.43-1.28,22.49,22.49,0,0,1,3.18-1,22.74,22.74,0,0,0,3.43-1.09,11.5,11.5,0,0,0,2.66-1.66,18,18,0,0,1,2.29,8.79A58.76,58.76,0,0,1,99.73,40c0,.62-.11,1.25-.17,1.88-.31,3.67-.33,7.47,1.6,10.43A89.36,89.36,0,0,1,97.54,69.6c-1,3.54-2.45,7.54-5.3,10.27l-.28.26a6.47,6.47,0,0,0-1.17,1.32,2.28,2.28,0,0,0-.13,2.36c.7,1.12,2.21,1,3.29.86,1.72-.27,3.34-.62,4.41-1.84a6.93,6.93,0,0,0,1.13-2.15l.13-.33a20.14,20.14,0,0,1,3.1-5.3c.31-.39.64-.76,1-1.14a13.4,13.4,0,0,0,2.74-4.06,13.75,13.75,0,0,0,.53-2.22c.09-.49.18-1,.3-1.46a17.5,17.5,0,0,1,2.52-5l.53-.81c.53-.79,1.06-1.6,1.57-2.42A5.57,5.57,0,0,0,114.65,59a19,19,0,0,0,2,.13c.42,0,.85,0,1.26.05a17.51,17.51,0,0,1,7.51,2.58,52.35,52.35,0,0,1,6.3,4.63,14.72,14.72,0,0,0,2.1,6.46l0,0c1.2,1.8,1.93,3.15.5,4.22-.52.37-4.81.39-7.12.4-1.17,0-2.18,0-2.9,0-2.7.11-5.06.39-6.5,2.7a1.27,1.27,0,0,0,0,1.6,1.35,1.35,0,0,0,.85.36c6.45.92,12.06.59,18,.24,3.17-.19,6.46-.38,10-.38a60.46,60.46,0,0,0,8.36-1c1.22-.2,2.56-.42,3.27-.48-2,3.16-9.09,5.7-11.3,6.43a42.07,42.07,0,0,1-9.13,1.58l-1.46.14c-3.35.34-7.22.86-10.6,2.63-1,.51-1.42,1.28-1.13,2a1.25,1.25,0,0,0,1.3.73,3.74,3.74,0,0,0,.91-.13,63.55,63.55,0,0,1,10-1.42c1.26-.12,2.56-.23,3.84-.38,5.56-.62,13.35-2.2,17-4.61C162.51,84.36,167.12,78.14,166.43,71.48Z"
                fill="#f0823e" />
            <path
                d="M102.11,18.32c-.55-.88-.88-1.29-1.31-1.17s-.47.64-.51,1.43a4.69,4.69,0,0,1-.45,2.26c-.63.86-1.39,1.86-1.93,2.55a.41.41,0,0,0,0,.45,18,18,0,0,1,2.23,8.68,58.51,58.51,0,0,1-.38,7.5c0,.63-.11,1.26-.17,1.89-.31,3.69-.33,7.52,1.65,10.5a.4.4,0,0,0,.27.22h.1a.39.39,0,0,0,.36-.24c1.5-3.42,1.84-6.6,2.3-11,.14-1.32.28-2.68.47-4.2C105.69,29.33,103.8,21,102.11,18.32Z"
                fill="#ee733a" />
            <path
                d="M111.33,6.06,111.06,6a31,31,0,0,1,.71,7.38c0,.61-6.35-.55-6.91-.71A23.6,23.6,0,0,1,98.57,9.4c.59,2.11,2.9,3.73,4.82,4.56a26.57,26.57,0,0,0,7.24,1.6,4.54,4.54,0,0,0,3.18-.39,3,3,0,0,0,1.1-2.62,8.94,8.94,0,0,0-.77-2.85c-.15-.37-.31-.76-.49-1.13C112.84,7.76,112.06,6.93,111.33,6.06Z"
                fill="#ee733a" />
            <path
                d="M132.65,62a4.81,4.81,0,0,0,.08-3.36,4.87,4.87,0,0,0-2.8-2.11l-15.14-6.25a.37.37,0,0,0-.31,0,.4.4,0,0,0-.22.22,58.11,58.11,0,0,0-2.16,7.14c-.13,0-.34.08-.48.11-.66.13-1,.19-1,.53a.41.41,0,0,0,.19.41,12.18,12.18,0,0,0,3.39.73l.4,0a20.31,20.31,0,0,0,2,.13c.41,0,.84,0,1.24,0a17.22,17.22,0,0,1,7.33,2.52,51.29,51.29,0,0,1,5.59,4.26l1.13.93a.43.43,0,0,0,.26.09l.12,0a.41.41,0,0,0,.27-.27,9,9,0,0,0,.06-2.72A8.21,8.21,0,0,1,132.65,62Z"
                fill="#ee733a" />
            <path
                d="M149.75,73.26a58.44,58.44,0,0,1-20.11,9.55c2.32-.06,4.62-.19,7-.33,3.17-.19,6.46-.38,10-.38a60.46,60.46,0,0,0,8.36-1l1.43-.23a19.88,19.88,0,0,0,4.88-3.45,25.05,25.05,0,0,0,5.06-6.85,55.88,55.88,0,0,0-3.27-12.91A46.08,46.08,0,0,1,149.75,73.26Z"
                fill="#ee733a" />
            <path
                d="M136.14,65.6h-.09a.6.6,0,0,1-.5-.69,10,10,0,0,1,2.24-4.9.6.6,0,0,1,.85-.08.61.61,0,0,1,.08.85,8.86,8.86,0,0,0-2,4.31A.61.61,0,0,1,136.14,65.6Z"
                fill="#f4985f" />
            <path
                d="M140.46,59a.61.61,0,0,1-.51-.28.6.6,0,0,1,.18-.83,9.72,9.72,0,0,1,2.6-1.2.6.6,0,0,1,.34,1.16,8.26,8.26,0,0,0-2.28,1.05A.58.58,0,0,1,140.46,59Z"
                fill="#f4985f" />
            <path
                d="M120,17.88a.68.68,0,0,1-.31-.08c-1.43-.85-2.43-1.42-2.43-1.42a.61.61,0,0,1-.22-.83.59.59,0,0,1,.82-.22l2.45,1.43a.6.6,0,0,1-.31,1.12Z"
                fill="#f4985f" />
            <path
                d="M98.55,5.09a5,5,0,0,0,1.67,5.41,11,11,0,0,0,5.58,2.14,46,46,0,0,1,6,.91c-.23-2.81-.48-5.69-1.72-8.22s-3.19-4.91-6-4.88"
                fill="#f0823e" />
            <path
                d="M97.13,24.17a.42.42,0,0,1-.32-.16.4.4,0,0,1,.08-.56,10.61,10.61,0,0,0,2.45-2.6,4.87,4.87,0,0,0,.85-2A2.28,2.28,0,0,0,99.71,17a.4.4,0,1,1,.6-.54A3.09,3.09,0,0,1,101,19a5.72,5.72,0,0,1-1,2.29,11.5,11.5,0,0,1-2.64,2.8A.41.41,0,0,1,97.13,24.17Z"
                fill="#c64424" />
            <path
                d="M75.88,26.26l-.23-.44-1,.75c-.68.53-1.44,1.28-1.19,2.1a1.91,1.91,0,0,0,1.2,1l0,0A2.68,2.68,0,0,0,75.88,26.26Z"
                fill="#c64424" />
            <path
                d="M74.68,30.12a.41.41,0,0,1-.16,0,2.31,2.31,0,0,1-1.42-1.3c-.38-1.23.9-2.21,1.32-2.53l1-.76a.44.44,0,0,1,.33-.08.39.39,0,0,1,.27.21c.15.27.24.46.24.46h0A3.08,3.08,0,0,1,75,30,.39.39,0,0,1,74.68,30.12Zm.83-3.69-.6.46c-.84.64-1.19,1.2-1,1.66a1.35,1.35,0,0,0,.77.71,2.29,2.29,0,0,0,.89-2.82Z"
                fill="#c64424" />
            <path
                d="M86.61,19.59h-.19a1.21,1.21,0,0,1-.87-1.15,2.17,2.17,0,0,1,0-.36,1.77,1.77,0,0,0-.08-.55.4.4,0,0,1,.75-.3,2.47,2.47,0,0,1,.13.83c0,.1,0,.2,0,.3s.12.42.23.44.27-.09.45-.3a5.82,5.82,0,0,0,1.31-2.58.4.4,0,0,1,.79.17A6.69,6.69,0,0,1,87.64,19,1.43,1.43,0,0,1,86.61,19.59Z"
                fill="#c64424" />
            <path
                d="M85.72,15a.39.39,0,0,1-.4-.39A1.71,1.71,0,0,1,86.57,13a4.83,4.83,0,0,1,1.11-.21,4.51,4.51,0,0,0,.53-.07,1.41,1.41,0,0,0,1-.58.4.4,0,1,1,.72.36,2.16,2.16,0,0,1-1.62,1l-.59.07a4.39,4.39,0,0,0-.93.17c-.35.12-.71.42-.71.76a.4.4,0,0,1-.4.4Z"
                fill="#c64424" />
            <path
                d="M110.41,5.15a.4.4,0,0,0-.54-.18.41.41,0,0,0-.19.54,19.24,19.24,0,0,1,1.58,6.8,6.73,6.73,0,0,0-2.37-1.64,13.83,13.83,0,0,0-3-.71l-.48-.08a8.08,8.08,0,0,1-3.13-1,3,3,0,0,1-1.5-2.5.4.4,0,0,0-.38-.42.42.42,0,0,0-.42.39,3.75,3.75,0,0,0,1.87,3.21,9,9,0,0,0,3.43,1.12l.49.07a13.27,13.27,0,0,1,2.8.66,5.93,5.93,0,0,1,2.12,1.48c-1-.2-2-.31-3-.42-.62-.07-1.25-.14-1.87-.23a10.72,10.72,0,0,1-5.37-2.05,4.63,4.63,0,0,1-1.56-4.95.41.41,0,0,0-.22-.52.39.39,0,0,0-.52.22A5.31,5.31,0,0,0,100,10.8,11.34,11.34,0,0,0,105.74,13c.63.09,1.27.17,1.89.23a26.07,26.07,0,0,1,4,.67l.11,0a.43.43,0,0,0,.26-.09.42.42,0,0,0,.14-.35C112,10.83,111.7,7.78,110.41,5.15Z"
                fill="#c64424" />
            <path
                d="M111.58,58.07a.4.4,0,0,1-.34-.61,30.36,30.36,0,0,0,1.84-3.39,13.14,13.14,0,0,0,1.29-7.38.4.4,0,1,1,.8-.12,14,14,0,0,1-1.36,7.83,28.91,28.91,0,0,1-1.89,3.48A.42.42,0,0,1,111.58,58.07Z"
                fill="#c64424" />
            <path
                d="M132.19,67.58a.4.4,0,0,1-.4-.35,10.56,10.56,0,0,1,1.32-7.07c3.55-5.9,9.29-8.38,11.84-7.56a.4.4,0,1,1-.25.77c-2.24-.72-7.6,1.73-10.9,7.2a9.8,9.8,0,0,0-1.21,6.56.4.4,0,0,1-.35.45Z"
                fill="#c64424" />
            <path
                d="M91.63,84.49a.4.4,0,0,1-.4-.37,2.84,2.84,0,0,1,1.62-2.76.39.39,0,0,1,.53.2.4.4,0,0,1-.2.53,2,2,0,0,0-1.15,2,.4.4,0,0,1-.37.43Z"
                fill="#c64424" />
            <path
                d="M94,67.48a4.37,4.37,0,0,1-.72-.06A.4.4,0,0,1,93,67a.4.4,0,0,1,.46-.33,3.61,3.61,0,0,0,2.15-.31.4.4,0,0,1,.54.19.4.4,0,0,1-.19.53A4.35,4.35,0,0,1,94,67.48Z"
                fill="#c64424" />
            <path
                d="M118.77,82.27a.41.41,0,0,1-.19,0,.4.4,0,0,1-.17-.54,4,4,0,0,1,2.3-1.89.4.4,0,1,1,.23.76,3.13,3.13,0,0,0-1.82,1.51A.4.4,0,0,1,118.77,82.27Z"
                fill="#c64424" />
            <path d="M78.8,26.83a.47.47,0,1,1-.47-.47A.47.47,0,0,1,78.8,26.83Z" fill="#c64424" />
            <path d="M80.44,26.9a.47.47,0,1,1-.47-.47A.47.47,0,0,1,80.44,26.9Z" fill="#c64424" />
            <path d="M79.74,28.74a.47.47,0,1,1-.47-.47A.47.47,0,0,1,79.74,28.74Z" fill="#c64424" />
            <path d="M78.1,28.44a.47.47,0,1,1-.47-.47A.47.47,0,0,1,78.1,28.44Z" fill="#c64424" />
            <path
                d="M158.15,80.53a.4.4,0,0,1-.38-.26.42.42,0,0,1,.24-.52,9.82,9.82,0,0,0,4.22-3.86.41.41,0,0,1,.56-.11.39.39,0,0,1,.11.56,10.38,10.38,0,0,1-4.62,4.17A.3.3,0,0,1,158.15,80.53Z"
                fill="#c64424" />
            <path
                d="M128.42,23.28a.57.57,0,0,1-.39-.14,54,54,0,0,0-6-4.07.6.6,0,0,1,.63-1,56.47,56.47,0,0,1,6.12,4.18.61.61,0,0,1,.07.85A.6.6,0,0,1,128.42,23.28Z"
                fill="#f4985f" />
            <path
                d="M87.71,22.45a6.11,6.11,0,0,0-.36-1.07c-.07-.16-.13-.33-.19-.49a3.19,3.19,0,0,1-.14-.71,4.32,4.32,0,0,0-.16-.78.26.26,0,0,0-.24-.18.24.24,0,0,0-.24.15,13.63,13.63,0,0,0-.86,3.29l0,.2a1.84,1.84,0,0,0,.19,1.49.94.94,0,0,0,.77.37h0a1.26,1.26,0,0,0,1-.46A2.21,2.21,0,0,0,87.71,22.45Z"
                fill="#2c8ac3" />
            <path
                d="M70.28,56.81c.5.5,1,1.06.35,1.71s-1.19.24-1.71-.28c-1.74-1.75-3.56-3.42-5.2-5.26a2.68,2.68,0,0,0-3.35-.73c-.54.21-1,.5-1.58.74a1.55,1.55,0,0,1-1.52-2.7c.73-.45,1.53-.8,2.52-1.32-.72-.66-1.39-1.27-2-1.9-.37-.36-.7-.16-1,0-.68.41-1.34.84-2,1.28a1.53,1.53,0,0,1-2.31-.3,1.45,1.45,0,0,1,.4-2.19c.69-.53,1.42-1,2.14-1.51a1,1,0,0,0-.14-.23c-2-2.09-2-2.09-4.26-.34-1,.78-1.93.78-2.5-.07a1.6,1.6,0,0,1,.53-2.38.39.39,0,0,0,.1-.08c.56-.43,1.43-.77,1.6-1.32s-.79-1-1.2-1.55a.91.91,0,0,1,0-1.34.94.94,0,0,1,1.36,0C50.83,37.33,69.46,56,70.28,56.81Z"
                fill="#f8b133" />
            <path
                d="M52.48,74.25a19.44,19.44,0,0,1-.35-4.06,10.62,10.62,0,0,0-1.6-6.51,5.06,5.06,0,0,0-3.17-2.54,5.28,5.28,0,0,0-5.61,2.35,7.37,7.37,0,0,0-1,2.14c-.09.32-.29.52-.62.42a.5.5,0,0,1-.36-.67c1-4.2,5-6.73,8.62-5.43a7.12,7.12,0,0,1,3.52,2.83,13.92,13.92,0,0,1,1.93,4.52,32.25,32.25,0,0,1,1.22,7Z"
                fill="#2a292a" />
            <path
                d="M71.47,74.25a18.92,18.92,0,0,1,.4-3.72c.78-2.57,1.06-5.31,2.64-7.61s4.15-3.72,6.57-3.22c3,.62,4.79,2.62,5.64,5.52.1.37.11.72-.32.83s-.56-.23-.67-.58a6.74,6.74,0,0,0-2.18-3.29,4.77,4.77,0,0,0-6.92.6,10.54,10.54,0,0,0-2.27,5.69c-.2,1.49.13,3-.18,4.51A10.72,10.72,0,0,0,74,74.25Z"
                fill="#2a292a" />
            <path d="M64.88,57.67a2.53,2.53,0,1,1-5.06.13,2.53,2.53,0,1,1,5.06-.13Z"
                fill="#f8b133" />
            <path
                d="M76.09,41.36a25,25,0,0,0-10.53-4.42,28.82,28.82,0,0,0-12.33,1.47l2.39,2.39.16,0a14.27,14.27,0,0,1,6-1.15h1a17.33,17.33,0,0,1,11.26,4.16c.83.67,1.64.85,2.43,0S77,42.14,76.09,41.36Z"
                fill="#f8b133" />
            <path
                d="M60.74,45.93a11.47,11.47,0,0,1,8.92,2.23c1.14.79,2,.78,2.62,0s.36-1.68-.79-2.51a15.52,15.52,0,0,0-13.42-2.43.5.5,0,0,0,0,.13Z"
                fill="#f8b133" />
            <path d="M67.62,52.83c.88-1.31.69-2-.68-2.85a10.94,10.94,0,0,0-3.32-1.16Z"
                fill="#f8b133" />
            <path d="M75.67,83.13h2.76l-.08.25a.36.36,0,0,1-.36.26H76.1a.39.39,0,0,1-.37-.27Z"
                fill="#0f0f0f" />
            <path d="M48.09,83.14h2.76l-.07.25a.38.38,0,0,1-.36.27h-1.9a.4.4,0,0,1-.37-.28Z"
                fill="#0f0f0f" />
            <rect x="43.83" y="74.25" width="38.87" height="7.71" rx="2.28" fill="#fff" />
            <rect x="43.83" y="75.42" width="38.87" height="7.71" rx="2.28" fill="#d7d2d2" />
            <rect x="43.83" y="74.8" width="38.87" height="7.71" rx="2.28" fill="#eaeaea" />
            <rect x="50.82" y="76.19" width="24.9" height="4.63" rx="1.9" fill="#0f0f0f" />
            <rect x="50.82" y="76.48" width="24.9" height="4.63" rx="1.9" fill="#2c2b2a" />
            <circle cx="54.34" cy="78.65" r="1.52" fill="#433c29" />
            <circle cx="54.34" cy="78.67" r="0.68" fill="#f3af11" />
            <circle cx="60.21" cy="78.65" r="1.52" fill="#432f2a" />
            <circle cx="60.21" cy="78.67" r="0.68" fill="#e9511d" />
            <circle cx="66.08" cy="78.65" r="1.52" fill="#432f2a" />
            <circle cx="66.08" cy="78.67" r="0.68" fill="#d0940f" />
            <circle cx="71.95" cy="78.65" r="1.52" fill="#433c29" />
            <circle cx="71.95" cy="78.67" r="0.68" fill="#f3af11" />
        </g>
    </g>
</svg>