<svg xmlns="http://www.w3.org/2000/svg" viewBox="0 0 479.57 319.7">
    <g id="Layer_2" data-name="Layer 2">
        <g id="Layer_1-2" data-name="Layer 1">
            <path
                d="M16.27,125.08c-3.27.89-3.27,4.16-5.56,7.69-3.35,5.19-1.64,8.55,1.22,8.64s4.39-3.49,7.3-4.15h.06c2.89-.77,5.9,1.69,8.4.29s2.45-5.17-2.92-8.21C21.1,127.25,19.59,124.36,16.27,125.08Z"
                fill="#fff" />
            <path
                d="M7.73,124.59c2.43,2,3.33,5,2,6.56s-4.38,1.18-6.81-.88-3.34-5-2-6.56S5.29,122.53,7.73,124.59Z"
                fill="#fff" />
            <path
                d="M23.62,120.69c-1.21,3-.64,6,1.26,6.75s4.42-1,5.63-3.94.64-6-1.26-6.75S24.83,117.74,23.62,120.69Z"
                fill="#fff" />
            <path
                d="M13.28,116.55c1.36,3.07.85,6.27-1.13,7.15s-4.69-.9-6.05-4-.86-6.28,1.12-7.16S11.91,113.47,13.28,116.55Z"
                fill="#fff" />
            <path
                d="M15,116.13c.22,3.35,2.15,6,4.31,5.82s3.74-3,3.52-6.33-2.14-6-4.3-5.82S14.77,112.77,15,116.13Z"
                fill="#fff" />
            <path
                d="M143.08,59.84c-3.24-.85-4.87,1.94-8.58,3.83-5.45,2.78-5.65,6.5-3.25,8s5.49-.8,8.32.08h.05c2.85.77,4.22,4.38,7,4.42s4.67-3.21,1.58-8.48C146.14,64.1,146.27,60.87,143.08,59.84Z"
                fill="#fff" />
            <path
                d="M136,55.18c1.06,3,.37,5.93-1.54,6.62s-4.33-1.17-5.39-4.14-.38-5.93,1.54-6.61S135,52.21,136,55.18Z"
                fill="#fff" />
            <path
                d="M151.55,59.73c-2.5,1.93-3.52,4.8-2.27,6.41s4.27,1.35,6.77-.58,3.51-4.79,2.27-6.4S154.05,57.81,151.55,59.73Z"
                fill="#fff" />
            <path
                d="M144.75,51.05c-.36,3.31-2.38,5.8-4.51,5.57s-3.57-3.1-3.21-6.41,2.38-5.8,4.51-5.57S145.11,47.75,144.75,51.05Z"
                fill="#fff" />
            <path
                d="M146.42,51.54c-1.48,3-1.13,6.17.79,7.12s4.68-.68,6.16-3.66,1.13-6.17-.8-7.12S147.9,48.56,146.42,51.54Z"
                fill="#fff" />
            <path
                d="M412.89,55.84c-3.94-3.23-7.95-.39-14.27-.12-9.27.4-11.91,5.42-9.53,9s8.1,2.35,11.44,5.36l0,0,0,0c3.45,2.87,3.06,8.7,6.94,10.55s8.47-1.49,7.53-10.73C414.42,63.65,416.65,59.28,412.89,55.84Z"
                fill="#fff" />
            <path
                d="M406.06,44.94c-.4,4.78-3.23,8.44-6.3,8.18s-5.25-4.34-4.84-9.12,3.22-8.43,6.3-8.17S406.46,40.17,406.06,44.94Z"
                fill="#fff" />
            <path
                d="M424.66,61c-4.67,1.08-7.88,4.4-7.18,7.41s5,4.57,9.71,3.48,7.88-4.41,7.18-7.42S429.32,59.94,424.66,61Z"
                fill="#fff" />
            <path
                d="M420.73,44.75c-2.58,4.34-6.94,6.51-9.74,4.85s-3-6.54-.39-10.88,6.95-6.51,9.74-4.84S423.32,40.41,420.73,44.75Z"
                fill="#fff" />
            <path
                d="M422.73,46.48c-3.92,3.18-5.44,7.81-3.39,10.34s6.9,2,10.82-1.18,5.44-7.82,3.39-10.35S426.65,43.3,422.73,46.48Z"
                fill="#fff" />
            <path
                d="M342.93,122.22c-4.48-1.46-7,2.33-12.35,4.68-7.86,3.46-8.45,8.67-5.2,10.95s7.77-.69,11.66.78l0,0h0c3.94,1.32,5.56,6.48,9.53,6.76s6.8-4.12,2.89-11.76C346.87,128.44,347.32,123.92,342.93,122.22Z"
                fill="#fff" />
            <path
                d="M333.38,115.12c1.26,4.25.05,8.35-2.69,9.16s-6-2-7.23-6.24,0-8.35,2.69-9.16S332.13,110.87,333.38,115.12Z"
                fill="#fff" />
            <path
                d="M354.81,122.75c-3.65,2.5-5.31,6.44-3.7,8.8s5.88,2.24,9.54-.26,5.32-6.44,3.71-8.8S358.47,120.25,354.81,122.75Z"
                fill="#fff" />
            <path
                d="M346,110c-.77,4.61-3.8,7.94-6.77,7.44s-4.76-4.63-4-9.24,3.81-8,6.78-7.45S346.75,105.42,346,110Z"
                fill="#fff" />
            <path
                d="M348.28,110.85c-2.32,4.06-2.08,8.56.54,10.05s6.62-.58,8.93-4.64,2.07-8.56-.54-10.06S350.59,106.79,348.28,110.85Z"
                fill="#fff" />
            <path
                d="M400.26,147.85c-4.48,1.25-4.46,5.73-7.56,10.59-4.55,7.14-2.18,11.74,1.73,11.83s6-4.82,10-5.75h.07c3.95-1.07,8.11,2.27,11.51.34s3.32-7.11-4.07-11.24C406.9,150.79,404.79,146.83,400.26,147.85Z"
                fill="#fff" />
            <path
                d="M388.54,147.24c3.36,2.8,4.61,6.83,2.81,9s-6,1.65-9.34-1.15-4.61-6.82-2.81-9S385.19,144.45,388.54,147.24Z"
                fill="#fff" />
            <path
                d="M410.29,141.77c-1.63,4-.83,8.19,1.78,9.24s6.06-1.38,7.69-5.43.83-8.2-1.78-9.25S411.92,137.72,410.29,141.77Z"
                fill="#fff" />
            <path
                d="M396.08,136.18c1.89,4.2,1.23,8.6-1.48,9.82s-6.44-1.2-8.33-5.41-1.23-8.59,1.48-9.81S394.19,132,396.08,136.18Z"
                fill="#fff" />
            <ellipse cx="403.78" cy="135.21" rx="5.38" ry="8.34"
                transform="translate(-8.5 28.71) rotate(-4.03)" fill="#fff" />
            <path
                d="M263.39,184.73c-3.17-2.4-6.22-.07-11.15.33-7.23.59-9.14,4.58-7.17,7.3s6.39,1.6,9.09,3.85l0,0,0,0c2.78,2.14,2.65,6.71,5.74,8s6.56-1.41,5.56-8.6C264.82,190.79,266.43,187.3,263.39,184.73Z"
                fill="#fff" />
            <path
                d="M257.74,176.42c-.18,3.74-2.27,6.68-4.68,6.57s-4.23-3.23-4.05-7,2.27-6.68,4.68-6.57S257.91,172.68,257.74,176.42Z"
                fill="#fff" />
            <path
                d="M272.74,188.44c-3.62,1-6,3.67-5.39,6s4.08,3.41,7.69,2.43,6-3.68,5.39-6S276.35,187.45,272.74,188.44Z"
                fill="#fff" />
            <ellipse cx="265.15" cy="173.63" rx="7.15" ry="4.61"
                transform="translate(-14.21 323.34) rotate(-61.41)" fill="#fff" />
            <path
                d="M270.8,177.13c-3,2.6-4,6.26-2.34,8.18s5.45,1.35,8.42-1.25,4-6.26,2.34-8.17S273.77,174.53,270.8,177.13Z"
                fill="#fff" />
            <path
                d="M85.59,28.75c-4.85-1.86-7.81,2.17-13.83,4.46-8.83,3.36-9.76,9-6.32,11.74s8.58-.33,12.77,1.5l0,0h0c4.25,1.67,5.75,7.43,10.09,8s7.7-4.16,3.83-12.77C89.57,35.8,90.32,30.86,85.59,28.75Z"
                fill="#fff" />
            <path
                d="M75.5,20.41c1.14,4.74-.42,9.18-3.47,9.92s-6.46-2.52-7.6-7.26.41-9.18,3.47-9.91S74.35,15.67,75.5,20.41Z"
                fill="#fff" />
            <path
                d="M98.62,30c-4.16,2.54-6.2,6.78-4.56,9.46s6.34,2.79,10.5.25,6.2-6.78,4.56-9.47S102.78,27.44,98.62,30Z"
                fill="#fff" />
            <path
                d="M89.61,15.52c-1.1,5-4.62,8.52-7.86,7.8s-5-5.36-3.86-10.38,4.62-8.51,7.86-7.8S90.72,10.5,89.61,15.52Z"
                fill="#fff" />
            <path
                d="M92.09,16.55c-2.77,4.33-2.75,9.29,0,11.08s7.3-.28,10.07-4.61,2.75-9.3,0-11.08S94.86,12.22,92.09,16.55Z"
                fill="#fff" />
            <path
                d="M464.67,195.16c-2.86.23-3.38,3-5.83,5.53-3.6,3.79-2.71,6.85-.35,7.37s4.2-2.22,6.73-2.3h0c2.52-.18,4.65,2.33,6.94,1.56s2.85-3.91-1.14-7.29C468.35,197.72,467.54,195.08,464.67,195.16Z"
                fill="#fff" />
            <path
                d="M457.64,193.41c1.7,2.09,2,4.68.64,5.78s-3.82.29-5.53-1.8-2-4.68-.64-5.78S455.94,191.32,457.64,193.41Z"
                fill="#fff" />
            <path
                d="M471.47,192.66c-1.47,2.26-1.47,4.87,0,5.81s3.83-.12,5.3-2.39,1.47-4.87,0-5.81S472.94,190.39,471.47,192.66Z"
                fill="#fff" />
            <path
                d="M463.51,187.59c.65,2.77-.27,5.36-2.05,5.78s-3.76-1.49-4.41-4.26.27-5.36,2.05-5.77S462.86,184.82,463.51,187.59Z"
                fill="#fff" />
            <path
                d="M465,187.51c-.35,2.83.85,5.3,2.67,5.52s3.58-1.89,3.92-4.71-.85-5.29-2.67-5.52S465.35,184.69,465,187.51Z"
                fill="#fff" />
            <path
                d="M24.23,22.07c-3.28-1.05-5.08,1.73-9,3.48-5.72,2.56-6.12,6.37-3.73,8s5.66-.55,8.51.5h0c2.88.94,4.09,4.7,7,4.89s4.94-3,2.05-8.61C27.14,26.59,27.45,23.28,24.23,22.07Z"
                fill="#fff" />
            <path
                d="M17.23,16.93c.94,3.1.08,6.1-1.91,6.7S10.94,22.22,10,19.12s-.08-6.09,1.91-6.7S16.29,13.84,17.23,16.93Z"
                fill="#fff" />
            <path
                d="M32.91,22.39c-2.66,1.84-3.85,4.73-2.66,6.44s4.31,1.6,7-.24,3.84-4.73,2.65-6.44S35.56,20.54,32.91,22.39Z"
                fill="#fff" />
            <path
                d="M26.39,13.15c-.54,3.37-2.73,5.82-4.91,5.47S18,15.26,18.53,11.9s2.73-5.82,4.91-5.47S26.93,9.79,26.39,13.15Z"
                fill="#fff" />
            <path
                d="M28.07,13.74c-1.66,3-1.46,6.26.46,7.33s4.82-.46,6.49-3.44,1.46-6.25-.45-7.33S29.74,10.77,28.07,13.74Z"
                fill="#fff" />
            <path
                d="M299.88,69.64c-3.57-1-5.38,2.13-9.47,4.2-6,3-6.26,7.16-3.61,8.81s6.06-.88,9.17.11H296c3.15.86,4.64,4.84,7.76,4.9s5.15-3.53,1.76-9.35C303.24,74.35,303.41,70.79,299.88,69.64Z"
                fill="#fff" />
            <path
                d="M292.1,64.48c1.16,3.28.39,6.55-1.72,7.3s-4.77-1.3-5.94-4.58-.39-6.55,1.72-7.3S290.94,61.2,292.1,64.48Z"
                fill="#fff" />
            <path
                d="M309.23,69.55c-2.76,2.12-3.9,5.28-2.53,7.06s4.71,1.5,7.47-.61,3.89-5.28,2.53-7.06S312,67.43,309.23,69.55Z"
                fill="#fff" />
            <path
                d="M301.75,60c-.4,3.65-2.64,6.39-5,6.13s-3.93-3.43-3.52-7.08,2.65-6.39,5-6.13S302.16,56.31,301.75,60Z"
                fill="#fff" />
            <ellipse cx="307.42" cy="62.41" rx="6.64" ry="4.28"
                transform="translate(114.02 309.39) rotate(-63.41)" fill="#fff" />
            <path
                d="M17,243.23c-2.39.85-2.21,3.29-3.72,6.06-2.22,4.05-.76,6.47,1.38,6.37s3.09-2.85,5.23-3.5h0c2.11-.74,4.5.93,6.28-.25s1.54-4-2.63-6C20.71,244.59,19.42,242.51,17,243.23Z"
                fill="#fff" />
            <path
                d="M10.58,243.34c1.93,1.4,2.76,3.54,1.86,4.79s-3.2,1.12-5.13-.28-2.77-3.55-1.86-4.79S8.65,241.94,10.58,243.34Z"
                fill="#fff" />
            <path
                d="M22.22,239.55c-.74,2.27-.15,4.49,1.32,5s3.24-1,4-3.25.15-4.49-1.31-5S23,237.28,22.22,239.55Z"
                fill="#fff" />
            <path
                d="M14.27,237c1.19,2.22,1,4.64-.44,5.4s-3.55-.41-4.74-2.63-1-4.64.45-5.4S13.09,234.81,14.27,237Z"
                fill="#fff" />
            <path
                d="M15.52,236.63c.35,2.49,1.93,4.33,3.54,4.1s2.63-2.42,2.28-4.92-1.93-4.33-3.54-4.1S15.18,234.13,15.52,236.63Z"
                fill="#fff" />
            <path
                d="M351.89,299c-2,1.76-.86,4.05-1.24,7.32-.55,4.8,1.81,6.57,3.85,5.64s1.87-4,3.69-5.44v0h0c1.76-1.54,4.73-.86,6-2.71s-.07-4.47-4.89-4.75C356,298.85,354,297.34,351.89,299Z"
                fill="#fff" />
            <path
                d="M345.72,301.61c2.42.6,4.07,2.35,3.69,3.91s-2.66,2.35-5.09,1.75-4.07-2.35-3.68-3.91S343.3,301,345.72,301.61Z"
                fill="#fff" />
            <path
                d="M355.52,293.37c.18,2.49,1.62,4.41,3.22,4.3s2.76-2.22,2.59-4.71-1.62-4.42-3.22-4.3S355.34,290.88,355.52,293.37Z"
                fill="#fff" />
            <path
                d="M346.83,294.05c2,1.69,2.77,4.11,1.69,5.41s-3.61,1-5.63-.69-2.77-4.11-1.69-5.41S344.81,292.37,346.83,294.05Z"
                fill="#fff" />
            <path
                d="M347.88,293.17c1.31,2.27,3.57,3.43,5,2.59s1.59-3.38.28-5.66-3.57-3.44-5-2.6S346.56,290.89,347.88,293.17Z"
                fill="#fff" />
            <path
                d="M303.78,301.1c-3.48-1.37-5.64,1.52-10,3.14-6.39,2.37-7.1,6.47-4.63,8.43s6.19-.18,9.2,1.16l0,0h0c3.06,1.23,4.11,5.39,7.24,5.8s5.58-3,2.84-9.19C306.62,306.22,307.19,302.65,303.78,301.1Z"
                fill="#fff" />
            <path
                d="M296.55,295c.8,3.43-.35,6.62-2.56,7.14s-4.65-1.85-5.44-5.28.35-6.62,2.56-7.14S295.75,291.59,296.55,295Z"
                fill="#fff" />
            <path
                d="M313.18,302.07c-3,1.81-4.51,4.86-3.34,6.8s4.56,2.06,7.57.24,4.52-4.86,3.35-6.8S316.2,300.26,313.18,302.07Z"
                fill="#fff" />
            <path
                d="M306.77,291.58c-.83,3.61-3.39,6.11-5.72,5.58s-3.56-3.9-2.73-7.51,3.39-6.12,5.72-5.59S307.59,288,306.77,291.58Z"
                fill="#fff" />
            <ellipse cx="312.18" cy="294.7" rx="6.72" ry="4.33"
                transform="translate(-105.11 395.54) rotate(-56.93)" fill="#fff" />
            <path
                d="M180.76,168.71c-2.38.91-2.14,3.35-3.59,6.16-2.13,4.12-.61,6.51,1.53,6.36s3-2.93,5.16-3.63h0c2.1-.79,4.54.83,6.3-.4s1.45-4-2.78-5.92C184.53,170,183.19,167.93,180.76,168.71Z"
                fill="#fff" />
            <path
                d="M174.34,169c2,1.36,2.86,3.49,2,4.76s-3.18,1.2-5.15-.16-2.86-3.49-2-4.76S172.37,167.61,174.34,169Z"
                fill="#fff" />
            <path
                d="M185.93,164.9c-.69,2.29,0,4.51,1.43,4.95s3.24-1.06,3.92-3.35.05-4.51-1.43-4.95S186.62,162.6,185.93,164.9Z"
                fill="#fff" />
            <path
                d="M177.9,162.56c1.24,2.2,1.1,4.63-.32,5.43s-3.57-.34-4.81-2.53-1.1-4.63.32-5.43S176.66,160.36,177.9,162.56Z"
                fill="#fff" />
            <path
                d="M179.14,162.12c.41,2.49,2,4.3,3.65,4s2.58-2.5,2.17-5-2-4.3-3.64-4S178.74,159.63,179.14,162.12Z"
                fill="#fff" />
            <path
                d="M300.29,263.22c-2.93-2.57-6.05-.51-10.88-.46-7.07.07-9.21,3.83-7.49,6.62s6.12,2,8.59,4.37l0,0,0,0c2.56,2.27,2.12,6.71,5,8.21s6.49-.92,6-8C301.26,269.21,303.07,265.93,300.29,263.22Z"
                fill="#fff" />
            <path
                d="M295.36,254.74c-.43,3.62-2.67,6.34-5,6.07s-3.89-3.44-3.46-7.07,2.67-6.35,5-6.07S295.78,251.11,295.36,254.74Z"
                fill="#fff" />
            <path
                d="M309.13,267.47c-3.59.71-6.12,3.16-5.66,5.47s3.73,3.6,7.31,2.89,6.12-3.16,5.66-5.47S312.71,266.76,309.13,267.47Z"
                fill="#fff" />
            <path
                d="M306.55,255c-2.08,3.24-5.46,4.79-7.55,3.45s-2.1-5.06,0-8.3,5.46-4.79,7.55-3.45S308.63,251.72,306.55,255Z"
                fill="#fff" />
            <ellipse cx="310.74" cy="259.91" rx="6.98" ry="4.5"
                transform="translate(-93.9 240.36) rotate(-37.14)" fill="#fff" />
            <path
                d="M453.09,93.43c-3.7,3.75-1.17,8.16-1.49,14.7-.48,9.59,4.43,12.79,8.34,10.68s3.2-8.12,6.62-11.27l0,0,0,0c3.29-3.29,9.27-2.32,11.54-6.14s-.72-8.87-10.32-8.79C461.29,92.6,457,89.88,453.09,93.43Z"
                fill="#fff" />
            <path
                d="M441.21,99.42c4.88.88,8.37,4.13,7.81,7.28s-5,5-9.86,4.11-8.37-4.13-7.81-7.28S436.33,98.55,441.21,99.42Z"
                fill="#fff" />
            <ellipse cx="465.31" cy="81.02" rx="5.79" ry="8.98"
                transform="translate(-6.68 63.68) rotate(-7.77)" fill="#fff" />
            <path
                d="M442.42,84.28c4.23,3.08,6,7.78,4.06,10.51s-7,2.43-11.25-.65-6-7.78-4.05-10.51S438.2,81.2,442.42,84.28Z"
                fill="#fff" />
            <path
                d="M444.39,82.39c2.91,4.35,7.53,6.36,10.33,4.49s2.73-6.92-.17-11.26-7.53-6.36-10.33-4.49S441.49,78,444.39,82.39Z"
                fill="#fff" />
            <path
                d="M223.81,141.83c-5.05-1.06-7.33,3.37-12.88,6.57-8.14,4.7-8.16,10.45-4.35,12.54s8.38-1.68,12.79-.54h.08c4.45,1,6.83,6.39,11.18,6.22s6.91-5.3,1.74-13.16C228.85,148.13,228.81,143.15,223.81,141.83Z"
                fill="#fff" />
            <ellipse cx="207.35" cy="137.41" rx="5.67" ry="8.79"
                transform="translate(-36.96 90.62) rotate(-22.69)" fill="#fff" />
            <ellipse cx="240.51" cy="145.28" rx="8.79" ry="5.67"
                transform="translate(-36.62 191.63) rotate(-40.63)" fill="#fff" />
            <path
                d="M225.67,128.18c-.28,5.12-3.19,9.11-6.49,8.92s-5.73-4.48-5.44-9.59,3.2-9.11,6.49-8.92S226,123.07,225.67,128.18Z"
                fill="#fff" />
            <ellipse cx="233.76" cy="131.18" rx="9.27" ry="5.98"
                transform="translate(20.43 293.48) rotate(-66.56)" fill="#fff" />
            <path
                d="M15.17,185.06c-3.2.43-3.62,3.52-6.23,6.57-3.82,4.47-2.63,7.86.06,8.3s4.59-2.74,7.43-3h.05c2.83-.37,5.37,2.34,7.9,1.33s3-4.57-1.72-8.12C19.46,187.72,18.39,184.8,15.17,185.06Z"
                fill="#fff" />
            <path
                d="M7.16,183.51c2,2.26,2.52,5.15,1.07,6.46s-4.28.56-6.32-1.69-2.52-5.14-1.07-6.46S5.12,181.26,7.16,183.51Z"
                fill="#fff" />
            <path
                d="M22.67,181.84c-1.52,2.63-1.37,5.56.33,6.54s4.3-.37,5.82-3,1.36-5.56-.34-6.54S24.18,179.2,22.67,181.84Z"
                fill="#fff" />
            <path
                d="M13.42,176.62c.89,3.08,0,6-2,6.62s-4.32-1.45-5.21-4.52,0-6,2-6.62S12.52,173.55,13.42,176.62Z"
                fill="#fff" />
            <path
                d="M15.08,176.44c-.22,3.2,1.27,5.9,3.33,6.05s3.91-2.34,4.13-5.54-1.27-5.9-3.33-6S15.3,173.25,15.08,176.44Z"
                fill="#fff" />
            <path
                d="M464.47,27.27c-3.14-.68-4.58,2.05-8.05,4-5.09,2.87-5.13,6.44-2.78,7.76s5.22-1,7.95-.26h.05c2.76.62,4.21,4,6.91,3.93s4.33-3.25,1.16-8.16C467.56,31.22,467.56,28.13,464.47,27.27Z"
                fill="#fff" />
            <path
                d="M457.52,23.11c1.14,2.79.6,5.65-1.2,6.38s-4.18-.94-5.32-3.73-.6-5.65,1.2-6.39S456.39,20.31,457.52,23.11Z"
                fill="#fff" />
            <path
                d="M472.55,26.82c-2.31,1.95-3.16,4.73-1.91,6.21s4.14,1.12,6.44-.82S480.25,27.49,479,26,474.86,24.88,472.55,26.82Z"
                fill="#fff" />
            <path
                d="M465.7,18.81c-.21,3.17-2,5.64-4.08,5.5s-3.54-2.82-3.33-6,2-5.64,4.09-5.5S465.91,15.64,465.7,18.81Z"
                fill="#fff" />
            <path
                d="M467.32,19.21c-1.3,2.9-.83,5.94,1.05,6.77s4.44-.85,5.73-3.75.82-5.94-1.05-6.77S468.61,16.3,467.32,19.21Z"
                fill="#fff" />
            <path
                d="M454.72,245.4c-4.07.84-4.33,4.83-7.4,9-4.5,6.06-2.68,10.3.8,10.63s5.64-3.92,9.25-4.49h.06c3.59-.71,7.07,2.53,10.23,1s3.4-6.11-2.92-10.25C460.44,248.44,458.82,244.79,454.72,245.4Z"
                fill="#fff" />
            <path
                d="M444.33,244.13c2.81,2.7,3.67,6.36,1.93,8.17s-5.43,1.09-8.24-1.61-3.67-6.36-1.93-8.17S441.52,241.43,444.33,244.13Z"
                fill="#fff" />
            <path
                d="M464,240.63c-1.71,3.5-1.26,7.23,1,8.33s5.47-.85,7.18-4.35,1.25-7.24-1-8.34S465.73,237.12,464,240.63Z"
                fill="#fff" />
            <path
                d="M451.73,234.76c1.42,3.86.55,7.73-1.93,8.64s-5.66-1.47-7.08-5.33-.55-7.73,1.94-8.64S450.31,230.9,451.73,234.76Z"
                fill="#fff" />
            <ellipse cx="458.64" cy="234.39" rx="4.8" ry="7.44" fill="#fff" />
            <path
                d="M372.71,16.59c-2.65,1.75-1.69,4.66-2.69,8.48-1.47,5.59,1,8.08,3.61,7.32s2.88-4.39,5.28-5.83h0l0,0c2.34-1.53,5.74-.22,7.55-2.2s.67-5.31-5-6.45C377.64,17.11,375.45,15,372.71,16.59Z"
                fill="#fff" />
            <path
                d="M365,18.66c2.76,1.11,4.43,3.47,3.71,5.25s-3.55,2.33-6.32,1.21-4.43-3.47-3.71-5.25S362.2,17.54,365,18.66Z"
                fill="#fff" />
            <path
                d="M378,10.53c-.21,3,1.18,5.51,3.1,5.64S384.7,14,384.91,11s-1.18-5.5-3.1-5.63S378.17,7.56,378,10.53Z"
                fill="#fff" />
            <path
                d="M367.55,9.88c2.11,2.34,2.6,5.33,1.09,6.69s-4.44.58-6.55-1.76-2.6-5.33-1.09-6.69S365.43,7.55,367.55,9.88Z"
                fill="#fff" />
            <path
                d="M368.94,9c1.18,2.92,3.65,4.67,5.54,3.92s2.45-3.74,1.28-6.66-3.65-4.68-5.54-3.92S367.77,6.09,368.94,9Z"
                fill="#fff" />
            <path
                d="M354.87,253.76c-3.23-.58-4.59,2.27-8.05,4.4-5.08,3.14-5,6.78-2.53,8s5.28-1.22,8.1-.58h.05c2.84.53,4.46,3.93,7.21,3.74s4.29-3.49.87-8.38C358.18,257.66,358.06,254.51,354.87,253.76Z"
                fill="#fff" />
            <path
                d="M347.62,249.78c1.27,2.81.83,5.75-1,6.56s-4.3-.79-5.57-3.59-.84-5.75,1-6.57S346.35,247,347.62,249.78Z"
                fill="#fff" />
            <path
                d="M363.11,253c-2.28,2.07-3.05,4.94-1.71,6.41s4.27,1,6.55-1.09,3-5,1.7-6.41S365.38,250.91,363.11,253Z"
                fill="#fff" />
            <path
                d="M355.8,245.07c-.09,3.25-1.86,5.83-3.95,5.77s-3.72-2.73-3.63-6,1.86-5.83,3.95-5.78S355.89,241.82,355.8,245.07Z"
                fill="#fff" />
            <path
                d="M357.46,245.41c-1.2,3-.6,6.1,1.34,6.87s4.5-1,5.71-4.05.6-6.1-1.34-6.87S358.67,242.39,357.46,245.41Z"
                fill="#fff" />
            <path
                d="M118.52,291.65c-5-1.55-7.71,2.7-13.61,5.41-8.66,4-9.22,9.76-5.57,12.24s8.61-.91,12.94.65l0,0h.05c4.39,1.39,6.28,7.09,10.68,7.34s7.47-4.7,3-13.11C123,298.48,123.43,293.45,118.52,291.65Z"
                fill="#fff" />
            <ellipse cx="102.33" cy="285.64" rx="5.74" ry="8.9"
                transform="translate(-80.52 43.51) rotate(-17.35)" fill="#fff" />
            <path
                d="M131.72,292c-4,2.84-5.79,7.24-4,9.82s6.57,2.39,10.59-.45,5.78-7.24,4-9.83S135.73,289.18,131.72,292Z"
                fill="#fff" />
            <ellipse cx="115.7" cy="277.16" rx="9.39" ry="6.05"
                transform="translate(-175.63 350.19) rotate(-81.42)" fill="#fff" />
            <path
                d="M124.25,278.93c-2.5,4.55-2.15,9.53.78,11.14s7.33-.77,9.83-5.31,2.14-9.54-.79-11.14S126.75,274.39,124.25,278.93Z"
                fill="#fff" />
            <path
                d="M106.84,98.71c-3.43-1.77-6,1-10.61,2.16-6.81,1.76-8,5.9-5.64,8.17s6.37.47,9.32,2.17l0,0h0c3,1.59,3.65,6,6.81,6.73s6-2.44,3.9-9.14C109.21,104.26,110.17,100.67,106.84,98.71Z"
                fill="#fff" />
            <path
                d="M100.06,91.7c.45,3.61-1.07,6.77-3.39,7.06s-4.57-2.4-5-6S92.71,86,95,85.7,99.6,88.1,100.06,91.7Z"
                fill="#fff" />
            <path
                d="M116.39,100.71c-3.29,1.54-5.15,4.51-4.16,6.63s4.47,2.59,7.76,1,5.15-4.51,4.15-6.64S119.68,99.16,116.39,100.71Z"
                fill="#fff" />
            <path
                d="M110.92,89.25c-1.24,3.62-4.13,5.92-6.47,5.13s-3.24-4.38-2-8,4.12-5.92,6.46-5.13S112.15,85.62,110.92,89.25Z"
                fill="#fff" />
            <path
                d="M112.67,90.21c-2.41,3-2.81,6.66-.89,8.21s5.43.4,7.84-2.58,2.81-6.65.89-8.21S115.08,87.23,112.67,90.21Z"
                fill="#fff" />
            <path
                d="M457.11,149.43c-3.36.48-3.77,3.72-6.48,6.95-4,4.72-2.7,8.27.13,8.71s4.79-2.91,7.77-3.2h.05c3-.4,5.65,2.42,8.3,1.34s3.07-4.82-1.88-8.51C461.63,152.19,460.49,149.13,457.11,149.43Z"
                fill="#fff" />
            <path
                d="M448.69,147.88c2.16,2.34,2.69,5.37,1.18,6.76s-4.49.62-6.65-1.72-2.68-5.37-1.17-6.77S446.53,145.53,448.69,147.88Z"
                fill="#fff" />
            <ellipse cx="468.19" cy="147.82" rx="5.77" ry="3.72"
                transform="translate(109.46 483.04) rotate(-60.58)" fill="#fff" />
            <path
                d="M455.2,140.6c1,3.22.07,6.33-2,7s-4.54-1.48-5.51-4.7-.06-6.33,2-7S454.23,137.38,455.2,140.6Z"
                fill="#fff" />
            <path
                d="M457,140.39c-.21,3.36,1.38,6.19,3.54,6.32s4.08-2.48,4.29-5.84-1.38-6.18-3.55-6.31S457.15,137,457,140.39Z"
                fill="#fff" />
            <path
                d="M351.07,63.23c-4.69.74-5.2,5.29-8.93,9.86-5.47,6.7-3.61,11.64.36,12.2s6.65-4.18,10.81-4.64h.08c4.14-.63,8,3.26,11.64,1.7s4.21-6.81-2.79-11.88C357.46,67,355.8,62.74,351.07,63.23Z"
                fill="#fff" />
            <path
                d="M339.25,61.23c3.08,3.24,3.87,7.47,1.79,9.45s-6.28,1-9.35-2.28-3.87-7.47-1.78-9.45S336.18,58,339.25,61.23Z"
                fill="#fff" />
            <path
                d="M362,58.26c-2.14,3.92-1.82,8.21.71,9.59s6.3-.69,8.44-4.61,1.82-8.21-.71-9.59S364.11,54.34,362,58.26Z"
                fill="#fff" />
            <path
                d="M348.22,50.9c1.42,4.48.22,8.87-2.67,9.78s-6.39-2-7.81-6.47-.23-8.87,2.67-9.78S346.8,46.41,348.22,50.9Z"
                fill="#fff" />
            <path
                d="M350.66,50.58c-.22,4.7,2.06,8.63,5.09,8.77s5.67-3.56,5.89-8.27-2.07-8.62-5.1-8.76S350.87,45.87,350.66,50.58Z"
                fill="#fff" />
            <path
                d="M424.27,198c-2.49-1.76-4.76.11-8.51.54-5.51.64-6.86,3.74-5.29,5.77s4.93,1,7,2.7h0l0,0c2.18,1.56,2.2,5.05,4.59,6s5-1.25,4-6.71C425.52,202.62,426.66,199.91,424.27,198Z"
                fill="#fff" />
            <path
                d="M419.73,191.83c0,2.86-1.56,5.16-3.4,5.14s-3.32-2.36-3.28-5.22,1.56-5.17,3.4-5.15S419.77,189,419.73,191.83Z"
                fill="#fff" />
            <path
                d="M431.51,200.61c-2.74.85-4.51,3-4,4.73s3.2,2.51,5.94,1.66,4.5-3,4-4.73S434.24,199.77,431.51,200.61Z"
                fill="#fff" />
            <path
                d="M428.47,191.08c-1.35,2.7-3.86,4.18-5.6,3.31s-2.05-3.77-.7-6.47,3.86-4.18,5.6-3.3S429.82,188.38,428.47,191.08Z"
                fill="#fff" />
            <ellipse cx="432.14" cy="194.6" rx="5.47" ry="3.52"
                transform="translate(-16.16 348.34) rotate(-43.17)" fill="#fff" />
            <path
                d="M139.85,15.51c-2.42-.54-3.54,1.58-6.23,3.08-4,2.21-4,5-2.17,6s4-.76,6.15-.18h0c2.13.49,3.24,3.11,5.33,3.06s3.35-2.5.92-6.31C142.23,18.57,142.24,16.18,139.85,15.51Z"
                fill="#fff" />
            <path
                d="M134.49,12.27c.87,2.17.45,4.38-1,4.94s-3.23-.74-4.1-2.9-.45-4.38.94-4.94S133.62,10.11,134.49,12.27Z"
                fill="#fff" />
            <path
                d="M146.11,15.19c-1.79,1.49-2.46,3.64-1.5,4.79s3.2.88,5-.61,2.46-3.65,1.49-4.8S147.9,13.69,146.11,15.19Z"
                fill="#fff" />
            <path
                d="M140.83,9c-.17,2.45-1.59,4.35-3.18,4.24S134.93,11,135.1,8.57s1.59-4.36,3.17-4.25S141,6.51,140.83,9Z"
                fill="#fff" />
            <path
                d="M142.08,9.28c-1,2.25-.66,4.59.79,5.24s3.44-.64,4.45-2.89.65-4.59-.8-5.24S143.08,7,142.08,9.28Z"
                fill="#fff" />
            <path
                d="M99.19,207.69c-3.73,2.27-2.56,6.32-4.13,11.52-2.3,7.62,1,11.17,4.59,10.25s4.19-5.89,7.57-7.75h0l0,0c3.3-2,7.92,0,10.5-2.64s1.19-7.28-6.55-9.13C106,208.65,103,205.61,99.19,207.69Z"
                fill="#fff" />
            <path
                d="M88.44,210.13c3.75,1.68,5.91,5,4.83,7.42s-5,3-8.75,1.34-5.91-5-4.83-7.41S84.68,208.46,88.44,210.13Z"
                fill="#fff" />
            <path
                d="M106.72,199.62c-.44,4.09,1.34,7.63,4,7.91s5.12-2.8,5.56-6.88-1.34-7.63-4-7.91S107.16,195.54,106.72,199.62Z"
                fill="#fff" />
            <path
                d="M92.43,198.19c2.79,3.32,3.31,7.47,1.17,9.27s-6.13.56-8.92-2.76-3.31-7.47-1.17-9.27S89.65,194.87,92.43,198.19Z"
                fill="#fff" />
            <path
                d="M94.39,197.07c1.47,4.07,4.79,6.61,7.42,5.66s3.57-5,2.1-9.09S99.12,187,96.5,188,92.93,193,94.39,197.07Z"
                fill="#fff" />
            <path
                d="M326.24,18.31c-2.41-.85-3.81,1.17-6.74,2.38-4.3,1.77-4.68,4.58-2.95,5.86s4.21-.28,6.3.57h0c2.12.76,2.93,3.58,5.07,3.78s3.73-2.14,1.71-6.33C328.3,21.72,328.6,19.28,326.24,18.31Z"
                fill="#fff" />
            <path
                d="M321.17,14.34c.62,2.32-.08,4.52-1.58,4.93s-3.21-1.15-3.83-3.47.08-4.52,1.57-4.93S320.54,12,321.17,14.34Z"
                fill="#fff" />
            <path
                d="M332.67,18.74c-2,1.31-3,3.42-2.12,4.72s3.16,1.29,5.17,0,3-3.42,2.12-4.72S334.68,17.43,332.67,18.74Z"
                fill="#fff" />
            <path
                d="M328,11.74c-.47,2.49-2.16,4.26-3.76,3.95s-2.51-2.57-2-5.06S324.4,6.38,326,6.69,328.52,9.26,328,11.74Z"
                fill="#fff" />
            <path
                d="M329.28,12.22c-1.3,2.17-1.23,4.61.17,5.45s3.59-.24,4.89-2.41,1.23-4.61-.17-5.45S330.58,10.05,329.28,12.22Z"
                fill="#fff" />
            <path
                d="M323,170.09c1.33-1,2.62-.71,4.57-.24a22.32,22.32,0,0,0,3.54.61c2.67.2,4.63,1.1,5.24,2.4a2.1,2.1,0,0,1-.63,2.43,6.3,6.3,0,0,1-2.71,1,8.32,8.32,0,0,0-3.73,1.44l-.08.07-.08.06a8.23,8.23,0,0,0-2.15,3.34,6.5,6.5,0,0,1-1.49,2.45,2.51,2.51,0,0,1-.52.32,1.92,1.92,0,0,1-2-.2c-1.15-.86-1.62-3-1.27-5.63a21.26,21.26,0,0,0,.12-3.58c0-2-.08-3.33,1.19-4.43m-.5-.61c-2.36,2-1.08,4.71-1.59,8.52-.75,5.59,2,7.7,4.36,6.65a2.8,2.8,0,0,0,.71-.43c1.67-1.36,1.79-4.28,3.64-5.79a.18.18,0,0,0,.07-.05l0,0h0l.05,0c1.86-1.52,4.77-1,6.44-2.4a3.21,3.21,0,0,0,.56-.6c1.51-2.12,0-5.22-5.62-5.64-3.83-.28-6.21-2.08-8.66-.19Z"
                fill="#fff" />
            <path
                d="M310.66,173.69h0a5.18,5.18,0,0,1,4.42-.52,6.12,6.12,0,0,1,3,1.69,2.26,2.26,0,0,1,.69,2,1.61,1.61,0,0,1-.57.85,5.19,5.19,0,0,1-4.42.51,6.18,6.18,0,0,1-3-1.68,2.27,2.27,0,0,1-.69-2,1.6,1.6,0,0,1,.58-.85m-.5-.62a2.5,2.5,0,0,0-.85,1.26c-.48,1.82,1.41,3.89,4.22,4.64a6,6,0,0,0,5.13-.67,2.44,2.44,0,0,0,.84-1.26c.48-1.81-1.41-3.89-4.22-4.64a6,6,0,0,0-5.12.67Z"
                fill="#fff" />
            <path
                d="M329.07,158.73a1.75,1.75,0,0,1,1-.4c1.41-.07,2.71,1.91,2.84,4.34a5.19,5.19,0,0,1-1.4,4.21,1.65,1.65,0,0,1-1,.4c-1.41.07-2.71-1.91-2.84-4.33a5.28,5.28,0,0,1,1.4-4.22m-.5-.61a6,6,0,0,0-1.69,4.87c.15,2.9,1.8,5.18,3.67,5.08a2.41,2.41,0,0,0,1.42-.58,5.91,5.91,0,0,0,1.69-4.86c-.15-2.91-1.79-5.19-3.67-5.09a2.5,2.5,0,0,0-1.42.58Z"
                fill="#fff" />
            <path
                d="M311,163h0c1.11-.91,3.41-.38,5.24,1.19a6.54,6.54,0,0,1,2,3,2.42,2.42,0,0,1-.26,2.24,1.8,1.8,0,0,1-.2.19c-1.11.91-3.41.38-5.23-1.19a6.61,6.61,0,0,1-2.05-3,2.43,2.43,0,0,1,.27-2.24A1.7,1.7,0,0,1,311,163m-.5-.61a2.54,2.54,0,0,0-.29.28c-1.3,1.5-.46,4.34,1.86,6.35,2.16,1.86,4.85,2.35,6.25,1.2a2,2,0,0,0,.3-.28c1.29-1.5.46-4.34-1.86-6.35-2.17-1.86-4.85-2.35-6.26-1.2Z"
                fill="#fff" />
            <path
                d="M318.56,156.84a1.94,1.94,0,0,1,.24-.15c1.32-.73,3.49.56,4.75,2.82,1.16,2.1,1.2,4.45.09,5.36a1.88,1.88,0,0,1-.23.16,2.42,2.42,0,0,1-2.24-.21,6.46,6.46,0,0,1-2.51-2.61c-1.16-2.1-1.2-4.46-.1-5.37m-.5-.61c-1.4,1.15-1.47,3.87-.09,6.36,1.49,2.69,4.1,4.09,5.83,3.13a2.71,2.71,0,0,0,.35-.24c1.4-1.14,1.47-3.87.09-6.36-1.49-2.68-4.1-4.08-5.83-3.12a1.92,1.92,0,0,0-.35.23Z"
                fill="#fff" />
            <path
                d="M60.58,299.57c1.52.58,1.94,1.8,2.56,3.64a21.49,21.49,0,0,0,1.31,3.23c1.21,2.3,1.49,4.38.73,5.55a2,2,0,0,1-2.33.73A6,6,0,0,1,60.66,311a8,8,0,0,0-3.1-2.32l-.09,0-.1,0a8.1,8.1,0,0,0-3.85,0,6.22,6.22,0,0,1-2.78,0,2,2,0,0,1-.53-.26,1.86,1.86,0,0,1-.87-1.75c.12-1.39,1.61-2.86,4-3.94a21.45,21.45,0,0,0,3-1.74c1.63-1.07,2.7-1.78,4.25-1.31m.25-.72C58,298,56.4,300.38,53,301.92c-5,2.27-5.32,5.59-3.23,7a2.7,2.7,0,0,0,.72.36c2,.67,4.44-.72,6.64,0l.08,0h0l.06,0c2.21.75,3.31,3.39,5.29,4.06a2.84,2.84,0,0,0,.78.15c2.52.16,4.3-2.68,1.75-7.52-1.74-3.3-1.48-6.18-4.3-7.23Z"
                fill="#fff" />
            <path
                d="M51.26,291.25h0a5,5,0,0,1,2.7,3.37,6,6,0,0,1,.14,3.3,2.21,2.21,0,0,1-1.28,1.59,1.48,1.48,0,0,1-1,0,5,5,0,0,1-2.7-3.37,6,6,0,0,1-.14-3.3,2.21,2.21,0,0,1,1.28-1.59,1.54,1.54,0,0,1,1,0m.25-.73a2.39,2.39,0,0,0-1.47,0c-1.74.54-2.48,3.16-1.65,5.86a5.76,5.76,0,0,0,3.19,3.87,2.39,2.39,0,0,0,1.47.05c1.74-.54,2.48-3.16,1.65-5.86a5.76,5.76,0,0,0-3.19-3.87Z"
                fill="#fff" />
            <path
                d="M73,298.71a1.58,1.58,0,0,1,.82.58c.79,1.13-.17,3.22-2.1,4.57a5.06,5.06,0,0,1-4.19,1,1.58,1.58,0,0,1-.82-.58c-.79-1.13.17-3.22,2.1-4.57a5.06,5.06,0,0,1,4.19-1m.25-.73a5.83,5.83,0,0,0-4.88,1.11c-2.31,1.62-3.34,4.15-2.29,5.64a2.37,2.37,0,0,0,1.2.87,5.83,5.83,0,0,0,4.88-1.11c2.31-1.62,3.34-4.15,2.29-5.64a2.37,2.37,0,0,0-1.2-.87Z"
                fill="#fff" />
            <path
                d="M60.21,286h0c1.32.45,2.07,2.61,1.71,4.92a6.39,6.39,0,0,1-1.4,3.22,2.37,2.37,0,0,1-2,.94,2,2,0,0,1-.26-.06c-1.32-.45-2.07-2.61-1.71-4.93a6.43,6.43,0,0,1,1.4-3.22,2.39,2.39,0,0,1,2-.93,1.1,1.1,0,0,1,.26.06m.25-.73-.39-.09c-1.9-.3-3.8,1.85-4.26,4.8-.43,2.73.56,5.2,2.22,5.76a1.86,1.86,0,0,0,.39.1c1.9.29,3.8-1.85,4.26-4.8.43-2.74-.56-5.2-2.22-5.77Z"
                fill="#fff" />
            <path
                d="M69.19,289.09a1.12,1.12,0,0,1,.25.11c1.28.71,1.34,3.16.12,5.36-1.13,2-3,3.28-4.36,2.84l-.25-.11a2.37,2.37,0,0,1-1-2,6.32,6.32,0,0,1,.87-3.4c1.13-2,3-3.29,4.36-2.84m.25-.73c-1.67-.56-3.94.78-5.29,3.2-1.44,2.6-1.25,5.47.43,6.4a2.48,2.48,0,0,0,.37.17c1.67.56,3.94-.78,5.29-3.2,1.44-2.61,1.25-5.47-.43-6.4a1.76,1.76,0,0,0-.37-.17Z"
                fill="#fff" />
            <path
                d="M63.78,153.65c1.89,1.93,1.66,4.06,1.32,7.27a35.62,35.62,0,0,0-.27,5.77c.23,4.32-.81,7.64-2.76,8.88a3.11,3.11,0,0,1-3.24.05,3.32,3.32,0,0,1-.78-.57A10.27,10.27,0,0,1,56,170.91a13.46,13.46,0,0,0-3.05-5.67l-.12-.11-.12-.11a13.36,13.36,0,0,0-5.77-2.77,10.28,10.28,0,0,1-4.22-1.88,3.28,3.28,0,0,1-.62-.77,3.1,3.1,0,0,1-.09-3.24c1.15-2,4.41-3.19,8.74-3.16a35.38,35.38,0,0,0,5.75-.54c3.2-.48,5.31-.8,7.32,1m.88-.92c-3.7-3.35-7.75-.77-13.95-.81-9.08-.06-11.9,4.72-9.74,8.33a4.81,4.81,0,0,0,.83,1.05c2.51,2.38,7.2,2,10,4.64l.1.1,0,0,0,0,.08.07c2.8,2.67,2.62,7.41,5.14,9.81a4.85,4.85,0,0,0,1.06.76c3.7,2,8.35-1,7.88-10.11-.33-6.19,2.06-10.36-1.45-13.9Z"
                fill="#fff" />
            <path
                d="M55.52,134.62h0c1.44,1.36,2.11,4.09,1.73,7a9.9,9.9,0,0,1-2.1,5.07,3.65,3.65,0,0,1-3,1.52,2.65,2.65,0,0,1-1.47-.76c-1.43-1.36-2.11-4.09-1.72-6.95A9.89,9.89,0,0,1,51,135.38a3.62,3.62,0,0,1,3-1.51,2.61,2.61,0,0,1,1.47.75m.88-.93a3.91,3.91,0,0,0-2.18-1.09c-3-.4-5.93,3-6.56,7.69-.45,3.37.44,6.46,2.11,8.05A4,4,0,0,0,52,149.43c3,.4,5.94-3,6.56-7.68.46-3.38-.44-6.47-2.11-8.06Z"
                fill="#fff" />
            <path
                d="M83.16,161a2.57,2.57,0,0,1,.83,1.45c.41,2.24-2.5,4.72-6.35,5.42-2.83.51-5.58,0-7-1.39a2.69,2.69,0,0,1-.84-1.45c-.4-2.24,2.51-4.72,6.35-5.42,2.84-.52,5.59,0,7,1.39m.88-.93c-1.67-1.58-4.78-2.32-8.12-1.72-4.62.84-7.92,3.93-7.38,6.9a3.89,3.89,0,0,0,1.21,2.15c1.67,1.59,4.78,2.33,8.12,1.72,4.61-.83,7.92-3.92,7.38-6.9A4,4,0,0,0,84,160.09Z"
                fill="#fff" />
            <path
                d="M72.65,133h0c1.68,1.59,1.31,5.38-.84,8.61a10.57,10.57,0,0,1-4.36,3.88,3.93,3.93,0,0,1-3.64,0,2.88,2.88,0,0,1-.34-.27c-1.67-1.6-1.3-5.38.85-8.61a10.51,10.51,0,0,1,4.36-3.88,3.91,3.91,0,0,1,3.63,0,2.24,2.24,0,0,1,.34.27m.88-.92a4,4,0,0,0-.51-.41c-2.66-1.77-7,.14-9.77,4.26-2.54,3.83-2.78,8.23-.66,10.24a3.48,3.48,0,0,0,.52.41c2.65,1.77,7-.14,9.76-4.26,2.55-3.83,2.78-8.23.66-10.24Z"
                fill="#fff" />
            <path
                d="M84.05,143.84a1.81,1.81,0,0,1,.29.33c1.44,2-.18,5.71-3.53,8.17-3.13,2.29-6.89,2.83-8.56,1.24a2.35,2.35,0,0,1-.3-.33,4,4,0,0,1-.13-3.64,10.54,10.54,0,0,1,3.67-4.53c3.13-2.29,6.88-2.83,8.56-1.24m.88-.93c-2.12-2-6.49-1.57-10.19,1.14-4,2.92-5.7,7.38-3.82,9.95a5.47,5.47,0,0,0,.45.51c2.12,2,6.48,1.57,10.19-1.14,4-2.92,5.7-7.38,3.81-10a4.23,4.23,0,0,0-.44-.51Z"
                fill="#fff" />
            <path
                d="M14.75,72.37c1.18-.71,2.22-.34,3.77.21a17,17,0,0,0,2.84.83c2.17.41,3.69,1.32,4.07,2.44a1.61,1.61,0,0,1-.36,1.62,2,2,0,0,1-.38.32,5.28,5.28,0,0,1-2.31.53,6.87,6.87,0,0,0-3.18.84l-.07,0-.07,0A6.84,6.84,0,0,0,17,81.78a5.25,5.25,0,0,1-1.44,1.87,1.76,1.76,0,0,1-.46.22,1.59,1.59,0,0,1-1.62-.35c-.86-.81-1.05-2.57-.52-4.72a17.18,17.18,0,0,0,.43-2.92c.14-1.64.24-2.73,1.37-3.51m-.35-.55c-2.11,1.43-1.32,3.76-2.08,6.83-1.12,4.5.91,6.48,3,5.84a2.45,2.45,0,0,0,.61-.29c1.49-1,1.86-3.34,3.51-4.4l.06,0h0l0,0c1.67-1.07,4-.41,5.49-1.38a2.08,2.08,0,0,0,.51-.43c1.44-1.6.49-4.27-4.07-5.13-3.11-.58-4.9-2.27-7.08-1Z"
                fill="#fff" />
            <path
                d="M4.31,74.17h0a4.29,4.29,0,0,1,3.66,0,5,5,0,0,1,2.27,1.65,1.85,1.85,0,0,1,.38,1.68,1.31,1.31,0,0,1-.55.65,4.29,4.29,0,0,1-3.66,0A5,5,0,0,1,4.14,76.5a1.88,1.88,0,0,1-.39-1.68,1.39,1.39,0,0,1,.56-.65M4,73.63a2,2,0,0,0-.8,1c-.56,1.44.79,3.31,3,4.18a4.91,4.91,0,0,0,4.26-.08,2,2,0,0,0,.8-1c.56-1.44-.79-3.31-3-4.18A4.89,4.89,0,0,0,4,73.63Z"
                fill="#fff" />
            <path
                d="M20.74,63.63a1.3,1.3,0,0,1,.82-.24c1.17.07,2.05,1.81,1.93,3.8A4.3,4.3,0,0,1,22,70.51a1.38,1.38,0,0,1-.83.24c-1.16-.07-2-1.81-1.92-3.81a4.26,4.26,0,0,1,1.53-3.31m-.35-.55a4.89,4.89,0,0,0-1.83,3.83c-.14,2.39,1,4.4,2.54,4.49a2.06,2.06,0,0,0,1.21-.34,4.91,4.91,0,0,0,1.83-3.83c.14-2.39-1-4.4-2.54-4.49a2,2,0,0,0-1.21.34Z"
                fill="#fff" />
            <path
                d="M5.54,65.47h0c1-.64,2.83,0,4.17,1.45a5.31,5.31,0,0,1,1.4,2.63,2,2,0,0,1-.42,1.81l-.17.14c-1,.64-2.83,0-4.18-1.46a5.35,5.35,0,0,1-1.4-2.63,2,2,0,0,1,.42-1.81l.18-.13m-.36-.55a1.71,1.71,0,0,0-.26.21c-1.2,1.1-.77,3.5.94,5.36s3.75,2.37,5,1.56a2.47,2.47,0,0,0,.27-.21c1.19-1.1.77-3.51-1-5.36s-3.75-2.37-5-1.56Z"
                fill="#fff" />
            <path
                d="M12.32,61.12l.2-.11c1.15-.48,2.81.78,3.63,2.74s.58,3.76-.41,4.4l-.21.11a2,2,0,0,1-1.82-.37,5.45,5.45,0,0,1-1.8-2.37c-.77-1.83-.58-3.76.41-4.4M12,60.57c-1.25.81-1.56,3-.66,5.2,1,2.33,3,3.71,4.48,3.09l.31-.16c1.25-.81,1.56-3,.66-5.2-1-2.33-3-3.72-4.48-3.09a1.82,1.82,0,0,0-.31.16Z"
                fill="#fff" />
            <path
                d="M72.28,256.13c1.58-.86,2.91-.32,4.91.48a25.2,25.2,0,0,0,3.66,1.23c2.81.64,4.76,1.91,5.19,3.39a2,2,0,0,1-.55,2.09,2.2,2.2,0,0,1-.51.4,6.82,6.82,0,0,1-3,.58,9,9,0,0,0-4.2.93l-.09.06-.1,0a9,9,0,0,0-2.82,3.2,7,7,0,0,1-2,2.37,2.49,2.49,0,0,1-.61.26,2.1,2.1,0,0,1-2.1-.53c-1.08-1.11-1.24-3.42-.43-6.19a23.91,23.91,0,0,0,.7-3.79c.27-2.15.45-3.56,2-4.53m-.43-.73c-2.82,1.76-1.91,4.84-3.06,8.81-1.7,5.82.86,8.51,3.57,7.78a3.17,3.17,0,0,0,.82-.35c2-1.17,2.6-4.26,4.81-5.56l.08-.05h0l0,0,.06,0c2.22-1.32,5.23-.33,7.23-1.52a2.94,2.94,0,0,0,.69-.54c2-2,.85-5.55-5.06-6.9-4-.92-6.27-3.22-9.19-1.61Z"
                fill="#fff" />
            <path
                d="M58.55,258h0a5.59,5.59,0,0,1,4.78.17,6.55,6.55,0,0,1,2.88,2.27,2.41,2.41,0,0,1,.42,2.22,1.76,1.76,0,0,1-.75.81,5.59,5.59,0,0,1-4.78-.16A6.57,6.57,0,0,1,58.22,261a2.41,2.41,0,0,1-.42-2.22,1.76,1.76,0,0,1,.75-.81m-.43-.73a2.6,2.6,0,0,0-1.1,1.2c-.81,1.85.87,4.37,3.74,5.62a6.35,6.35,0,0,0,5.55.11,2.6,2.6,0,0,0,1.1-1.2c.81-1.85-.87-4.37-3.74-5.61a6.39,6.39,0,0,0-5.55-.12Z"
                fill="#fff" />
            <path
                d="M80.55,245a1.83,1.83,0,0,1,1.08-.27c1.52.15,2.58,2.47,2.32,5.07a5.56,5.56,0,0,1-2.17,4.25,1.76,1.76,0,0,1-1.08.27c-1.52-.15-2.58-2.47-2.32-5.07A5.59,5.59,0,0,1,80.55,245m-.44-.73a6.39,6.39,0,0,0-2.58,4.9c-.31,3.12,1.08,5.8,3.08,6a2.66,2.66,0,0,0,1.61-.39,6.39,6.39,0,0,0,2.58-4.9c.31-3.12-1.08-5.8-3.08-6a2.66,2.66,0,0,0-1.61.39Z"
                fill="#fff" />
            <path
                d="M60.61,246.66h0c1.32-.79,3.69.14,5.37,2.11a7.08,7.08,0,0,1,1.7,3.51,2.63,2.63,0,0,1-.65,2.34l-.23.17c-1.33.79-3.69-.14-5.38-2.11a7,7,0,0,1-1.69-3.51,2.59,2.59,0,0,1,.64-2.34,1.46,1.46,0,0,1,.24-.17m-.44-.73a3.9,3.9,0,0,0-.36.25c-1.61,1.39-1.18,4.54,1,7,2,2.33,4.78,3.29,6.46,2.29a2.9,2.9,0,0,0,.36-.25c1.61-1.39,1.19-4.54-1-7.05-2-2.34-4.78-3.29-6.46-2.29Z"
                fill="#fff" />
            <path
                d="M69.67,241.33a1.43,1.43,0,0,1,.28-.13c1.52-.57,3.63,1.15,4.59,3.76.9,2.42.57,4.94-.76,5.72a1.13,1.13,0,0,1-.27.13,2.59,2.59,0,0,1-2.35-.58,7,7,0,0,1-2.25-3.18c-.89-2.43-.56-4.94.76-5.72m-.43-.74c-1.67,1-2.19,3.88-1.12,6.75,1.14,3.1,3.69,5,5.69,4.27a2.22,2.22,0,0,0,.41-.2c1.67-1,2.19-3.87,1.12-6.75-1.15-3.09-3.69-5-5.69-4.26a3,3,0,0,0-.41.19Z"
                fill="#fff" />
            <path
                d="M185.54,22.21c1.61,0,2.41,1,3.62,2.53a20.81,20.81,0,0,0,2.32,2.56c1.91,1.74,2.87,3.59,2.56,4.94a1.84,1.84,0,0,1-1.35,1.38,1.88,1.88,0,0,1-.57.09,6.14,6.14,0,0,1-2.64-.88,7.91,7.91,0,0,0-3.68-1.12h-.2A8.06,8.06,0,0,0,182,33a6.14,6.14,0,0,1-2.58,1,1.91,1.91,0,0,1-.59-.07,1.84,1.84,0,0,1-1.41-1.33c-.35-1.34.53-3.22,2.38-5A21.17,21.17,0,0,0,182,24.88c1.15-1.56,1.92-2.59,3.53-2.67m0-.76c-3,.13-3.62,2.94-6.26,5.53-3.88,3.8-3.07,7-.63,7.64a2.7,2.7,0,0,0,.79.09c2.07,0,3.9-2.18,6.2-2.23h.2c2.31,0,4.23,2,6.31,2a3.1,3.1,0,0,0,.78-.13c2.41-.71,3.1-4-.92-7.61-2.74-2.49-3.48-5.27-6.47-5.29Z"
                fill="#fff" />
            <path
                d="M174,17.61h0a5,5,0,0,1,3.66,2.22,5.84,5.84,0,0,1,1.25,3,2.18,2.18,0,0,1-.64,1.92,1.65,1.65,0,0,1-.95.3,5,5,0,0,1-3.66-2.23,5.86,5.86,0,0,1-1.25-3,2.18,2.18,0,0,1,.65-1.91,1.53,1.53,0,0,1,.94-.3m0-.77a2.32,2.32,0,0,0-1.39.46c-1.44,1.09-1.24,3.79.45,6a5.73,5.73,0,0,0,4.29,2.54,2.41,2.41,0,0,0,1.39-.46c1.44-1.09,1.23-3.79-.46-6A5.74,5.74,0,0,0,174,16.84Z"
                fill="#fff" />
            <path
                d="M196.87,17.18a1.59,1.59,0,0,1,1,.26c1.12.78.93,3.06-.41,5a5,5,0,0,1-3.57,2.36,1.59,1.59,0,0,1-1-.26c-1.12-.78-.93-3.06.41-5a5,5,0,0,1,3.57-2.36m0-.77a5.74,5.74,0,0,0-4.17,2.69c-1.61,2.3-1.71,5-.23,6a2.27,2.27,0,0,0,1.42.4A5.68,5.68,0,0,0,198,22.85c1.61-2.29,1.71-5,.23-6a2.34,2.34,0,0,0-1.42-.41Z"
                fill="#fff" />
            <path
                d="M180.58,9.68h0c1.39,0,2.82,1.74,3.27,4a6.29,6.29,0,0,1-.22,3.48,2.34,2.34,0,0,1-1.53,1.54,1.09,1.09,0,0,1-.26,0c-1.38,0-2.82-1.73-3.27-4a6.28,6.28,0,0,1,.22-3.48,2.35,2.35,0,0,1,1.53-1.55l.26,0m0-.76a2.71,2.71,0,0,0-.4,0c-1.87.37-2.92,3-2.34,5.93.53,2.7,2.28,4.66,4,4.62a1.72,1.72,0,0,0,.39,0c1.87-.37,2.92-3,2.35-5.92-.53-2.7-2.29-4.67-4-4.63Z"
                fill="#fff" />
            <path
                d="M190,9.51a1.22,1.22,0,0,1,.27,0c1.43.23,2.32,2.5,1.93,5-.36,2.29-1.73,4.1-3.11,4.13a1.11,1.11,0,0,1-.26,0,2.36,2.36,0,0,1-1.59-1.49,6.28,6.28,0,0,1-.35-3.47c.36-2.29,1.73-4.11,3.11-4.13m0-.77c-1.74,0-3.41,2.07-3.84,4.78-.47,2.92.68,5.53,2.57,5.83a2.69,2.69,0,0,0,.4,0c1.74,0,3.41-2.07,3.85-4.78.46-2.92-.69-5.53-2.58-5.83a2.69,2.69,0,0,0-.4,0Z"
                fill="#fff" />
            <path
                d="M202.44,213.07c2.17,1,2.63,2.88,3.33,5.69a31.5,31.5,0,0,0,1.53,4.92c1.51,3.55,1.66,6.65.4,8.28a2.77,2.77,0,0,1-2.7,1,3,3,0,0,1-.83-.24,9.11,9.11,0,0,1-3-2.84,12,12,0,0,0-4.29-3.81l-.13-.06-.14-.06a11.87,11.87,0,0,0-5.68-.56,9.29,9.29,0,0,1-4.12-.29,3.22,3.22,0,0,1-.75-.46A2.75,2.75,0,0,1,185,222c.35-2,2.73-4,6.36-5.33a31.53,31.53,0,0,0,4.67-2.2c2.53-1.38,4.21-2.3,6.44-1.4m.45-1c-4.12-1.68-6.73,1.72-11.94,3.58-7.63,2.73-8.54,7.6-5.63,10a4.49,4.49,0,0,0,1,.62c2.83,1.23,6.65-.53,9.8.84l.11.05,0,0h0l.08,0c3.17,1.38,4.46,5.41,7.31,6.65a3.81,3.81,0,0,0,1.12.32c3.72.54,6.69-3.42,3.52-10.89-2.16-5.08-1.43-9.31-5.46-11.21Z"
                fill="#fff" />
            <path
                d="M189.7,199.62h0c1.62.7,3,2.79,3.57,5.31a8.81,8.81,0,0,1-.21,4.9A3.24,3.24,0,0,1,191,212a2.39,2.39,0,0,1-1.47-.18c-1.62-.7-3-2.79-3.57-5.31a8.83,8.83,0,0,1,.21-4.9,3.26,3.26,0,0,1,2.07-2.19,2.39,2.39,0,0,1,1.47.18m.46-1a3.49,3.49,0,0,0-2.17-.25c-2.64.58-4.05,4.36-3.15,8.45.65,3,2.34,5.28,4.23,6.1a3.45,3.45,0,0,0,2.16.25c2.64-.57,4.05-4.36,3.15-8.44-.65-3-2.34-5.29-4.22-6.11Z"
                fill="#fff" />
            <path
                d="M220.94,213.32a2.35,2.35,0,0,1,1.14,1c1,1.75-.65,4.72-3.67,6.48-2.22,1.29-4.69,1.68-6.31,1a2.39,2.39,0,0,1-1.14-1c-1-1.75.66-4.72,3.67-6.48,2.22-1.3,4.7-1.68,6.31-1m.45-1c-1.88-.82-4.72-.49-7.33,1-3.62,2.11-5.44,5.71-4.08,8a3.46,3.46,0,0,0,1.67,1.43c1.88.82,4.72.49,7.34-1,3.61-2.11,5.44-5.71,4.08-8a3.53,3.53,0,0,0-1.68-1.43Z"
                fill="#fff" />
            <path
                d="M203.56,193h0c1.89.83,2.73,4.11,1.92,7.48a9.32,9.32,0,0,1-2.48,4.58,3.47,3.47,0,0,1-3,1.14,2.29,2.29,0,0,1-.37-.12c-1.9-.83-2.74-4.11-1.93-7.48a9.44,9.44,0,0,1,2.48-4.59,3.52,3.52,0,0,1,3-1.13,2.65,2.65,0,0,1,.37.12m.45-1a3.35,3.35,0,0,0-.56-.19c-2.76-.67-5.85,2.27-6.88,6.56-1,4,.18,7.75,2.57,8.79a3.69,3.69,0,0,0,.56.19c2.77.67,5.85-2.27,6.88-6.56,1-4-.18-7.75-2.57-8.79Z"
                fill="#fff" />
            <path
                d="M216.44,198.64a2.37,2.37,0,0,1,.35.19c1.81,1.21,1.59,4.84-.48,7.93-1.92,2.87-4.9,4.48-6.79,3.66a2.37,2.37,0,0,1-.35-.19,3.48,3.48,0,0,1-1.22-3,9.36,9.36,0,0,1,1.69-4.92c1.92-2.87,4.91-4.48,6.8-3.66m.45-1c-2.39-1-5.92.66-8.19,4.07-2.46,3.66-2.53,7.92-.16,9.5a2.47,2.47,0,0,0,.53.29c2.38,1,5.91-.66,8.19-4.07,2.45-3.66,2.53-7.92.16-9.5a3.06,3.06,0,0,0-.53-.29Z"
                fill="#fff" />
            <path
                d="M117.84,159.44c1.47.19,2.1,1.19,3,2.7a19,19,0,0,0,1.85,2.6c1.57,1.8,2.25,3.59,1.82,4.8a1.68,1.68,0,0,1-1.39,1.12,1.89,1.89,0,0,1-.53,0,5.53,5.53,0,0,1-2.32-1.09,7.41,7.41,0,0,0-3.26-1.41h-.18a7.47,7.47,0,0,0-3.45.76,5.66,5.66,0,0,1-2.47.62,1.86,1.86,0,0,1-.53-.12,1.73,1.73,0,0,1-1.15-1.38c-.18-1.26.84-2.89,2.72-4.35a19.19,19.19,0,0,0,2.32-2.19c1.22-1.3,2-2.16,3.52-2.06m.07-.7c-2.75-.2-3.64,2.3-6.34,4.4-4,3.07-3.56,6.1-1.39,6.94a2.52,2.52,0,0,0,.71.16c1.9.18,3.81-1.58,5.93-1.38H117c2.12.2,3.66,2.32,5.57,2.51a2.9,2.9,0,0,0,.72,0c2.29-.4,3.27-3.3,0-7.08-2.25-2.58-2.63-5.2-5.36-5.54Z"
                fill="#fff" />
            <path
                d="M107.77,154h0a4.62,4.62,0,0,1,3.11,2.43,5.46,5.46,0,0,1,.82,2.92,2,2,0,0,1-.8,1.69,1.45,1.45,0,0,1-.89.18,4.6,4.6,0,0,1-3.12-2.44,5.41,5.41,0,0,1-.82-2.92,2,2,0,0,1,.8-1.69,1.54,1.54,0,0,1,.9-.17m.06-.7a2.14,2.14,0,0,0-1.32.27c-1.44.84-1.54,3.34-.23,5.57a5.28,5.28,0,0,0,3.66,2.78,2.19,2.19,0,0,0,1.32-.27c1.44-.85,1.54-3.34.23-5.57a5.28,5.28,0,0,0-3.66-2.78Z"
                fill="#fff" />
            <path
                d="M128.76,156a1.43,1.43,0,0,1,.86.35c.94.83.52,2.9-.91,4.52a4.64,4.64,0,0,1-3.52,1.78,1.48,1.48,0,0,1-.86-.34c-.94-.84-.52-2.91.91-4.52a4.66,4.66,0,0,1,3.52-1.79m.07-.7a5.3,5.3,0,0,0-4.11,2c-1.72,1.94-2.1,4.4-.86,5.51a2.13,2.13,0,0,0,1.26.52,5.28,5.28,0,0,0,4.12-2c1.71-1.93,2.1-4.4.85-5.51a2.23,2.23,0,0,0-1.26-.52Z"
                fill="#fff" />
            <path
                d="M114.64,147.42h0c1.27.12,2.4,1.89,2.56,4a5.79,5.79,0,0,1-.57,3.17,2.15,2.15,0,0,1-1.57,1.25h-.24c-1.27-.12-2.4-1.89-2.57-4a5.79,5.79,0,0,1,.58-3.17,2.15,2.15,0,0,1,1.57-1.25h.24m.06-.7h-.36c-1.75.13-3,2.45-2.79,5.17.2,2.54,1.6,4.53,3.21,4.68a2.16,2.16,0,0,0,.36,0c1.75-.14,3-2.46,2.79-5.18-.2-2.53-1.6-4.52-3.21-4.67Z"
                fill="#fff" />
            <path
                d="M123.3,148.27a1,1,0,0,1,.24,0c1.3.36,1.87,2.54,1.24,4.75-.57,2.06-2,3.58-3.29,3.46a1,1,0,0,1-.24-.05,2.16,2.16,0,0,1-1.3-1.53,5.89,5.89,0,0,1,0-3.22c.58-2.06,2-3.58,3.3-3.45m.06-.71c-1.6-.15-3.35,1.53-4,4-.74,2.63,0,5.15,1.73,5.62a1.51,1.51,0,0,0,.37.07c1.6.15,3.35-1.53,4-4,.74-2.62,0-5.14-1.73-5.62l-.37-.07Z"
                fill="#fff" />
            <path
                d="M286.26,19.76c1,.81,1,1.85,1.06,3.42a16.94,16.94,0,0,0,.21,2.79c.36,2.07.06,3.72-.81,4.43a1.49,1.49,0,0,1-1.55.22,1.72,1.72,0,0,1-.42-.23,5,5,0,0,1-1.24-1.87A6.55,6.55,0,0,0,281.7,26l-.06,0-.06-.05a6.57,6.57,0,0,0-2.94-1,5,5,0,0,1-2.14-.65,1.62,1.62,0,0,1-.35-.34,1.5,1.5,0,0,1-.23-1.55c.43-1,1.94-1.8,4-2a17.63,17.63,0,0,0,2.74-.59c1.51-.42,2.51-.7,3.58.05m.37-.5c-2-1.39-3.78.08-6.76.43-4.38.5-5.45,3-4.21,4.58a2.21,2.21,0,0,0,.47.45c1.34,1,3.58.54,5.08,1.65l.05.05h0l0,0c1.5,1.12,1.69,3.41,3.05,4.42a2.45,2.45,0,0,0,.55.31c1.9.74,4-1,3.2-5.34-.52-2.95.39-5.1-1.51-6.6Z"
                fill="#fff" />
            <path
                d="M281.17,11.08h0a4.07,4.07,0,0,1,1.24,3.25,4.82,4.82,0,0,1-.72,2.56,1.76,1.76,0,0,1-1.36.91,1.27,1.27,0,0,1-.76-.28,4.06,4.06,0,0,1-1.24-3.24,4.91,4.91,0,0,1,.71-2.57,1.79,1.79,0,0,1,1.37-.91,1.34,1.34,0,0,1,.76.28m.37-.5a2,2,0,0,0-1.12-.4c-1.46,0-2.68,1.81-2.7,4.09A4.67,4.67,0,0,0,279.2,18a2,2,0,0,0,1.12.4c1.46,0,2.68-1.81,2.7-4.09a4.67,4.67,0,0,0-1.48-3.75Z"
                fill="#fff" />
            <path
                d="M296,22.16a1.29,1.29,0,0,1,.48.65c.33,1.06-.92,2.42-2.73,3a4.05,4.05,0,0,1-3.46-.25,1.31,1.31,0,0,1-.49-.65c-.33-1.06.93-2.42,2.74-3a4.06,4.06,0,0,1,3.46.25m.37-.49a4.63,4.63,0,0,0-4-.35c-2.18.67-3.58,2.35-3.15,3.75a1.88,1.88,0,0,0,.71,1,4.66,4.66,0,0,0,4,.36c2.17-.68,3.58-2.36,3.15-3.76a1.88,1.88,0,0,0-.71-1Z"
                fill="#fff" />
            <path
                d="M289.31,9.27h0c.9.67.95,2.51.1,4.19a5,5,0,0,1-1.87,2.13,1.89,1.89,0,0,1-1.75.22.87.87,0,0,1-.18-.11c-.9-.66-.94-2.51-.1-4.19a5.1,5.1,0,0,1,1.88-2.12,1.87,1.87,0,0,1,1.74-.23.78.78,0,0,1,.18.11m.37-.5a1.2,1.2,0,0,0-.27-.16c-1.38-.7-3.37.48-4.45,2.62s-.85,4.13.28,5a2.61,2.61,0,0,0,.28.17c1.38.69,3.37-.48,4.45-2.63,1-2,.85-4.12-.29-5Z"
                fill="#fff" />
            <path
                d="M295.44,13.84a.75.75,0,0,1,.16.15c.81.86.25,2.75-1.22,4.13s-3.15,1.77-4.05,1.11l-.16-.15a1.89,1.89,0,0,1-.28-1.74,5.17,5.17,0,0,1,1.5-2.4c1.37-1.28,3.15-1.77,4.05-1.1m.37-.5c-1.14-.84-3.22-.37-4.84,1.15s-2.31,3.89-1.25,5a1.65,1.65,0,0,0,.24.22c1.14.85,3.22.38,4.84-1.14s2.31-3.89,1.25-5a2.5,2.5,0,0,0-.24-.22Z"
                fill="#fff" />
            <path
                d="M392.2,103c1.24,1.06,1.22,2.37,1.18,4.33a21.58,21.58,0,0,0,.13,3.51c.36,2.61-.09,4.67-1.21,5.53a1.89,1.89,0,0,1-2,.2,2.25,2.25,0,0,1-.51-.31,6.25,6.25,0,0,1-1.47-2.4,8.25,8.25,0,0,0-2.15-3.28l-.08-.06-.08-.06a8.12,8.12,0,0,0-3.63-1.38,6.24,6.24,0,0,1-2.66-.92,1.9,1.9,0,0,1-.41-.44,1.86,1.86,0,0,1-.23-1.95c.59-1.28,2.51-2.17,5.13-2.37a22.28,22.28,0,0,0,3.46-.62c1.91-.46,3.18-.77,4.49.22m.49-.61c-2.42-1.84-4.74-.06-8.5.23-5.51.44-7,3.48-5.47,5.56a2.86,2.86,0,0,0,.56.59c1.64,1.31,4.46.83,6.29,2.29l.07.06h0l0,0,.06,0c1.83,1.47,2,4.36,3.62,5.68a3.07,3.07,0,0,0,.68.41c2.35,1,5-1.07,4.25-6.54-.51-3.73.72-6.38-1.59-8.35Z"
                fill="#fff" />
            <path
                d="M386.21,91.91h0A5.11,5.11,0,0,1,387.62,96a6,6,0,0,1-1,3.18,2.21,2.21,0,0,1-1.76,1.07,1.59,1.59,0,0,1-.93-.37,5.13,5.13,0,0,1-1.41-4.13,6.06,6.06,0,0,1,1-3.19,2.23,2.23,0,0,1,1.76-1.07,1.54,1.54,0,0,1,.93.38m.49-.61a2.44,2.44,0,0,0-1.39-.55c-1.83-.09-3.43,2.15-3.57,5a5.85,5.85,0,0,0,1.69,4.77,2.37,2.37,0,0,0,1.38.55c1.84.09,3.44-2.15,3.58-5a5.85,5.85,0,0,0-1.69-4.77Z"
                fill="#fff" />
            <path
                d="M404.33,106.48a1.71,1.71,0,0,1,.58.83c.36,1.34-1.28,3-3.57,3.62a5.15,5.15,0,0,1-4.33-.48,1.63,1.63,0,0,1-.58-.84c-.36-1.34,1.28-3,3.57-3.61a5.11,5.11,0,0,1,4.33.48m.48-.61a5.85,5.85,0,0,0-5-.62c-2.75.74-4.6,2.79-4.11,4.56a2.33,2.33,0,0,0,.84,1.24,5.82,5.82,0,0,0,5,.62c2.75-.74,4.6-2.78,4.11-4.56a2.33,2.33,0,0,0-.84-1.24Z"
                fill="#fff" />
            <path
                d="M396.5,90h0c1.1.88,1.07,3.19-.06,5.26A6.49,6.49,0,0,1,394,97.85a2.4,2.4,0,0,1-2.2.21l-.23-.15c-1.09-.88-1.06-3.19.07-5.26a6.43,6.43,0,0,1,2.44-2.58,2.4,2.4,0,0,1,2.2-.21l.22.15m.49-.61-.33-.22c-1.71-.93-4.26.45-5.7,3.09-1.34,2.46-1.26,5.13.13,6.24a2.44,2.44,0,0,0,.33.23c1.7.93,4.25-.46,5.7-3.09,1.34-2.46,1.26-5.13-.13-6.25Z"
                fill="#fff" />
            <path
                d="M404,96a1.19,1.19,0,0,1,.2.19c1,1.11.19,3.46-1.72,5.13s-4,2.07-5.12,1.2a1.8,1.8,0,0,1-.2-.19,2.41,2.41,0,0,1-.27-2.2,6.41,6.41,0,0,1,2-2.93c1.78-1.55,4-2.08,5.12-1.2m.49-.61c-1.39-1.11-4-.61-6.12,1.22-2.26,2-3.07,4.77-1.79,6.23a2.54,2.54,0,0,0,.29.28c1.39,1.11,4,.62,6.12-1.22,2.27-2,3.07-4.76,1.8-6.22a4,4,0,0,0-.3-.29Z"
                fill="#fff" />
            <path
                d="M310.34,218.37c2.53.75,3.34,2.68,4.57,5.59A34,34,0,0,0,317.4,229c2.23,3.59,2.92,6.91,1.83,8.89a3,3,0,0,1-2.75,1.58,3.37,3.37,0,0,1-.94-.12,10,10,0,0,1-3.74-2.56,13,13,0,0,0-5.29-3.4l-.15,0-.16,0a13,13,0,0,0-6.24.35,10,10,0,0,1-4.5.39,3.89,3.89,0,0,1-.89-.37A3,3,0,0,1,293,231c0-2.27,2.27-4.82,6-6.84a35,35,0,0,0,4.67-3.17c2.51-1.93,4.17-3.21,6.73-2.61m.32-1.21c-4.74-1.12-7,3-12.32,5.89-7.8,4.25-7.95,9.67-4.4,11.74a4.4,4.4,0,0,0,1.2.49c3.28.86,7.11-1.69,10.75-.74l.13,0h.08l.1,0c3.66,1,5.74,5.1,9,6a4.75,4.75,0,0,0,1.27.16c4.1-.05,6.65-4.84,2-12.38-3.2-5.14-3.12-9.84-7.8-11.21Z"
                fill="#fff" />
            <path
                d="M294.29,206h0c1.87.48,3.74,2.5,4.76,5.14a9.61,9.61,0,0,1,.6,5.33,3.56,3.56,0,0,1-1.87,2.72,2.61,2.61,0,0,1-1.62.06c-1.87-.49-3.74-2.51-4.76-5.14a9.75,9.75,0,0,1-.61-5.34,3.57,3.57,0,0,1,1.88-2.72,2.54,2.54,0,0,1,1.62-.05m.31-1.21a3.79,3.79,0,0,0-2.38.1c-2.76,1.07-3.64,5.4-2,9.67,1.2,3.1,3.42,5.32,5.6,5.89a3.82,3.82,0,0,0,2.39-.09c2.75-1.07,3.64-5.4,2-9.68-1.21-3.1-3.43-5.32-5.61-5.89Z"
                fill="#fff" />
            <path
                d="M330.4,215.52a2.53,2.53,0,0,1,1.4.85c1.41,1.72.09,5.22-2.87,7.63-2.18,1.78-4.8,2.61-6.66,2.12a2.53,2.53,0,0,1-1.4-.85c-1.41-1.72-.09-5.22,2.87-7.63,2.18-1.78,4.8-2.61,6.66-2.12m.32-1.21c-2.18-.57-5.19.27-7.76,2.36-3.56,2.9-4.92,7.1-3.06,9.39a3.88,3.88,0,0,0,2.05,1.27c2.18.57,5.19-.27,7.76-2.36,3.56-2.9,4.93-7.1,3.06-9.39a3.88,3.88,0,0,0-2-1.27Z"
                fill="#fff" />
            <path
                d="M308.16,196.46h0c2.18.57,3.65,4,3.34,7.77a10.29,10.29,0,0,1-1.9,5.37,3.82,3.82,0,0,1-3.09,1.75,2.63,2.63,0,0,1-.42-.07c-2.19-.58-3.66-4-3.35-7.77a10.29,10.29,0,0,1,1.9-5.38,3.84,3.84,0,0,1,3.1-1.74,2,2,0,0,1,.42.07m.31-1.21a3.31,3.31,0,0,0-.63-.1c-3.11-.26-5.95,3.44-6.34,8.26-.37,4.48,1.51,8.35,4.27,9.07a3.47,3.47,0,0,0,.63.11c3.11.26,6-3.44,6.34-8.26.37-4.48-1.5-8.35-4.27-9.08Z"
                fill="#fff" />
            <path
                d="M323.05,200.39a2.86,2.86,0,0,1,.41.15c2.16,1,2.54,5,.83,8.66-1.59,3.43-4.55,5.68-6.73,5.11a3.52,3.52,0,0,1-.42-.15,3.89,3.89,0,0,1-1.83-3,10.33,10.33,0,0,1,1-5.61c1.59-3.43,4.55-5.68,6.73-5.11m.31-1.2c-2.75-.72-6.29,1.71-8.17,5.79-2,4.38-1.4,9,1.43,10.31a3.52,3.52,0,0,0,.62.22c2.76.72,6.29-1.71,8.18-5.78,2-4.39,1.39-9-1.43-10.32a3.62,3.62,0,0,0-.63-.22Z"
                fill="#fff" />
            <path
                d="M147.69,248.65c1.71,1.76,1.5,3.7,1.17,6.64a32.7,32.7,0,0,0-.27,5.26c.19,3.94-.77,7-2.56,8.08a2.82,2.82,0,0,1-2.95,0,3.37,3.37,0,0,1-.71-.53,9.24,9.24,0,0,1-1.89-3.79,12.14,12.14,0,0,0-2.76-5.17l-.11-.11-.11-.1a12.12,12.12,0,0,0-5.25-2.55,9.48,9.48,0,0,1-3.84-1.74,3.45,3.45,0,0,1-.56-.7,2.83,2.83,0,0,1-.07-2.95c1.06-1.83,4-2.9,8-2.85a33.41,33.41,0,0,0,5.25-.46c2.91-.43,4.85-.72,6.67.93m.81-.84c-3.36-3.07-7.07-.73-12.72-.8-8.29-.09-10.88,4.26-8.93,7.56a4.23,4.23,0,0,0,.76,1c2.27,2.19,6.56,1.86,9.09,4.29l.09.09,0,0,0,0,.07.06c2.55,2.45,2.36,6.78,4.65,9a4.59,4.59,0,0,0,1,.71c3.37,1.83,7.62-.92,7.23-9.2-.26-5.64,1.94-9.43-1.25-12.68Z"
                fill="#fff" />
            <path
                d="M140.24,231.25h0c1.3,1.25,1.91,3.74,1.54,6.36a9,9,0,0,1-1.93,4.62,3.32,3.32,0,0,1-2.77,1.36,2.38,2.38,0,0,1-1.34-.69c-1.3-1.25-1.91-3.74-1.54-6.35a9.07,9.07,0,0,1,1.93-4.63,3.35,3.35,0,0,1,2.77-1.36,2.45,2.45,0,0,1,1.34.69m.81-.84a3.58,3.58,0,0,0-2-1c-2.73-.38-5.42,2.74-6,7-.43,3.08.37,5.89,1.88,7.35a3.62,3.62,0,0,0,2,1c2.73.38,5.42-2.75,6-7,.42-3.08-.37-5.9-1.89-7.36Z"
                fill="#fff" />
            <path
                d="M165.33,255.45a2.45,2.45,0,0,1,.76,1.33c.36,2.05-2.31,4.3-5.82,4.92-2.59.45-5.1-.06-6.39-1.3a2.45,2.45,0,0,1-.76-1.33c-.36-2.05,2.31-4.3,5.82-4.92,2.59-.45,5.09.06,6.39,1.3m.81-.84c-1.52-1.45-4.35-2.14-7.4-1.6-4.21.74-7.24,3.54-6.76,6.26a3.57,3.57,0,0,0,1.09,2c1.52,1.45,4.35,2.14,7.4,1.6,4.21-.74,7.24-3.54,6.76-6.26a3.63,3.63,0,0,0-1.09-2Z"
                fill="#fff" />
            <path
                d="M155.87,229.81h0c1.52,1.46,1.17,4.9-.81,7.85a9.57,9.57,0,0,1-4,3.51,3.58,3.58,0,0,1-3.32,0l-.31-.25c-1.52-1.46-1.16-4.91.81-7.85a9.62,9.62,0,0,1,4-3.52,3.56,3.56,0,0,1,3.31,0,1.48,1.48,0,0,1,.31.25m.81-.84a3.4,3.4,0,0,0-.47-.38c-2.41-1.62-6.41.1-8.92,3.85-2.34,3.48-2.58,7.49-.65,9.34a3.49,3.49,0,0,0,.47.37c2.41,1.62,6.41-.1,8.92-3.84,2.34-3.49,2.57-7.5.65-9.34Z"
                fill="#fff" />
            <path
                d="M166.22,239.79a1.93,1.93,0,0,1,.27.3c1.3,1.8-.19,5.21-3.27,7.44-2.86,2.07-6.29,2.55-7.8,1.09a1.93,1.93,0,0,1-.27-.3A3.59,3.59,0,0,1,155,245a9.58,9.58,0,0,1,3.37-4.12c2.86-2.07,6.29-2.55,7.81-1.09m.8-.84c-1.92-1.85-5.9-1.47-9.29,1-3.66,2.65-5.23,6.7-3.53,9.06a3.63,3.63,0,0,0,.41.46c1.92,1.85,5.91,1.47,9.3-1,3.65-2.65,5.23-6.7,3.52-9.06A3,3,0,0,0,167,239Z"
                fill="#fff" />
            <path
                d="M369.4,200c2.47.26,3.55,1.91,5.19,4.4a33.27,33.27,0,0,0,3.18,4.27c2.69,2.94,3.89,5.91,3.22,7.94a2.87,2.87,0,0,1-2.27,1.93,3.8,3.8,0,0,1-.89.05,9.41,9.41,0,0,1-3.91-1.73,12.29,12.29,0,0,0-5.49-2.25h-.3a12.26,12.26,0,0,0-5.73,1.4,9.49,9.49,0,0,1-4.11,1.13,3.81,3.81,0,0,1-.89-.19,2.86,2.86,0,0,1-2-2.25c-.35-2.1,1.28-4.86,4.38-7.37a32.06,32.06,0,0,0,3.79-3.74c2-2.21,3.31-3.68,5.79-3.57m.09-1.18c-4.6-.22-6,4-10.41,7.58-6.51,5.27-5.72,10.32-2.07,11.63a4.31,4.31,0,0,0,1.2.26c3.18.23,6.3-2.79,9.83-2.53h.3c3.56.26,6.2,3.75,9.4,4a4.45,4.45,0,0,0,1.2-.07c3.8-.75,5.34-5.63-.3-11.81-3.84-4.22-4.58-8.59-9.15-9.06Z"
                fill="#fff" />
            <path
                d="M352.39,191.23h0c1.81.13,3.89,1.68,5.29,4a9.16,9.16,0,0,1,1.48,4.84,3.39,3.39,0,0,1-1.27,2.85,2.44,2.44,0,0,1-1.49.33c-1.82-.13-3.9-1.68-5.3-3.95a9.25,9.25,0,0,1-1.48-4.84,3.38,3.38,0,0,1,1.28-2.85,2.43,2.43,0,0,1,1.49-.33m.08-1.17a3.6,3.6,0,0,0-2.19.5c-2.37,1.46-2.45,5.63-.18,9.31,1.65,2.67,4.09,4.35,6.21,4.5a3.61,3.61,0,0,0,2.2-.5c2.37-1.46,2.44-5.63.17-9.31-1.65-2.67-4.09-4.35-6.21-4.5Z"
                fill="#fff" />
            <path
                d="M387.51,193.88a2.44,2.44,0,0,1,1.44.55c1.6,1.36,1,4.82-1.35,7.57-1.72,2-4,3.24-5.81,3.11a2.4,2.4,0,0,1-1.45-.55c-1.6-1.35-1-4.82,1.36-7.57,1.72-2,4-3.24,5.81-3.11m.08-1.17c-2.11-.15-4.76,1.14-6.79,3.52-2.8,3.3-3.34,7.43-1.22,9.23a3.62,3.62,0,0,0,2.12.83c2.11.15,4.77-1.14,6.79-3.53,2.8-3.29,3.35-7.42,1.22-9.23a3.65,3.65,0,0,0-2.12-.82Z"
                fill="#fff" />
            <path
                d="M363.61,180h0c2.13.16,4.08,3.07,4.44,6.63a9.71,9.71,0,0,1-.84,5.31,3.64,3.64,0,0,1-2.57,2.15h-.41c-2.12-.15-4.07-3.06-4.43-6.63a9.72,9.72,0,0,1,.84-5.31,3.61,3.61,0,0,1,2.57-2.14,1.79,1.79,0,0,1,.4,0m.09-1.17a3.12,3.12,0,0,0-.61,0c-2.92.29-4.92,4.21-4.46,8.74.43,4.22,2.83,7.49,5.52,7.68a3.11,3.11,0,0,0,.61,0c2.92-.3,4.92-4.22,4.46-8.75-.43-4.22-2.83-7.49-5.52-7.68Z"
                fill="#fff" />
            <path
                d="M378.1,181.12a2.79,2.79,0,0,1,.4.07c2.18.56,3.21,4.17,2.26,7.88-.89,3.46-3.25,6.05-5.37,5.89a2.9,2.9,0,0,1-.41-.06,3.66,3.66,0,0,1-2.22-2.51,9.79,9.79,0,0,1,0-5.38c.89-3.45,3.24-6,5.37-5.89m.08-1.17c-2.68-.19-5.54,2.67-6.59,6.77-1.13,4.41.25,8.58,3.1,9.32a4.22,4.22,0,0,0,.62.1c2.68.19,5.53-2.67,6.59-6.77,1.13-4.42-.26-8.59-3.1-9.32a4.44,4.44,0,0,0-.62-.1Z"
                fill="#fff" />
            <path
                d="M178.34,302.66c1.07.82,1.11,1.88,1.16,3.49a17.33,17.33,0,0,0,.27,2.87c.41,2.12.13,3.83-.75,4.57a1.53,1.53,0,0,1-1.6.25,1.68,1.68,0,0,1-.42-.22,5.13,5.13,0,0,1-1.32-1.9,6.67,6.67,0,0,0-1.9-2.59l-.06,0-.07,0a6.7,6.7,0,0,0-3-1,5.19,5.19,0,0,1-2.21-.63,1.67,1.67,0,0,1-.36-.34,1.54,1.54,0,0,1-.27-1.59c.42-1.07,1.95-1.88,4.09-2.17a17.54,17.54,0,0,0,2.8-.66c1.55-.46,2.57-.77,3.68,0m.38-.52c-2.06-1.4-3.89.16-6.94.57-4.49.6-5.55,3.15-4.24,4.79a2.3,2.3,0,0,0,.49.45c1.4,1,3.69.49,5.25,1.6,0,0,0,0,.05.05h0l0,0c1.57,1.12,1.81,3.48,3.22,4.48a2.24,2.24,0,0,0,.57.31c2,.72,4.05-1.1,3.19-5.54-.59-3,.31-5.25-1.67-6.76Z"
                fill="#fff" />
            <path
                d="M173,293.83h0a4.2,4.2,0,0,1,1.33,3.32,4.86,4.86,0,0,1-.68,2.65,1.84,1.84,0,0,1-1.39,1,1.34,1.34,0,0,1-.78-.27,4.19,4.19,0,0,1-1.33-3.32,4.86,4.86,0,0,1,.68-2.65,1.87,1.87,0,0,1,1.39-1,1.32,1.32,0,0,1,.78.27m.37-.51a2,2,0,0,0-1.15-.39c-1.51,0-2.72,1.91-2.71,4.25a4.79,4.79,0,0,0,1.6,3.83,1.9,1.9,0,0,0,1.16.38c1.5,0,2.71-1.91,2.7-4.24a4.75,4.75,0,0,0-1.6-3.83Z"
                fill="#fff" />
            <path
                d="M188.42,305a1.25,1.25,0,0,1,.51.66c.36,1.08-.91,2.5-2.76,3.11a4.19,4.19,0,0,1-3.56-.2,1.35,1.35,0,0,1-.51-.66c-.35-1.07.91-2.5,2.76-3.11a4.19,4.19,0,0,1,3.56.2m.37-.52a4.81,4.81,0,0,0-4.13-.28c-2.22.73-3.63,2.48-3.16,3.91a1.94,1.94,0,0,0,.74,1,4.78,4.78,0,0,0,4.13.29c2.22-.74,3.64-2.49,3.17-3.92a2,2,0,0,0-.75-1Z"
                fill="#fff" />
            <path
                d="M181.29,291.82h0c.94.67,1,2.57.18,4.31a5.21,5.21,0,0,1-1.88,2.22,2,2,0,0,1-1.8.27l-.18-.11c-.94-.67-1-2.57-.18-4.31a5.21,5.21,0,0,1,1.88-2.22,2,2,0,0,1,1.79-.27,1.18,1.18,0,0,1,.19.11m.37-.51a1.61,1.61,0,0,0-.28-.17c-1.44-.69-3.46.56-4.53,2.78-1,2.07-.8,4.26.39,5.1a1.61,1.61,0,0,0,.28.17c1.43.69,3.46-.56,4.52-2.78s.8-4.26-.38-5.1Z"
                fill="#fff" />
            <path
                d="M187.67,296.41l.17.14c.84.87.3,2.83-1.18,4.28s-3.2,1.88-4.14,1.21l-.17-.15a2,2,0,0,1-.32-1.78,5.21,5.21,0,0,1,1.5-2.49c1.39-1.35,3.2-1.88,4.14-1.21m.37-.52c-1.19-.84-3.31-.33-4.95,1.27s-2.3,4-1.2,5.17a1.32,1.32,0,0,0,.26.22c1.18.85,3.31.33,4.95-1.27s2.3-4,1.19-5.17l-.25-.22Z"
                fill="#fff" />
            <path
                d="M240.9,30.45c2.56-.73,4.31.47,6.95,2.29a34.42,34.42,0,0,0,4.89,3c3.86,1.84,6.26,4.31,6.41,6.6a3.07,3.07,0,0,1-1.48,2.84,3.46,3.46,0,0,1-.87.41,10.16,10.16,0,0,1-4.59-.14,13.19,13.19,0,0,0-6.37,0l-.15.05-.16,0a13.18,13.18,0,0,0-5.14,3.71A10.3,10.3,0,0,1,236.76,52a3.52,3.52,0,0,1-1,.17,3.07,3.07,0,0,1-2.87-1.45c-1.2-2-.68-5.35,1.39-9.1a35.26,35.26,0,0,0,2.25-5.26c1.09-3,1.81-5,4.33-5.9m-.39-1.2c-4.66,1.63-4.34,6.38-7.3,11.75-4.35,7.88-1.52,12.59,2.64,12.42a4.6,4.6,0,0,0,1.3-.23c3.26-1,5.14-5.32,8.77-6.49l.13,0h0l0,0,.1,0c3.64-1.18,7.68,1.23,11,.17a5.22,5.22,0,0,0,1.17-.56c3.48-2.28,3-7.76-5.07-11.64-5.54-2.65-8-6.7-12.78-5.32Z"
                fill="#fff" />
            <path
                d="M220.43,28.63h0c1.86-.6,4.56.1,6.87,1.79a9.93,9.93,0,0,1,3.43,4.23,3.63,3.63,0,0,1-.12,3.35,2.66,2.66,0,0,1-1.35.92c-1.87.61-4.56-.1-6.87-1.79A9.77,9.77,0,0,1,219,32.91a3.63,3.63,0,0,1,.12-3.35,2.58,2.58,0,0,1,1.35-.93m-.39-1.2a3.81,3.81,0,0,0-2,1.38c-1.77,2.42-.17,6.6,3.58,9.34,2.73,2,5.83,2.68,8,2a3.91,3.91,0,0,0,2-1.39c1.77-2.41.16-6.6-3.59-9.34-2.72-2-5.83-2.68-8-2Z"
                fill="#fff" />
            <path
                d="M256.47,17.08a2.56,2.56,0,0,1,1.66,0c2.14.7,2.93,4.41,1.71,8.09-.89,2.7-2.67,4.84-4.53,5.44a2.6,2.6,0,0,1-1.65,0c-2.15-.71-2.93-4.41-1.71-8.09.89-2.71,2.67-4.84,4.52-5.44m-.38-1.21c-2.17.7-4.29,3.06-5.34,6.26-1.46,4.41-.33,8.74,2.51,9.68a3.85,3.85,0,0,0,2.44,0c2.17-.7,4.29-3.05,5.34-6.25,1.46-4.41.33-8.74-2.51-9.68a3.92,3.92,0,0,0-2.44,0Z"
                fill="#fff" />
            <path
                d="M227.08,12.94h0c2.18-.71,5.3,1.41,7.1,4.81a10.36,10.36,0,0,1,1.3,5.62,3.84,3.84,0,0,1-1.69,3.18,1.78,1.78,0,0,1-.4.17c-2.17.7-5.29-1.41-7.09-4.81A10.48,10.48,0,0,1,225,16.28a3.89,3.89,0,0,1,1.69-3.17,2.28,2.28,0,0,1,.4-.17m-.39-1.2a3.82,3.82,0,0,0-.6.25c-2.79,1.47-3.19,6.18-.91,10.51,2.13,4,5.85,6.31,8.6,5.42a3.16,3.16,0,0,0,.6-.25c2.8-1.48,3.2-6.18.91-10.51-2.13-4-5.84-6.32-8.6-5.42Z"
                fill="#fff" />
            <path
                d="M241.94,8.17a3.43,3.43,0,0,1,.44-.09c2.39-.33,4.88,2.85,5.43,6.94.51,3.8-.79,7.33-3,8a2.33,2.33,0,0,1-.44.1,3.89,3.89,0,0,1-3.22-1.6A10.49,10.49,0,0,1,239,16.21c-.51-3.8.79-7.33,3-8M241.56,7c-2.75.89-4.44,4.9-3.83,9.41.65,4.85,3.72,8.44,6.85,8a3.61,3.61,0,0,0,.65-.15c2.75-.89,4.44-4.9,3.83-9.4-.65-4.86-3.72-8.45-6.85-8a3.61,3.61,0,0,0-.65.15Z"
                fill="#fff" />
            <path
                d="M251,243.3c2.26.32,3.2,1.86,4.63,4.18a29.38,29.38,0,0,0,2.79,4c2.37,2.78,3.39,5.53,2.72,7.36a2.62,2.62,0,0,1-2.14,1.71,3.22,3.22,0,0,1-.82,0,8.66,8.66,0,0,1-3.53-1.7,11.3,11.3,0,0,0-5-2.22h-.13l-.14,0a11.33,11.33,0,0,0-5.29,1.12,8.76,8.76,0,0,1-3.79.91,2.83,2.83,0,0,1-.81-.2,2.6,2.6,0,0,1-1.73-2.11c-.27-1.94,1.31-4.41,4.22-6.62a30.32,30.32,0,0,0,3.58-3.31c1.88-2,3.14-3.28,5.4-3.11m.12-1.07c-4.2-.34-5.59,3.47-9.75,6.63-6.11,4.64-5.54,9.29-2.24,10.6a4,4,0,0,0,1.1.26c2.9.31,5.84-2.36,9.07-2l.12,0h.16c3.25.34,5.56,3.61,8.49,3.92a4.09,4.09,0,0,0,1.1,0c3.5-.58,5.05-5,.07-10.83-3.4-4-3.95-8-8.12-8.55Z"
                fill="#fff" />
            <path
                d="M235.69,234.81h0c1.66.17,3.52,1.65,4.74,3.77a8.4,8.4,0,0,1,1.21,4.48,3.11,3.11,0,0,1-1.25,2.57,2.22,2.22,0,0,1-1.37.25c-1.66-.17-3.52-1.65-4.74-3.77a8.4,8.4,0,0,1-1.21-4.48,3.11,3.11,0,0,1,1.25-2.57,2.22,2.22,0,0,1,1.37-.25m.12-1.07a3.28,3.28,0,0,0-2,.39c-2.21,1.27-2.4,5.09-.43,8.52,1.43,2.49,3.62,4.1,5.55,4.3a3.28,3.28,0,0,0,2-.39c2.21-1.27,2.4-5.09.43-8.52-1.43-2.49-3.62-4.1-5.55-4.3Z"
                fill="#fff" />
            <path
                d="M267.77,238.26a2.19,2.19,0,0,1,1.31.54c1.42,1.29.75,4.45-1.46,6.89-1.64,1.8-3.76,2.86-5.41,2.68a2.26,2.26,0,0,1-1.31-.54c-1.42-1.29-.75-4.45,1.46-6.89,1.63-1.81,3.76-2.86,5.41-2.68m.11-1.07c-1.93-.21-4.39.9-6.32,3-2.65,2.94-3.27,6.7-1.38,8.42a3.27,3.27,0,0,0,1.91.81c1.94.21,4.4-.9,6.32-3,2.66-2.94,3.28-6.71,1.39-8.42a3.27,3.27,0,0,0-1.92-.81Z"
                fill="#fff" />
            <path
                d="M246.3,224.88h0c1.94.2,3.64,2.93,3.86,6.2a8.81,8.81,0,0,1-.92,4.83,3.33,3.33,0,0,1-2.42,1.9h-.36c-2-.2-3.64-2.93-3.87-6.2a8.87,8.87,0,0,1,.92-4.84,3.36,3.36,0,0,1,2.42-1.89,2.29,2.29,0,0,1,.37,0m.11-1.07a3.47,3.47,0,0,0-.56,0c-2.68.18-4.62,3.71-4.33,7.88.26,3.87,2.37,6.93,4.82,7.19a3.49,3.49,0,0,0,.56,0c2.68-.19,4.63-3.71,4.34-7.88-.27-3.87-2.38-6.93-4.83-7.19Z"
                fill="#fff" />
            <path
                d="M259.52,226.3a2.32,2.32,0,0,1,.38.07c2,.58,2.81,3.92,1.83,7.29-.91,3.14-3.15,5.44-5.08,5.23a1.69,1.69,0,0,1-.38-.07,3.3,3.3,0,0,1-1.95-2.36,8.81,8.81,0,0,1,.12-4.92c.91-3.14,3.15-5.44,5.08-5.24m.12-1.07c-2.45-.26-5.15,2.28-6.23,6-1.17,4,0,7.86,2.56,8.62a4,4,0,0,0,.56.11c2.45.25,5.15-2.29,6.23-6,1.17-4,0-7.87-2.56-8.62a3.69,3.69,0,0,0-.56-.11Z"
                fill="#fff" />
            <path
                d="M404.85,292.44c2.33,1.12,2.82,3.12,3.56,6.14A33.06,33.06,0,0,0,410,303.9c1.6,3.83,1.74,7.17.38,8.93a3,3,0,0,1-2.92,1.1,3.49,3.49,0,0,1-.89-.26,10,10,0,0,1-3.24-3.08,12.72,12.72,0,0,0-4.6-4.13l-.14-.06-.15-.07a12.84,12.84,0,0,0-6.12-.63,10,10,0,0,1-4.43-.33,3.22,3.22,0,0,1-.81-.5A3,3,0,0,1,386,302c.39-2.19,3-4.32,6.88-5.7a34.7,34.7,0,0,0,5-2.35c2.73-1.48,4.55-2.46,7-1.48m.5-1.13c-4.44-1.83-7.28,1.82-12.89,3.8-8.24,2.9-9.24,8.14-6.12,10.71a4.78,4.78,0,0,0,1.09.67c3.05,1.34,7.17-.53,10.56,1l.12.06,0,0h0l.09,0c3.41,1.5,4.78,5.86,7.84,7.21a4.45,4.45,0,0,0,1.21.35c4,.6,7.22-3.66,3.85-11.72-2.3-5.49-1.49-10-5.82-12.11Z"
                fill="#fff" />
            <path
                d="M391.19,277.88h0c1.74.77,3.24,3,3.82,5.74a9.49,9.49,0,0,1-.25,5.28,3.48,3.48,0,0,1-2.25,2.35,2.54,2.54,0,0,1-1.58-.2c-1.74-.77-3.23-3-3.82-5.74a9.59,9.59,0,0,1,.25-5.28,3.53,3.53,0,0,1,2.25-2.35,2.54,2.54,0,0,1,1.58.2m.5-1.12a3.81,3.81,0,0,0-2.34-.28c-2.84.61-4.38,4.68-3.44,9.09.69,3.2,2.5,5.71,4.53,6.6a3.7,3.7,0,0,0,2.33.28c2.84-.61,4.38-4.67,3.44-9.08-.69-3.21-2.5-5.71-4.52-6.61Z"
                fill="#fff" />
            <path
                d="M424.78,292.81a2.5,2.5,0,0,1,1.23,1c1.09,1.89-.73,5.09-4,7-2.4,1.38-5.07,1.78-6.8,1a2.57,2.57,0,0,1-1.23-1c-1.09-1.89.73-5.08,4-7,2.4-1.39,5.07-1.79,6.8-1m.5-1.13c-2-.89-5.09-.55-7.91,1.08-3.91,2.26-5.89,6.13-4.44,8.65a3.78,3.78,0,0,0,1.79,1.55c2,.89,5.09.55,7.91-1.08,3.91-2.26,5.9-6.13,4.44-8.64a3.75,3.75,0,0,0-1.79-1.56Z"
                fill="#fff" />
            <path
                d="M406.15,270.81h0c2,.9,2.93,4.44,2,8.07a10.09,10.09,0,0,1-2.69,4.92,3.76,3.76,0,0,1-3.28,1.21,1.87,1.87,0,0,1-.4-.13c-2-.9-2.93-4.44-2-8.07a10.09,10.09,0,0,1,2.69-4.93,3.79,3.79,0,0,1,3.28-1.21,2.58,2.58,0,0,1,.39.14m.5-1.12a3,3,0,0,0-.6-.21c-3-.73-6.31,2.42-7.45,7-1.06,4.29.15,8.35,2.73,9.48a3.86,3.86,0,0,0,.6.21c3,.73,6.31-2.42,7.45-7,1.06-4.29-.16-8.35-2.73-9.48Z"
                fill="#fff" />
            <path
                d="M420,277a2.32,2.32,0,0,1,.38.21c1.95,1.31,1.69,5.23-.55,8.54-2.08,3.09-5.31,4.8-7.34,3.91a2.82,2.82,0,0,1-.38-.21,3.77,3.77,0,0,1-1.3-3.24,10.13,10.13,0,0,1,1.86-5.3c2.08-3.09,5.3-4.8,7.33-3.91m.5-1.12c-2.57-1.13-6.38.68-8.85,4.34-2.66,3.94-2.76,8.53-.22,10.25a3.91,3.91,0,0,0,.57.31c2.56,1.13,6.38-.68,8.85-4.34,2.66-3.94,2.76-8.53.22-10.24a3.2,3.2,0,0,0-.57-.32Z"
                fill="#fff" />
            <path
                d="M17.35,294.13c1.35-.67,2.44-.18,4.09.56a20.33,20.33,0,0,0,3,1.15c2.33.63,3.92,1.76,4.23,3a1.7,1.7,0,0,1-.53,1.73,2,2,0,0,1-.44.32,5.69,5.69,0,0,1-2.57.39,7.41,7.41,0,0,0-3.54.64l-.08,0-.08,0A7.56,7.56,0,0,0,19,304.6a5.84,5.84,0,0,1-1.73,1.92,2,2,0,0,1-.52.19A1.73,1.73,0,0,1,15,306.2c-.87-1-.93-2.9-.16-5.2a19.58,19.58,0,0,0,.72-3.15c.3-1.79.49-3,1.8-3.72M17,293.5c-2.42,1.38-1.76,4-2.86,7.27-1.61,4.82.44,7.16,2.74,6.64a3.25,3.25,0,0,0,.7-.26c1.7-.92,2.31-3.49,4.21-4.51l.07,0h0l.05,0c1.91-1,4.4-.11,6.11-1a2.41,2.41,0,0,0,.59-.43c1.7-1.62.9-4.62-4-6-3.34-.91-5.14-2.9-7.64-1.65Z"
                fill="#fff" />
            <path
                d="M5.79,295.2h0a4.68,4.68,0,0,1,4,.3,5.45,5.45,0,0,1,2.33,2,2,2,0,0,1,.28,1.87,1.43,1.43,0,0,1-.66.65,4.68,4.68,0,0,1-4-.29,5.45,5.45,0,0,1-2.33-2,2,2,0,0,1-.28-1.87,1.5,1.5,0,0,1,.66-.66m-.34-.62a2.14,2.14,0,0,0-1,1c-.74,1.52.58,3.68,2.94,4.82a5.37,5.37,0,0,0,4.65.28,2.14,2.14,0,0,0,1-1c.74-1.52-.58-3.68-2.94-4.82a5.33,5.33,0,0,0-4.65-.28Z"
                fill="#fff" />
            <path
                d="M24.64,285.1a1.55,1.55,0,0,1,.92-.19c1.26.18,2.07,2.16,1.77,4.32a4.69,4.69,0,0,1-2,3.49,1.48,1.48,0,0,1-.92.19c-1.26-.17-2.07-2.15-1.77-4.32a4.73,4.73,0,0,1,2-3.49m-.34-.62a5.37,5.37,0,0,0-2.33,4c-.36,2.59.71,4.89,2.39,5.12a2.23,2.23,0,0,0,1.35-.27,5.39,5.39,0,0,0,2.33-4c.36-2.6-.71-4.89-2.39-5.12a2.1,2.1,0,0,0-1.35.27Z"
                fill="#fff" />
            <path
                d="M7.88,285.81h0c1.14-.62,3.09.24,4.44,1.94a6,6,0,0,1,1.3,3,2.2,2.2,0,0,1-.62,1.94,1.37,1.37,0,0,1-.2.13c-1.14.61-3.09-.24-4.43-1.95a5.91,5.91,0,0,1-1.31-3,2.22,2.22,0,0,1,.62-1.94.86.86,0,0,1,.2-.13m-.33-.63a1.65,1.65,0,0,0-.31.2c-1.4,1.1-1.15,3.76.57,5.93,1.59,2,3.89,2.91,5.33,2.14a3.28,3.28,0,0,0,.31-.2c1.4-1.11,1.14-3.77-.57-5.94-1.6-2-3.89-2.91-5.33-2.13Z"
                fill="#fff" />
            <path
                d="M15.66,281.64l.23-.1c1.29-.42,3,1.09,3.72,3.3s.31,4.16-.82,4.77l-.23.1a2.19,2.19,0,0,1-2-.56,5.89,5.89,0,0,1-1.77-2.74c-.67-2.06-.31-4.16.83-4.77m-.34-.63c-1.44.78-2,3.18-1.17,5.62.86,2.63,2.93,4.31,4.63,3.76a2.17,2.17,0,0,0,.35-.15c1.43-.78,2-3.17,1.16-5.62-.86-2.63-2.93-4.31-4.62-3.76a2.17,2.17,0,0,0-.35.15Z"
                fill="#fff" />
            <path
                d="M49.83,214c1.58,0,2.37,1,3.55,2.49A21.65,21.65,0,0,0,55.65,219c1.88,1.71,2.82,3.52,2.52,4.85a1.85,1.85,0,0,1-1.33,1.36,2.18,2.18,0,0,1-.57.08,5.9,5.9,0,0,1-2.58-.87,7.77,7.77,0,0,0-3.61-1.1h-.2a8,8,0,0,0-3.55,1.23,6,6,0,0,1-2.54,1,2.22,2.22,0,0,1-.57-.07,1.83,1.83,0,0,1-1.38-1.31c-.35-1.31.53-3.16,2.34-4.93a20.44,20.44,0,0,0,2.18-2.6c1.14-1.52,1.89-2.53,3.47-2.61m0-.75c-2.93.13-3.56,2.88-6.16,5.42-3.82,3.73-3,6.89-.63,7.51a3,3,0,0,0,.78.09c2,0,3.83-2.14,6.09-2.19h.19c2.28-.05,4.16,2,6.2,2a2.56,2.56,0,0,0,.76-.12c2.37-.7,3.05-3.88-.89-7.47-2.69-2.45-3.41-5.18-6.34-5.21Z"
                fill="#fff" />
            <path
                d="M38.52,209.49h0a4.93,4.93,0,0,1,3.59,2.19,5.91,5.91,0,0,1,1.23,3,2.16,2.16,0,0,1-.64,1.88,1.57,1.57,0,0,1-.93.3,4.91,4.91,0,0,1-3.59-2.2,5.88,5.88,0,0,1-1.23-3,2.16,2.16,0,0,1,.64-1.88,1.59,1.59,0,0,1,.93-.3m0-.75a2.34,2.34,0,0,0-1.37.45c-1.41,1.07-1.22,3.72.44,5.92a5.66,5.66,0,0,0,4.2,2.49,2.34,2.34,0,0,0,1.37-.45c1.42-1.07,1.22-3.72-.44-5.92a5.63,5.63,0,0,0-4.2-2.49Z"
                fill="#fff" />
            <path
                d="M61,209.1a1.56,1.56,0,0,1,.95.26c1.1.77.91,3-.41,4.89A5,5,0,0,1,58,216.57a1.6,1.6,0,0,1-.94-.27c-1.1-.76-.91-3,.41-4.88A4.92,4.92,0,0,1,61,209.1m0-.75a5.62,5.62,0,0,0-4.1,2.64c-1.58,2.25-1.69,4.91-.23,5.93a2.29,2.29,0,0,0,1.39.39,5.61,5.61,0,0,0,4.1-2.63c1.58-2.26,1.69-4.91.23-5.93a2.31,2.31,0,0,0-1.39-.4Z"
                fill="#fff" />
            <path
                d="M45,201.72h0c1.36,0,2.77,1.71,3.21,3.95a6.22,6.22,0,0,1-.22,3.41,2.32,2.32,0,0,1-1.51,1.52,2.13,2.13,0,0,1-.25,0c-1.36,0-2.77-1.71-3.21-3.95a6.26,6.26,0,0,1,.22-3.42,2.33,2.33,0,0,1,1.51-1.51,1.07,1.07,0,0,1,.25,0m0-.75a2.58,2.58,0,0,0-.39,0c-1.83.36-2.87,3-2.31,5.82.52,2.65,2.24,4.58,3.95,4.55a2.6,2.6,0,0,0,.39,0c1.84-.36,2.87-3,2.31-5.81-.52-2.65-2.23-4.58-4-4.55Z"
                fill="#fff" />
            <path
                d="M54.24,201.56a1.14,1.14,0,0,1,.26,0c1.41.22,2.28,2.46,1.9,4.87-.36,2.24-1.71,4-3.06,4.05a1.23,1.23,0,0,1-.27,0A2.28,2.28,0,0,1,51.52,209a6.16,6.16,0,0,1-.34-3.41c.36-2.24,1.7-4,3.06-4.05m0-.75c-1.71,0-3.35,2-3.78,4.69-.46,2.86.67,5.43,2.52,5.72a1.71,1.71,0,0,0,.39,0c1.72,0,3.36-2,3.79-4.68.45-2.87-.67-5.44-2.52-5.73a2.69,2.69,0,0,0-.4,0Z"
                fill="#fff" />
            <path
                d="M422.08,13.82c1.44.6,1.8,1.78,2.34,3.56a20.72,20.72,0,0,0,1.15,3.13c1.09,2.24,1.29,4.23.53,5.33a1.79,1.79,0,0,1-1.71.76,2.12,2.12,0,0,1-.54-.13,6,6,0,0,1-2-1.73,7.7,7.7,0,0,0-2.9-2.32l-.08,0-.09,0a7.88,7.88,0,0,0-3.69-.17,5.88,5.88,0,0,1-2.66-.05,1.92,1.92,0,0,1-.51-.27,1.78,1.78,0,0,1-.77-1.7c.15-1.32,1.62-2.68,3.93-3.64A20.68,20.68,0,0,0,418,14.94c1.59-1,2.64-1.62,4.11-1.12m.26-.69c-2.71-1-4.29,1.34-7.59,2.71-4.83,2-5.26,5.18-3.3,6.62a3.17,3.17,0,0,0,.68.36c1.87.7,4.27-.56,6.35.22l.07,0h.05l0,0c2.1.78,3.06,3.35,4.94,4.05a2.58,2.58,0,0,0,.74.17c2.41.22,4.2-2.43,1.9-7.14-1.56-3.22-1.23-6-3.89-7.06Z"
                fill="#fff" />
            <path
                d="M413.42,5.57h0a4.85,4.85,0,0,1,2.48,3.3,5.89,5.89,0,0,1,0,3.17,2.13,2.13,0,0,1-1.27,1.49,1.61,1.61,0,0,1-1-.07,4.85,4.85,0,0,1-2.48-3.31,5.79,5.79,0,0,1,0-3.17,2.09,2.09,0,0,1,1.26-1.48,1.53,1.53,0,0,1,1,.07m.25-.69a2.18,2.18,0,0,0-1.4-.09c-1.68.46-2.47,3-1.75,5.55a5.5,5.5,0,0,0,2.93,3.81,2.32,2.32,0,0,0,1.4.09c1.68-.46,2.47-3,1.76-5.56a5.49,5.49,0,0,0-2.94-3.8Z"
                fill="#fff" />
            <path
                d="M434,13.37a1.55,1.55,0,0,1,.77.59c.72,1.09-.27,3.07-2.15,4.3a4.85,4.85,0,0,1-4,.84,1.54,1.54,0,0,1-.77-.58c-.72-1.1.26-3.07,2.15-4.31a4.85,4.85,0,0,1,4-.84m.26-.69a5.54,5.54,0,0,0-4.7.92c-2.26,1.48-3.32,3.86-2.37,5.32a2.34,2.34,0,0,0,1.13.87,5.53,5.53,0,0,0,4.7-.91c2.26-1.48,3.32-3.87,2.36-5.33a2.27,2.27,0,0,0-1.12-.87Z"
                fill="#fff" />
            <path
                d="M422.14.83h0c1.25.47,1.9,2.56,1.49,4.76a6.1,6.1,0,0,1-1.45,3,2.27,2.27,0,0,1-1.92.84L420,9.4c-1.25-.47-1.91-2.56-1.49-4.77a6.09,6.09,0,0,1,1.44-3,2.26,2.26,0,0,1,1.92-.84l.25.07m.26-.69A2.24,2.24,0,0,0,422,0c-1.81-.34-3.7,1.66-4.23,4.46-.49,2.61.38,5,2,5.59l.36.1c1.81.34,3.7-1.66,4.23-4.46.49-2.61-.38-5-2-5.59Z"
                fill="#fff" />
            <path
                d="M430.64,4.05l.23.11c1.21.72,1.19,3.07,0,5.13s-3,3.06-4.26,2.59a1.08,1.08,0,0,1-.24-.12,2.25,2.25,0,0,1-.89-1.89,6.2,6.2,0,0,1,.93-3.24c1.15-1.92,3-3,4.27-2.58m.26-.69c-1.58-.59-3.8.62-5.16,2.9-1.46,2.44-1.36,5.19.21,6.14a4,4,0,0,0,.36.17c1.57.59,3.79-.63,5.15-2.9,1.46-2.45,1.37-5.2-.21-6.14a1.62,1.62,0,0,0-.35-.17Z"
                fill="#fff" />
            <path
                d="M149.62,195.56c1.61-.07,2.46.88,3.74,2.32a20.7,20.7,0,0,0,2.44,2.42c2,1.63,3,3.41,2.81,4.77a1.84,1.84,0,0,1-1.27,1.45,2.53,2.53,0,0,1-.56.12,6.09,6.09,0,0,1-2.66-.74,8.1,8.1,0,0,0-3.73-.91h-.19a8.17,8.17,0,0,0-3.53,1.44,6.27,6.27,0,0,1-2.51,1.12,2.31,2.31,0,0,1-.59,0,1.86,1.86,0,0,1-1.47-1.25c-.42-1.31.36-3.23,2.1-5.12a21.61,21.61,0,0,0,2.06-2.76c1.06-1.6,1.77-2.67,3.36-2.83m-.05-.76c-3,.29-3.44,3.12-5.93,5.83-3.66,4-2.67,7.14-.22,7.64a3,3,0,0,0,.79,0c2.06-.15,3.76-2.38,6-2.55h.19c2.3-.18,4.32,1.8,6.39,1.65a2.68,2.68,0,0,0,.76-.17c2.36-.84,2.87-4.1-1.32-7.52-2.86-2.33-3.74-5.05-6.71-4.91Z"
                fill="#fff" />
            <path
                d="M137.92,191.59h0a5,5,0,0,1,3.76,2,6,6,0,0,1,1.41,3,2.18,2.18,0,0,1-.55,1.94,1.61,1.61,0,0,1-.92.35,5,5,0,0,1-3.76-2,5.82,5.82,0,0,1-1.4-3A2.16,2.16,0,0,1,137,192a1.55,1.55,0,0,1,.92-.36m-.06-.75a2.31,2.31,0,0,0-1.35.53c-1.38,1.16-1,3.83.77,6a5.72,5.72,0,0,0,4.4,2.29,2.31,2.31,0,0,0,1.35-.53c1.38-1.16,1-3.83-.77-6a5.68,5.68,0,0,0-4.4-2.28Z"
                fill="#fff" />
            <path
                d="M160.62,189.94a1.63,1.63,0,0,1,1,.22c1.15.71,1.09,3-.14,5a5,5,0,0,1-3.42,2.54,1.56,1.56,0,0,1-1-.22c-1.16-.71-1.09-3,.14-5a5,5,0,0,1,3.42-2.55m-.06-.75a5.68,5.68,0,0,0-4,2.89c-1.48,2.38-1.43,5.07.09,6a2.38,2.38,0,0,0,1.44.32,5.72,5.72,0,0,0,4-2.89c1.48-2.37,1.43-5.07-.1-6a2.33,2.33,0,0,0-1.43-.32Z"
                fill="#fff" />
            <path
                d="M144,183.37h0c1.37-.11,2.89,1.57,3.46,3.81a6.17,6.17,0,0,1,0,3.47,2.29,2.29,0,0,1-1.44,1.62,1.09,1.09,0,0,1-.25,0c-1.38.11-2.9-1.57-3.47-3.81a6.36,6.36,0,0,1,0-3.47,2.38,2.38,0,0,1,1.44-1.62,1.17,1.17,0,0,1,.26,0m-.06-.76a2.63,2.63,0,0,0-.39.06c-1.83.47-2.74,3.16-2,6,.67,2.65,2.52,4.51,4.25,4.38a2.63,2.63,0,0,0,.39-.06c1.84-.47,2.74-3.16,2-6-.68-2.65-2.52-4.51-4.26-4.38Z"
                fill="#fff" />
            <path
                d="M153.39,182.69h.27c1.44.15,2.44,2.36,2.19,4.83-.24,2.29-1.5,4.17-2.87,4.27a1.22,1.22,0,0,1-.27,0,2.37,2.37,0,0,1-1.66-1.4,6.35,6.35,0,0,1-.53-3.43c.24-2.29,1.5-4.17,2.87-4.27m-.06-.76c-1.73.13-3.28,2.23-3.57,4.95-.3,2.93,1,5.47,2.87,5.66a1.8,1.8,0,0,0,.4,0c1.74-.13,3.29-2.24,3.57-5,.31-2.92-1-5.46-2.87-5.65a1.79,1.79,0,0,0-.4,0Z"
                fill="#fff" />
            <path
                d="M251.91,89.05c1.4,1.39,1.26,3,1,5.32a27,27,0,0,0-.14,4.23c.21,3.17-.51,5.61-1.93,6.54a2.25,2.25,0,0,1-2.37.07,2.39,2.39,0,0,1-.58-.4,7.51,7.51,0,0,1-1.58-3,9.64,9.64,0,0,0-2.3-4.12l-.08-.08-.09-.09a9.79,9.79,0,0,0-4.26-2,7.58,7.58,0,0,1-3.12-1.33,2.75,2.75,0,0,1-.46-.56,2.26,2.26,0,0,1-.1-2.37c.82-1.49,3.2-2.39,6.37-2.42a25.28,25.28,0,0,0,4.22-.45c2.34-.39,3.89-.65,5.38.65m.63-.68c-2.74-2.42-5.69-.49-10.23-.45-6.67,0-8.68,3.58-7.07,6.21a3.3,3.3,0,0,0,.63.75c1.86,1.73,5.3,1.39,7.37,3.31l.08.07,0,0,0,0,.06,0c2.08,1.93,2,5.41,3.87,7.14a3.48,3.48,0,0,0,.79.55c2.73,1.42,6.11-.85,5.67-7.5-.3-4.53,1.41-7.61-1.21-10.17Z"
                fill="#fff" />
            <path
                d="M245.65,75.18h0c1.07,1,1.59,3,1.34,5.08A7.29,7.29,0,0,1,245.51,84a2.69,2.69,0,0,1-2.21,1.14,2,2,0,0,1-1.09-.54c-1.06-1-1.59-3-1.33-5.08a7.2,7.2,0,0,1,1.48-3.75,2.68,2.68,0,0,1,2.2-1.14,2,2,0,0,1,1.09.54m.64-.69a2.87,2.87,0,0,0-1.61-.78c-2.21-.26-4.32,2.29-4.73,5.71-.3,2.48.38,4.73,1.63,5.88a2.84,2.84,0,0,0,1.61.78c2.2.26,4.32-2.29,4.73-5.71a7,7,0,0,0-1.63-5.88Z"
                fill="#fff" />
            <path
                d="M266.2,94.25a1.92,1.92,0,0,1,.62,1.06c.32,1.64-1.78,3.49-4.6,4-2.07.4-4.1,0-5.16-.95a1.89,1.89,0,0,1-.62-1.06c-.33-1.63,1.78-3.48,4.6-4a6.19,6.19,0,0,1,5.16,1m.63-.69a7,7,0,0,0-6-1.17c-3.38.66-5.77,3-5.34,5.13a2.87,2.87,0,0,0,.91,1.57,7,7,0,0,0,6,1.18c3.38-.67,5.77-3,5.34-5.14a2.94,2.94,0,0,0-.91-1.57Z"
                fill="#fff" />
            <path
                d="M258.2,73.78h0c1.24,1.15,1,3.92-.53,6.32A7.72,7.72,0,0,1,254.51,83a2.87,2.87,0,0,1-2.66.06,1.64,1.64,0,0,1-.26-.2c-1.24-1.15-1-3.93.53-6.32a7.78,7.78,0,0,1,3.16-2.89,2.89,2.89,0,0,1,2.67-.06,2.19,2.19,0,0,1,.25.2m.63-.69a2.28,2.28,0,0,0-.38-.3c-2-1.26-5.15.18-7.11,3.23-1.83,2.84-2,6.07-.38,7.52a2.79,2.79,0,0,0,.38.3c2,1.26,5.15-.18,7.12-3.23,1.82-2.84,2-6.07.37-7.52Z"
                fill="#fff" />
            <path
                d="M266.67,81.64a2.62,2.62,0,0,1,.22.25c1.08,1.42-.07,4.18-2.51,6-2.27,1.71-5,2.15-6.26,1a1.26,1.26,0,0,1-.22-.24,2.88,2.88,0,0,1-.14-2.66,7.76,7.76,0,0,1,2.65-3.37c2.27-1.71,5-2.15,6.26-1m.63-.69c-1.57-1.45-4.77-1.08-7.46,1-2.89,2.18-4.1,5.46-2.69,7.33a2.35,2.35,0,0,0,.33.37c1.58,1.45,4.77,1.09,7.46-.94,2.9-2.19,4.11-5.47,2.7-7.34a3.92,3.92,0,0,0-.34-.37Z"
                fill="#fff" />
            <path
                d="M196.79,79.93c2.7.78,3.58,2.82,4.91,5.91a38,38,0,0,0,2.7,5.37c2.41,3.8,3.17,7.33,2,9.45a3.21,3.21,0,0,1-2.91,1.7,3.79,3.79,0,0,1-1-.11,10.65,10.65,0,0,1-4-2.69c-1.57-1.4-3.34-3-5.66-3.58l-.17,0-.16,0a13.91,13.91,0,0,0-6.64.44,10.76,10.76,0,0,1-4.79.45,3.59,3.59,0,0,1-.95-.39,3.21,3.21,0,0,1-1.74-2.88c0-2.41,2.37-5.15,6.3-7.33a36.38,36.38,0,0,0,4.94-3.42c2.65-2.07,4.41-3.45,7.14-2.84m.33-1.29c-5.06-1.14-7.42,3.26-13.05,6.39-8.26,4.59-8.38,10.36-4.58,12.53a5.45,5.45,0,0,0,1.29.52c3.49.87,7.54-1.87,11.42-.89l.14,0,0,0h0l.11,0c3.91,1,6.16,5.38,9.67,6.26a5,5,0,0,0,1.35.16c4.37-.09,7-5.21,2-13.19-3.44-5.44-3.41-10.44-8.4-11.86Z"
                fill="#fff" />
            <path
                d="M179.59,66.89h0c2,.5,4,2.63,5.12,5.43A10.33,10.33,0,0,1,185.4,78a3.83,3.83,0,0,1-2,2.92,2.78,2.78,0,0,1-1.72.07c-2-.5-4-2.63-5.12-5.43a10.33,10.33,0,0,1-.69-5.67,3.83,3.83,0,0,1,2-2.92,2.78,2.78,0,0,1,1.72-.07m.33-1.28a4.07,4.07,0,0,0-2.54.12c-2.92,1.17-3.82,5.78-2,10.31,1.32,3.3,3.7,5.64,6,6.22a4.07,4.07,0,0,0,2.54-.12c2.92-1.17,3.83-5.78,2-10.31-1.31-3.3-3.7-5.64-6-6.22Z"
                fill="#fff" />
            <path
                d="M218.12,76.71a2.74,2.74,0,0,1,1.49.89c1.51,1.82.15,5.56-3,8.15-2.3,1.91-5.07,2.83-7.06,2.32a2.77,2.77,0,0,1-1.5-.89c-1.51-1.82-.14-5.55,3-8.15,2.3-1.91,5.08-2.82,7.07-2.32m.32-1.29c-2.32-.58-5.52.34-8.24,2.59-3.75,3.11-5.17,7.6-3.16,10a4,4,0,0,0,2.19,1.33c2.32.59,5.52-.33,8.24-2.59,3.76-3.11,5.17-7.6,3.16-10a4.16,4.16,0,0,0-2.19-1.33Z"
                fill="#fff" />
            <path
                d="M194.27,56.64h0c2.33.59,3.92,4.2,3.63,8.23a11,11,0,0,1-2,5.74,4.07,4.07,0,0,1-3.27,1.89,3.25,3.25,0,0,1-.45-.08c-2.33-.58-3.93-4.2-3.63-8.23a10.91,10.91,0,0,1,2-5.74c.57-.75,1.75-2,3.28-1.88a2.34,2.34,0,0,1,.45.07m.32-1.29a5.07,5.07,0,0,0-.68-.11c-3.3-.24-6.29,3.72-6.67,8.85-.35,4.77,1.68,8.88,4.63,9.62a3.86,3.86,0,0,0,.68.11c3.31.24,6.29-3.72,6.67-8.85.35-4.77-1.68-8.88-4.63-9.62Z"
                fill="#fff" />
            <path
                d="M210.15,60.69a2.28,2.28,0,0,1,.44.15c2.31,1,2.75,5.26,1,9.21-1.66,3.66-4.79,6.08-7.11,5.49a3.39,3.39,0,0,1-.45-.15,4.11,4.11,0,0,1-2-3.23,11,11,0,0,1,1-6c1.67-3.67,4.79-6.08,7.12-5.49m.32-1.29c-2.94-.74-6.67,1.89-8.65,6.23-2.12,4.69-1.39,9.6,1.63,11a4.67,4.67,0,0,0,.66.23c2.94.74,6.68-1.89,8.65-6.24,2.12-4.68,1.4-9.59-1.62-11a4.08,4.08,0,0,0-.67-.23Z"
                fill="#fff" />
            <path
                d="M243.8,298.86c2-.2,3.13.92,4.85,2.61a26.39,26.39,0,0,0,3.23,2.84c2.62,1.88,4.07,4,3.88,5.74a2.29,2.29,0,0,1-1.47,1.9,2.93,2.93,0,0,1-.7.2,7.61,7.61,0,0,1-3.38-.72,9.88,9.88,0,0,0-4.72-.85l-.12,0h-.12a9.94,9.94,0,0,0-4.29,2.07,7.74,7.74,0,0,1-3.06,1.58,2.52,2.52,0,0,1-2.66-1.44c-.64-1.61.19-4.06,2.22-6.56a26.79,26.79,0,0,0,2.36-3.6c1.21-2.09,2-3.47,4-3.8m-.13-.94c-3.66.59-4,4.15-6.95,7.74-4.26,5.26-2.79,9.12.32,9.55a4.1,4.1,0,0,0,1,0c2.55-.36,4.51-3.27,7.35-3.66h.24c2.86-.39,5.53,1.92,8.1,1.57a4.13,4.13,0,0,0,.94-.26c2.88-1.23,3.27-5.35-2.23-9.29-3.74-2.69-5.06-6-8.76-5.62Z"
                fill="#fff" />
            <path
                d="M228.88,294.81h0c1.46-.2,3.37.68,4.85,2.24a7.38,7.38,0,0,1,2,3.58,2.7,2.7,0,0,1-.53,2.46,1.94,1.94,0,0,1-1.13.51c-1.45.2-3.36-.67-4.85-2.23a7.44,7.44,0,0,1-2-3.58,2.73,2.73,0,0,1,.53-2.47,2.08,2.08,0,0,1,1.12-.51m-.13-.94a3,3,0,0,0-1.65.77c-1.62,1.55-1,4.86,1.43,7.39,1.75,1.83,4,2.75,5.66,2.51a3,3,0,0,0,1.66-.76c1.62-1.56,1-4.87-1.43-7.39a7.13,7.13,0,0,0-5.67-2.52Z"
                fill="#fff" />
            <path
                d="M257.1,291a1.93,1.93,0,0,1,1.23.19c1.49.8,1.58,3.65.2,6.21-1,1.89-2.61,3.24-4.07,3.44a2,2,0,0,1-1.23-.19c-1.49-.81-1.59-3.65-.2-6.22,1-1.88,2.61-3.23,4.07-3.43m-.13-.94c-1.7.23-3.58,1.7-4.78,3.92-1.66,3.08-1.4,6.43.59,7.5a2.86,2.86,0,0,0,1.81.3c1.7-.23,3.58-1.7,4.78-3.93,1.66-3.07,1.39-6.43-.59-7.5a2.93,2.93,0,0,0-1.81-.29Z"
                fill="#fff" />
            <path
                d="M235.88,284.07h0c1.7-.23,3.73,1.74,4.62,4.5a7.85,7.85,0,0,1,.23,4.34,3,3,0,0,1-1.68,2.13l-.31.07c-1.71.23-3.74-1.74-4.62-4.5a7.85,7.85,0,0,1-.23-4.34,2.91,2.91,0,0,1,1.67-2.13l.32-.07m-.13-.94a2.77,2.77,0,0,0-.48.11c-2.26.72-3.18,4.16-2.06,7.66,1,3.27,3.5,5.45,5.66,5.15a2.47,2.47,0,0,0,.47-.11c2.27-.72,3.19-4.16,2.06-7.66-1.05-3.27-3.49-5.45-5.65-5.15Z"
                fill="#fff" />
            <path
                d="M247.51,282.5l.34,0c1.81.08,3.23,2.76,3.1,5.86-.12,2.88-1.55,5.32-3.25,5.56a1.9,1.9,0,0,1-.34,0,2.89,2.89,0,0,1-2.17-1.61,7.76,7.76,0,0,1-.93-4.24c.12-2.88,1.55-5.32,3.25-5.56m-.13-.94c-2.15.3-3.93,3-4.07,6.46-.16,3.68,1.64,6.74,4,6.84a2.86,2.86,0,0,0,.51,0c2.15-.3,3.93-3,4.07-6.46.16-3.68-1.64-6.74-4-6.84a2.9,2.9,0,0,0-.51,0Z"
                fill="#fff" />
            <path
                d="M58.3,87.63c2.27-.45,3.68.72,5.81,2.48a31.27,31.27,0,0,0,4,2.91c3.19,1.87,5.07,4.18,5,6.15a2.66,2.66,0,0,1-1.49,2.34,3,3,0,0,1-.77.29,8.77,8.77,0,0,1-3.94-.46,11.44,11.44,0,0,0-5.49-.49l-.13,0-.14,0a11.39,11.39,0,0,0-4.7,2.82,8.76,8.76,0,0,1-3.33,2.12,3,3,0,0,1-.84.08A2.67,2.67,0,0,1,50,104.47c-.89-1.76-.19-4.65,1.86-7.73a29.64,29.64,0,0,0,2.34-4.36c1.16-2.51,1.92-4.17,4.15-4.75m-.24-1.07c-4.13,1.06-4.21,5.17-7.15,9.58-4.32,6.45-2.24,10.72,1.35,10.88a4.25,4.25,0,0,0,1.14-.1c2.88-.67,4.82-4.2,8-4.94l.12,0h.07l.09,0c3.22-.74,6.52,1.63,9.42,1a4.2,4.2,0,0,0,1-.4c3.17-1.7,3.19-6.45-3.51-10.39-4.56-2.69-6.42-6.36-10.6-5.52Z"
                fill="#fff" />
            <path
                d="M40.82,84.54h0c1.65-.38,3.92.43,5.78,2a8.5,8.5,0,0,1,2.64,3.89,3.14,3.14,0,0,1-.35,2.88,2.28,2.28,0,0,1-1.23.7c-1.65.38-3.92-.43-5.78-2a8.5,8.5,0,0,1-2.64-3.89,3.14,3.14,0,0,1,.35-2.88,2.28,2.28,0,0,1,1.23-.7m-.24-1.06a3.29,3.29,0,0,0-1.81,1c-1.7,1.94-.63,5.66,2.39,8.3,2.2,1.92,4.82,2.73,6.74,2.29a3.29,3.29,0,0,0,1.81-1.05c1.7-1.94.63-5.66-2.39-8.3-2.2-1.92-4.82-2.73-6.74-2.29Z"
                fill="#fff" />
            <path
                d="M72.7,77.26a2.3,2.3,0,0,1,1.43.09c1.79.77,2.19,4,.87,7.09-1,2.26-2.66,4-4.3,4.35a2.29,2.29,0,0,1-1.43-.09c-1.79-.76-2.19-4-.87-7.09,1-2.26,2.65-4,4.3-4.35m-.25-1.06c-1.92.44-3.91,2.31-5.06,5-1.57,3.69-.93,7.51,1.45,8.52a3.37,3.37,0,0,0,2.11.15c1.91-.44,3.91-2.31,5-5,1.58-3.69.93-7.51-1.44-8.52a3.37,3.37,0,0,0-2.11-.15Z"
                fill="#fff" />
            <path
                d="M47.71,71.53h0c1.92-.44,4.45,1.6,5.75,4.66a9.08,9.08,0,0,1,.71,4.94,3.37,3.37,0,0,1-1.69,2.61,2.53,2.53,0,0,1-.36.12c-1.93.44-4.45-1.6-5.75-4.66a9,9,0,0,1-.71-4.94,3.34,3.34,0,0,1,1.69-2.61,1.9,1.9,0,0,1,.36-.12m-.25-1.06a3.74,3.74,0,0,0-.54.17c-2.51,1.07-3.2,5.09-1.55,9,1.53,3.63,4.56,5.86,7,5.3a3.27,3.27,0,0,0,.53-.17c2.51-1.07,3.21-5.09,1.56-9-1.54-3.63-4.56-5.87-7-5.3Z"
                fill="#fff" />
            <path
                d="M60.85,68.53a2.32,2.32,0,0,1,.38-.06c2.08-.1,4,2.82,4.16,6.38.16,3.31-1.22,6.25-3.14,6.69l-.38.06A3.35,3.35,0,0,1,59.21,80a9,9,0,0,1-1.51-4.76c-.16-3.31,1.23-6.25,3.15-6.69m-.25-1.07c-2.43.57-4.18,3.89-4,7.81.2,4.23,2.57,7.55,5.3,7.42a3.56,3.56,0,0,0,.57-.08c2.43-.57,4.18-3.89,4-7.81-.2-4.23-2.58-7.55-5.3-7.42a3.68,3.68,0,0,0-.58.08Z"
                fill="#fff" />
            <path
                d="M201.86,268.92c1.75,0,2.61,1.11,3.92,2.75a22.53,22.53,0,0,0,2.5,2.79c2.07,1.9,3.1,3.9,2.76,5.36a2,2,0,0,1-1.47,1.5,2.16,2.16,0,0,1-.62.09,6.69,6.69,0,0,1-2.85-1,8.7,8.7,0,0,0-4-1.23h-.21a8.64,8.64,0,0,0-3.93,1.34,6.63,6.63,0,0,1-2.8,1.06,2.29,2.29,0,0,1-.64-.08A2,2,0,0,1,193,280.1c-.38-1.45.59-3.49,2.6-5.44a22.38,22.38,0,0,0,2.42-2.87c1.25-1.68,2.08-2.79,3.83-2.87m0-.83c-3.24.14-3.94,3.17-6.82,6-4.22,4.11-3.35,7.6-.71,8.29a2.85,2.85,0,0,0,.86.1c2.25,0,4.24-2.35,6.73-2.4h.22c2.51,0,4.58,2.23,6.84,2.19a2.71,2.71,0,0,0,.83-.13c2.62-.76,3.39-4.28-1-8.26-3-2.71-3.76-5.72-7-5.76Z"
                fill="#fff" />
            <path
                d="M189.38,263.88h0a5.42,5.42,0,0,1,4,2.43,6.45,6.45,0,0,1,1.35,3.3,2.38,2.38,0,0,1-.71,2.08,1.82,1.82,0,0,1-1,.32,5.42,5.42,0,0,1-4-2.43,6.45,6.45,0,0,1-1.35-3.3,2.42,2.42,0,0,1,.72-2.08,1.77,1.77,0,0,1,1-.32m0-.83a2.54,2.54,0,0,0-1.5.49c-1.57,1.18-1.36,4.1.47,6.54a6.24,6.24,0,0,0,4.64,2.76,2.54,2.54,0,0,0,1.5-.49c1.57-1.18,1.36-4.11-.47-6.54a6.17,6.17,0,0,0-4.64-2.76Z"
                fill="#fff" />
            <path
                d="M214.17,263.5a1.7,1.7,0,0,1,1,.29c1.21.85,1,3.32-.47,5.4a5.47,5.47,0,0,1-3.87,2.55,1.73,1.73,0,0,1-1.05-.3c-1.2-.85-1-3.32.47-5.39a5.44,5.44,0,0,1,3.88-2.55m0-.83a6.21,6.21,0,0,0-4.53,2.9c-1.76,2.49-1.88,5.42-.27,6.55a2.54,2.54,0,0,0,1.53.44,6.2,6.2,0,0,0,4.54-2.9c1.75-2.48,1.87-5.42.27-6.54a2.49,2.49,0,0,0-1.54-.45Z"
                fill="#fff" />
            <path
                d="M196.54,255.31h0c1.5,0,3.05,1.89,3.53,4.37a6.83,6.83,0,0,1-.26,3.77,2.51,2.51,0,0,1-1.66,1.67,1.33,1.33,0,0,1-.28,0c-1.5,0-3.05-1.89-3.53-4.36a6.78,6.78,0,0,1,.25-3.78,2.55,2.55,0,0,1,1.66-1.67,1.43,1.43,0,0,1,.29,0m0-.83a3,3,0,0,0-.42.05c-2,.39-3.18,3.26-2.57,6.41.56,2.93,2.46,5.07,4.35,5a3.15,3.15,0,0,0,.43-.05c2-.39,3.18-3.26,2.57-6.41-.57-2.93-2.46-5.07-4.36-5Z"
                fill="#fff" />
            <path
                d="M206.76,255.16a1,1,0,0,1,.29,0c1.56.25,2.51,2.72,2.08,5.38-.4,2.48-1.89,4.44-3.39,4.47l-.29,0a2.53,2.53,0,0,1-1.71-1.62,6.84,6.84,0,0,1-.37-3.76c.4-2.48,1.89-4.45,3.39-4.47m0-.83c-1.89,0-3.71,2.22-4.19,5.16-.51,3.17.73,6,2.77,6.34a3.15,3.15,0,0,0,.44,0c1.89,0,3.71-2.23,4.18-5.17.52-3.16-.72-6-2.76-6.33a3.25,3.25,0,0,0-.44,0Z"
                fill="#fff" />
            <path
                d="M403.15,242.06c1.4.42,1.84,1.49,2.52,3.11A18.44,18.44,0,0,0,407,248c1.23,2,1.6,3.84,1,4.93a1.67,1.67,0,0,1-1.53.87,2.24,2.24,0,0,1-.52-.06,5.74,5.74,0,0,1-2.07-1.43,7.23,7.23,0,0,0-2.93-1.9l-.08,0-.09,0a7.3,7.3,0,0,0-3.46.19,5.66,5.66,0,0,1-2.5.2,1.87,1.87,0,0,1-.49-.2,1.7,1.7,0,0,1-.89-1.52c0-1.25,1.27-2.66,3.33-3.77a19.82,19.82,0,0,0,2.6-1.75c1.39-1.07,2.32-1.77,3.74-1.44m.18-.67c-2.63-.63-3.89,1.65-6.84,3.25-4.34,2.33-4.43,5.34-2.47,6.49a2.58,2.58,0,0,0,.67.28c1.81.48,3.94-.92,5.95-.39l.08,0h0l.06,0c2,.54,3.17,2.84,5,3.32a2.76,2.76,0,0,0,.71.09c2.27,0,3.69-2.67,1.11-6.86-1.76-2.85-1.71-5.46-4.3-6.23Z"
                fill="#fff" />
            <path
                d="M394.27,235.16h0A4.52,4.52,0,0,1,396.9,238a5.34,5.34,0,0,1,.32,3,2,2,0,0,1-1,1.5,1.37,1.37,0,0,1-.9,0,4.54,4.54,0,0,1-2.63-2.86,5.34,5.34,0,0,1-.32-3,2,2,0,0,1,1-1.5,1.37,1.37,0,0,1,.9,0m.18-.67a2.15,2.15,0,0,0-1.33,0c-1.52.59-2,3-1.11,5.36a5.2,5.2,0,0,0,3.09,3.28,2.15,2.15,0,0,0,1.33-.05c1.53-.59,2-3,1.11-5.36a5.18,5.18,0,0,0-3.09-3.28Z"
                fill="#fff" />
            <path
                d="M414.28,240.52a1.47,1.47,0,0,1,.77.47c.78,1,0,2.9-1.61,4.23a4.57,4.57,0,0,1-3.7,1.17,1.42,1.42,0,0,1-.77-.48c-.78-1,0-2.89,1.61-4.23a4.56,4.56,0,0,1,3.7-1.16m.17-.67a5.21,5.21,0,0,0-4.31,1.3c-2,1.59-2.74,3.92-1.71,5.2a2.15,2.15,0,0,0,1.14.7,5.2,5.2,0,0,0,4.31-1.29c2-1.6,2.74-3.93,1.71-5.2a2.16,2.16,0,0,0-1.14-.71Z"
                fill="#fff" />
            <path
                d="M402,229.91h0c1.21.32,2,2.22,1.84,4.31a5.7,5.7,0,0,1-1.07,3,2.11,2.11,0,0,1-1.72,1l-.23,0c-1.21-.32-2-2.21-1.84-4.31a5.7,5.7,0,0,1,1.07-3,2.11,2.11,0,0,1,1.72-1l.23,0m.18-.67a2.25,2.25,0,0,0-.36-.06c-1.72-.15-3.3,1.9-3.53,4.57-.21,2.48.82,4.63,2.35,5l.35.06c1.73.15,3.31-1.9,3.54-4.57.21-2.48-.82-4.63-2.35-5Z"
                fill="#fff" />
            <path
                d="M410.23,232.12l.23.08c1.19.56,1.4,2.76.44,4.81s-2.54,3.13-3.74,2.81a.9.9,0,0,1-.23-.08,2.09,2.09,0,0,1-1-1.69,5.64,5.64,0,0,1,.57-3.11c.89-1.9,2.53-3.14,3.74-2.82m.17-.67c-1.52-.4-3.49.94-4.54,3.2-1.14,2.42-.79,5,.77,5.72a2.42,2.42,0,0,0,.35.12c1.53.41,3.49-.94,4.54-3.19,1.14-2.43.79-5-.77-5.72a2.09,2.09,0,0,0-.35-.13Z"
                fill="#fff" />
            <path
                d="M460.05,298.48c1.55-.94,2.9-.46,4.95.26a24.34,24.34,0,0,0,3.72,1.06c2.85.52,4.85,1.7,5.36,3.17a2.08,2.08,0,0,1-.46,2.12,2.79,2.79,0,0,1-.49.42,7,7,0,0,1-3,.73,8.75,8.75,0,0,0-4.16,1.12l-.09.05-.1.07a8.9,8.9,0,0,0-2.69,3.33,6.88,6.88,0,0,1-1.88,2.46,2.31,2.31,0,0,1-.59.29,2.08,2.08,0,0,1-2.13-.44c-1.13-1.06-1.4-3.37-.72-6.19a22.66,22.66,0,0,0,.54-3.83c.18-2.16.29-3.59,1.77-4.62m-.46-.72c-2.76,1.9-1.7,4.94-2.68,9-1.43,5.92,1.25,8.49,3.93,7.64a3,3,0,0,0,.81-.38c1.94-1.27,2.41-4.39,4.57-5.8l.08-.05h0l0,0,.06,0c2.17-1.42,5.23-.57,7.18-1.84a3.61,3.61,0,0,0,.67-.57c1.86-2.11.6-5.61-5.39-6.7-4.08-.74-6.43-2.94-9.28-1.2Z"
                fill="#fff" />
            <path
                d="M446.37,300.93h0a5.63,5.63,0,0,1,4.8-.05,6.6,6.6,0,0,1,3,2.15,2.44,2.44,0,0,1,.52,2.2,1.77,1.77,0,0,1-.72.85,5.59,5.59,0,0,1-4.8.05,6.6,6.6,0,0,1-3-2.15,2.42,2.42,0,0,1-.52-2.2,1.77,1.77,0,0,1,.72-.85m-.47-.72a2.62,2.62,0,0,0-1,1.26c-.72,1.89,1.07,4.34,4,5.46a6.43,6.43,0,0,0,5.58-.13,2.62,2.62,0,0,0,1.05-1.26c.72-1.89-1.07-4.34-4-5.46a6.43,6.43,0,0,0-5.58.13Z"
                fill="#fff" />
            <path
                d="M467.84,287a1.88,1.88,0,0,1,1.08-.32c1.52.09,2.69,2.36,2.55,5a5.63,5.63,0,0,1-2,4.36,1.81,1.81,0,0,1-1.08.32c-1.52-.08-2.69-2.36-2.56-5a5.7,5.7,0,0,1,2-4.37m-.47-.71a6.43,6.43,0,0,0-2.37,5c-.16,3.14,1.34,5.77,3.36,5.87a2.62,2.62,0,0,0,1.59-.45,6.45,6.45,0,0,0,2.38-5c.16-3.14-1.34-5.77-3.37-5.88a2.65,2.65,0,0,0-1.59.46Z"
                fill="#fff" />
            <path
                d="M447.92,289.5h0c1.3-.84,3.71,0,5.48,1.88a7,7,0,0,1,1.86,3.44,2.64,2.64,0,0,1-.54,2.38l-.23.18c-1.3.84-3.7,0-5.48-1.88a7,7,0,0,1-1.86-3.44,2.64,2.64,0,0,1,.54-2.38l.23-.18m-.47-.71a3,3,0,0,0-.35.27c-1.56,1.46-1,4.6,1.28,7,2.11,2.25,4.94,3.08,6.58,2a3,3,0,0,0,.35-.27c1.56-1.46,1-4.6-1.28-7-2.11-2.25-4.94-3.08-6.58-2Z"
                fill="#fff" />
            <path
                d="M456.77,283.75a1.74,1.74,0,0,1,.27-.14c1.5-.64,3.69,1,4.78,3.56,1,2.39.79,4.93-.51,5.77a1.35,1.35,0,0,1-.26.15,2.65,2.65,0,0,1-2.39-.48,7,7,0,0,1-2.39-3.09c-1-2.39-.79-4.93.5-5.77m-.46-.72c-1.64,1.07-2,4-.83,6.82,1.29,3,3.93,4.85,5.9,4a2.52,2.52,0,0,0,.4-.21c1.64-1.07,2-4,.83-6.82-1.29-3-3.94-4.85-5.9-4a2.52,2.52,0,0,0-.4.21Z"
                fill="#fff" />
            <path
                d="M286,132.08c2.12-1,3.77-.13,6.27,1.11a28.9,28.9,0,0,0,4.58,1.95c3.56,1.12,5.93,3,6.34,4.9a2.66,2.66,0,0,1-.93,2.63,2.87,2.87,0,0,1-.69.46,8.78,8.78,0,0,1-4,.45,11.47,11.47,0,0,0-5.49.76l-.12.07-.13.06a11.49,11.49,0,0,0-4,3.83,8.91,8.91,0,0,1-2.79,2.84,2.86,2.86,0,0,1-.81.27,2.66,2.66,0,0,1-2.64-.9c-1.28-1.53-1.25-4.52.07-8a29.69,29.69,0,0,0,1.29-4.8c.57-2.73.95-4.54,3-5.62m-.48-1c-3.81,2-2.95,6-4.84,11-2.77,7.32.24,11,3.8,10.38a4.3,4.3,0,0,0,1.1-.36c2.67-1.31,3.77-5.22,6.75-6.68l.11,0h0l0,0,.08,0c3-1.47,6.77.11,9.47-1.21a4.24,4.24,0,0,0,.94-.62c2.72-2.4,1.66-7.06-5.81-9.4-5.09-1.6-7.74-4.79-11.66-3Z"
                fill="#fff" />
            <path
                d="M268.12,133h0c1.52-.75,3.93-.47,6.13.7a8.53,8.53,0,0,1,3.48,3.22,3.18,3.18,0,0,1,.31,2.9,2.3,2.3,0,0,1-1.05,1c-1.53.75-3.94.48-6.14-.69a8.64,8.64,0,0,1-3.47-3.22,3.15,3.15,0,0,1-.32-2.9,2.29,2.29,0,0,1,1.06-1m-.49-1a3.42,3.42,0,0,0-1.54,1.44c-1.22,2.3.68,5.71,4.24,7.61,2.6,1.38,5.36,1.58,7.14.71a3.42,3.42,0,0,0,1.54-1.44c1.22-2.3-.67-5.7-4.24-7.6-2.59-1.38-5.35-1.59-7.14-.72Z"
                fill="#fff" />
            <path
                d="M297.74,118.64a2.29,2.29,0,0,1,1.42-.24c1.93.34,3.06,3.44,2.47,6.76-.43,2.44-1.7,4.5-3.23,5.25a2.33,2.33,0,0,1-1.42.23c-1.93-.34-3.06-3.44-2.47-6.75.44-2.45,1.7-4.51,3.23-5.25m-.48-1c-1.78.87-3.32,3.16-3.83,6-.71,4,.79,7.58,3.36,8a3.38,3.38,0,0,0,2.1-.33c1.78-.87,3.31-3.16,3.83-6,.7-4-.8-7.58-3.36-8a3.36,3.36,0,0,0-2.1.33Z"
                fill="#fff" />
            <path
                d="M271.91,118.7h0c1.79-.88,4.74.56,6.7,3.26a9.15,9.15,0,0,1,1.83,4.69,2.71,2.71,0,0,1-1.39,3.14c-1.79.87-4.74-.56-6.71-3.27a9.19,9.19,0,0,1-1.82-4.68,3.4,3.4,0,0,1,1.07-3,2.07,2.07,0,0,1,.32-.19m-.48-1a3.5,3.5,0,0,0-.49.29c-2.22,1.62-2,5.72.52,9.17,2.33,3.21,5.81,4.71,8.07,3.61a3.58,3.58,0,0,0,.49-.3c2.22-1.61,2-5.72-.52-9.16-2.33-3.21-5.81-4.72-8.07-3.61Z"
                fill="#fff" />
            <path
                d="M284.13,112.76a1.92,1.92,0,0,1,.36-.14c2-.57,4.55,1.86,5.53,5.31.91,3.21.22,6.41-1.56,7.29a2.6,2.6,0,0,1-.36.13,3.37,3.37,0,0,1-3-1,9.13,9.13,0,0,1-2.56-4.33c-.91-3.21-.22-6.41,1.57-7.28m-.49-1c-2.25,1.11-3.21,4.77-2.13,8.57,1.16,4.1,4.24,6.82,6.89,6.07a2.52,2.52,0,0,0,.54-.21c2.26-1.1,3.22-4.76,2.14-8.57-1.16-4.1-4.25-6.82-6.89-6.07a5.2,5.2,0,0,0-.55.21Z"
                fill="#fff" />
            <path
                d="M155,126.48c2,1.94,1.82,4.14,1.55,7.47a36.94,36.94,0,0,0-.14,6c.34,4.46-.64,7.91-2.63,9.24a3.2,3.2,0,0,1-3.35.13,3.5,3.5,0,0,1-.82-.56,10.63,10.63,0,0,1-2.26-4.23c-.72-2-1.53-4.18-3.3-5.78l-.12-.11-.13-.12a13.9,13.9,0,0,0-6-2.71,10.74,10.74,0,0,1-4.41-1.84,3.56,3.56,0,0,1-.66-.79,3.2,3.2,0,0,1-.18-3.34c1.14-2.1,4.49-3.4,9-3.48a36.31,36.31,0,0,0,5.94-.7c3.29-.58,5.47-1,7.58.85m.89-1c-3.9-3.37-8-.6-14.43-.49-9.39.16-12.18,5.17-9.86,8.85a5,5,0,0,0,.88,1c2.65,2.4,7.49,1.89,10.44,4.56l.1.1,0,0,0,0,.08.08c3,2.68,2.89,7.59,5.55,10a4.94,4.94,0,0,0,1.12.77c3.87,2,8.6-1.29,7.89-10.65-.49-6.38,1.88-10.75-1.84-14.32Z"
                fill="#fff" />
            <path
                d="M146,107h0c1.51,1.37,2.27,4.18,1.95,7.15a10.32,10.32,0,0,1-2,5.3,3.79,3.79,0,0,1-3.09,1.63,2.76,2.76,0,0,1-1.55-.74c-1.51-1.37-2.28-4.17-1.95-7.14a10.25,10.25,0,0,1,2-5.3,3.77,3.77,0,0,1,3.09-1.64A2.76,2.76,0,0,1,146,107m.88-1a4,4,0,0,0-2.28-1.07c-3.11-.34-6.06,3.28-6.59,8.1-.39,3.5.61,6.67,2.38,8.27a4,4,0,0,0,2.28,1.07c3.11.35,6.06-3.28,6.59-8.1.38-3.5-.61-6.67-2.38-8.27Z"
                fill="#fff" />
            <path
                d="M175.16,133.61a2.69,2.69,0,0,1,.89,1.48c.48,2.3-2.46,4.94-6.42,5.75-2.92.6-5.78.11-7.29-1.26a2.76,2.76,0,0,1-.89-1.48c-.48-2.31,2.47-4.94,6.43-5.76,2.91-.6,5.77-.1,7.28,1.27m.88-1c-1.76-1.6-5-2.29-8.43-1.58-4.75,1-8.08,4.25-7.45,7.31a4,4,0,0,0,1.3,2.2c1.76,1.59,5,2.28,8.43,1.57,4.75-1,8.09-4.25,7.46-7.31a4.13,4.13,0,0,0-1.31-2.19Z"
                fill="#fff" />
            <path
                d="M163.61,104.87h0c1.77,1.6,1.48,5.52-.66,8.91a10.92,10.92,0,0,1-4.41,4.12,4.07,4.07,0,0,1-3.75.12,2.42,2.42,0,0,1-.36-.27c-1.77-1.61-1.48-5.53.66-8.92a10.82,10.82,0,0,1,4.41-4.11,4,4,0,0,1,3.75-.13,1.93,1.93,0,0,1,.36.28m.89-1a3.74,3.74,0,0,0-.55-.41c-2.78-1.76-7.25.32-10,4.64-2.53,4-2.67,8.57-.43,10.6a4.26,4.26,0,0,0,.54.41c2.79,1.76,7.26-.32,10-4.64,2.53-4,2.66-8.57.43-10.6Z"
                fill="#fff" />
            <path
                d="M175.65,115.83a3.4,3.4,0,0,1,.32.34c1.53,2-.05,5.9-3.46,8.53-3.17,2.44-7,3.1-8.81,1.5a2.59,2.59,0,0,1-.31-.35,4.07,4.07,0,0,1-.23-3.75,11,11,0,0,1,3.68-4.77c3.18-2.44,7-3.1,8.81-1.5m.89-1c-2.24-2-6.74-1.47-10.5,1.43-4,3.11-5.71,7.76-3.7,10.37a4.66,4.66,0,0,0,.48.51c2.23,2,6.74,1.47,10.5-1.43,4.05-3.12,5.7-7.76,3.69-10.37a3.27,3.27,0,0,0-.47-.51Z"
                fill="#fff" />
        </g>
    </g>
</svg>