<svg id="Layer_1" data-name="Layer 1" xmlns="http://www.w3.org/2000/svg"
    viewBox="0 0 1027.57 1103.52">
    <path
        d="M331.66,167.79a20.65,20.65,0,0,1,1.35,6c1,38.94,22.66,59.56,45.87,76a129.18,129.18,0,0,1,44.91,55.29c9,20.72,14,45.8,14.84,74.52a106.26,106.26,0,0,0,25.47,66.68c31.6,37.71,71.46,60.25,106.29,77.32,21,10.31,40.11,23,55.18,36.81,32.48,29.67,58.16,69.57,78.51,122,13.45,34.65,21.16,65.69,23.57,94.91,2.72,33-1.26,63.6-12.15,93.64a72.42,72.42,0,0,0-3.33,14.26c-.24,1.5-.47,2.92-.73,4.22l-8.15,41.15,40.07-12.41C819.6,894.65,893.16,812,886.26,699.76c-3.42-55.66-11.27-113.39-45.2-158.6C823,517,799.22,498.82,769.45,486.35c30.26,4.15,66.1,17.55,95.83,52.69,44,59.82,58.37,128.76,44,210.73C903.15,784.51,892,816.23,876,844a237.33,237.33,0,0,1-131.37,108A268.25,268.25,0,0,1,658.4,966c-2.67,0-5.37,0-8-.12-37.77-1.05-77.9-1.54-126.29-1.54-35.63,0-71.82.27-106.82.53-23.69.18-48.11.36-72.25.46.1-.88.22-1.7.38-2.46,2.5-12.33,9.06-20.87,35.2-28,5.39-1.48,11.16-2.58,17.84-3.87,3.41-.65,6.93-1.33,10.7-2.11l37-7.69-21.53-31-15.12-21.79-29.3-42.24-28.27-40.76-15.94,47c-1.5,4.42-2.8,8.53-3.95,12.16a162.45,162.45,0,0,1-6,16.93l-2.33,5.18c-13.44,30-27.34,61-42,90.81-2.16,4.38-4.79,8-15.09,8-.94,0-1.93,0-3-.1-17.48-1.13-35-1.33-51.9-1.52-9.5-.1-19.29-.21-28.85-.49a19,19,0,0,1-.37-8.32c.73-4.28,2.79-7.91,5.23-9.26,11.73-6.46,17.38-7.16,19.27-7.16h.37c2,.14,4,.21,5.91.21,28.69,0,50.2-14.88,63.92-44.23,6.17-13.19,11.93-26.23,14.54-40.75,11.07-61.54-1.78-123.31-39.3-188.85-12.81-22.39-18.68-42.71-18.46-64,.42-40.31,12.27-81.18,38.45-132.53,1.65-3.23,3.08-6.34,4.74-9.93.79-1.71,1.64-3.55,2.6-5.6l18.58-39.5-43.47,4c-3.3.3-6.14.7-8.65,1-2.24.31-4.55.64-5.63.64-4.76-.64-9.49-1.14-14.07-1.62-12.36-1.31-24.05-2.54-33.25-6.17a27.26,27.26,0,0,1-15.45-15.5,35,35,0,0,1,.77-27.47c5.16-11.42,12.3-28.74,14.73-47.34,4-30.7,17-48.66,43.28-60,39.57-17.1,70.74-47.62,95-93.11m-5.92-34.72c-3.28,0-8.49,7.66-10.9,12.65C295.33,186,268.61,219.85,226.72,238c-35.84,15.49-53.23,42.08-58.15,79.74-1.8,13.77-6.95,27.5-12.72,40.28-13.12,29-1.9,64.66,28.3,76.54,16.47,6.48,35.4,6.9,53.32,9.32a23.62,23.62,0,0,0,3.16.2c4.78,0,10-1.2,16.55-1.8-2.91,6.18-4.83,10.57-7,14.82-23,45.2-40.63,91.89-41.17,143.62-.28,27.83,7.92,52.45,21.77,76.64,30.42,53.15,47.55,109.92,36.39,172-2.15,11.91-7.39,23.49-12.58,34.58-8.33,17.8-20,29.82-41.28,29.82-1.36,0-2.75-.05-4.19-.15-.69-.05-1.39-.07-2.09-.07-10.4,0-21.87,5-31.33,10.26-20,11-24.67,42.92-9.45,60.06,2.73,3.07,8.86,4.19,13.48,4.33,27.44.88,55,.28,82.32,2.05,1.55.1,3.06.15,4.55.15,17,0,29.95-6.62,37.52-22,15.7-31.88,30.18-64.37,44.72-96.81,4.05-9,6.52-18.78,10.77-31.27l44.42,64c-11.06,2.3-20.71,3.79-30.06,6.35-25.37,7-47.24,18.3-53.1,47.18a71.11,71.11,0,0,0-1,17.68c.53,10.26,5.41,14.78,16.62,14.78h.13c62.46-.2,125-1,187.42-1,41.88,0,83.75.37,125.59,1.53,2.91.09,5.84.13,8.74.13C788.91,991,906.67,909,933.88,754.09c14.68-83.61,2.27-161.27-49-230.54-40.31-48.07-92.57-63.79-139-63.79-47.17,0-88.34,16.2-105,31.15q3.9-.06,7.7-.06c182.79,0,206.13,104,212.68,210.44,6,98.07-56.69,171.82-125.34,193.07,1.07-5.43,1.41-10.36,3-14.82,25.53-70.38,14.52-138.81-11.61-206.11-19.24-49.54-45.47-95.32-85-131.4-17.9-16.36-39.21-30.09-61-40.8-37-18.15-71.4-39-98.13-70.92-12.4-14.8-19.07-31.45-19.64-51.35-1.73-59.84-19.92-113.72-70.27-149.48C372,214.32,358.71,199.77,358,173.16c-.28-10.31-5.36-21.6-11.4-30.25-3.91-5.6-13.31-9-20.64-9.83Z" />
</svg>