<svg xmlns="http://www.w3.org/2000/svg" viewBox="0 0 24.06 38.05">
    <g id="Layer_2" data-name="Layer 2">
        <g id="Layer_1-2" data-name="Layer 1">
            <path
                d="M9.79,26a4.85,4.85,0,0,0,0-1.91c-.27-.55-1.13-.44-1.71-.65a12.15,12.15,0,0,1-8-12.61A12.17,12.17,0,0,1,9.93.18a12,12,0,0,1,5,23.54c-.52.13-.75.3-.71.89a27.47,27.47,0,0,1,0,2.87c0,.51.1.72.66.69.89-.05,1.77,0,2.66,0a2.22,2.22,0,1,1,0,4.43c-.89,0-1.77,0-2.66,0-.52,0-.72.1-.69.66,0,.83,0,1.67,0,2.51a2.22,2.22,0,1,1-4.43.05q0-1.37,0-2.73c0-.38-.13-.5-.5-.49-.91,0-1.82,0-2.73,0a2.24,2.24,0,0,1-2.4-2.21,2.21,2.21,0,0,1,2.37-2.23c.91,0,1.82,0,2.73,0,.4,0,.55-.12.53-.53s0-1.1,0-1.65Zm9.82-13.93a7.58,7.58,0,1,0-15.15,0,7.58,7.58,0,1,0,15.15,0Z"
                fill="#ea566a" />
        </g>
    </g>
</svg>