<svg xmlns="http://www.w3.org/2000/svg" viewBox="0 0 33.2 33.11">
    <g id="Layer_2" data-name="Layer 2">
        <g id="Layer_1-2" data-name="Layer 1">
            <path
                d="M28.14,8.17c-1.34,1.34-2.66,2.69-4,4-.37.36-.37.59-.1,1a12.44,12.44,0,0,1,1.75,9.62,12.83,12.83,0,0,1-15.25,10,12.27,12.27,0,0,1-9.88-9A12.28,12.28,0,0,1,3.85,11,12.76,12.76,0,0,1,20.09,9.22c.35.22.55.23.85-.08,1.4-1.44,2.83-2.85,4.25-4.27.09-.09.25-.17.15-.42H23.16a2.17,2.17,0,0,1-2.31-2.2A2.21,2.21,0,0,1,23.08,0Q27,0,30.9,0a2.19,2.19,0,0,1,2.26,2.15q.08,4.06,0,8.11a2.21,2.21,0,0,1-4.42-.14c0-.77,0-1.53,0-2.34C28.39,7.82,28.29,8,28.14,8.17ZM13,11.59A8.56,8.56,0,1,0,21.59,20,8.56,8.56,0,0,0,13,11.59Z"
                fill="#8379c1" />
        </g>
    </g>
</svg>