<svg xmlns="http://www.w3.org/2000/svg" xmlns:xlink="http://www.w3.org/1999/xlink"
    viewBox="0 0 108.85 62.48">
    <defs>
        <linearGradient id="linear-gradient" x1="29.08" y1="22.58" x2="74.47" y2="22.58"
            gradientUnits="userSpaceOnUse">
            <stop offset="0" stop-color="#7e358a" />
            <stop offset="1" stop-color="#2f2b7f" />
        </linearGradient>
    </defs>
    <g id="Layer_2" data-name="Layer 2">
        <g id="Layer_1-2" data-name="Layer 1">
            <rect x="35.73" y="5.69" width="33.27" height="34.34" fill="#fff" />
            <path
                d="M74.45,22.61h0c0-3.68.06-7.36,0-11a8.1,8.1,0,0,0-4.68-7.65,18,18,0,0,0-5.59-1.36C56,1.67,47.82,1,39.68.07,33.91-.59,29.13,3.38,29.11,9.2c0,8.94-.06,17.88,0,26.82a8.79,8.79,0,0,0,5.53,8.43c2.27,1,4.53.67,6.81.45,8-.77,15.88-1.68,23.83-2.38,5.43-.48,9.06-4.07,9.13-9.5C74.49,29.55,74.45,26.08,74.45,22.61ZM54.22,9.25c1.53-1.19,4.08-.47,5.69,1.61s1.66,4.72.13,5.91-4.08.47-5.69-1.61S52.68,10.43,54.22,9.25ZM43.83,8.58c1.46-1.27,4.05-.68,5.76,1.3s1.93,4.63.46,5.9-4,.69-5.77-1.3S42.36,9.85,43.83,8.58Zm-6.25,6.24c1.47-1.26,4.05-.68,5.77,1.3s1.92,4.63.46,5.9-4.06.69-5.77-1.3S36.12,16.09,37.58,14.82Zm7.9,15.86c-.72,1.8-3.28,2.47-5.72,1.5s-3.84-3.23-3.11-5,3.28-2.47,5.72-1.5S46.2,28.88,45.48,30.68Zm20.28-3.95c-1.06.57-2.15,1.09-3.22,1.65a13.19,13.19,0,0,0-6.12,6.55,12.82,12.82,0,0,1-1.75,3.16c-1.85,2.19-8.32.69-7.35-5a9.4,9.4,0,0,0-1-6.57c-2.55-4.88,2.46-10.06,6.67-9.17a11.83,11.83,0,0,1,2.8,1,9.09,9.09,0,0,0,5,.84,13.87,13.87,0,0,1,3.91.18A3.84,3.84,0,0,1,68,23C68.15,24.73,67.58,25.75,65.76,26.73Z"
                fill="url(#linear-gradient)" />
            <path
                d="M14.62,46.36l-2.14,3a5.25,5.25,0,0,0-3.71-1.81c-1.32,0-2.37.59-2.37,1.81,0,.85,1.08,1.47,2.42,2,2,.75,4.46,1.78,4.46,4.62A6,6,0,0,1,10.7,61a9.17,9.17,0,0,1-4.87,1.45A7.23,7.23,0,0,1,0,59.74l2.42-3A5.76,5.76,0,0,0,6.55,59c1.52,0,2.58-.8,2.58-2.06,0-.9-1.08-1.5-2.43-2-1.93-.69-4.46-1.75-4.43-4.46a5.79,5.79,0,0,1,2-4.69,7.79,7.79,0,0,1,5.14-1.65,7,7,0,0,1,2.86.57,5.2,5.2,0,0,1,1.83,1.13Z"
                fill="#7e358a" />
            <path
                d="M31.07,49.46h4l-6,12.71H25.32l-1.16-7.71-3.58,7.71H16.81l-2-12.71h4.05l.88,8,3.61-8h3.27l1.06,8Z"
                fill="#7e358a" />
            <path
                d="M46.11,56a6.58,6.58,0,0,1-4.18,1.24,14.74,14.74,0,0,1-3.43-.44V57c0,1.63,1.08,2.43,2.71,2.43a7.26,7.26,0,0,0,3.87-1.27l1.28,2.19a9.68,9.68,0,0,1-6.18,2.09c-3.38,0-5.63-1.91-5.63-5.28A7.43,7.43,0,0,1,37,51.49a7.93,7.93,0,0,1,5.62-2.27,7.26,7.26,0,0,1,3.64.85,2.89,2.89,0,0,1,1.47,2.69A4,4,0,0,1,46.11,56Zm-3.43-4.36a3.88,3.88,0,0,0-2.48,1,3.58,3.58,0,0,0-1.37,2,13.28,13.28,0,0,0,3.38-.05c1-.19,2-.78,2-1.78C44.22,52,43.71,51.67,42.68,51.67Z"
                fill="#7e358a" />
            <path
                d="M60.21,56A6.56,6.56,0,0,1,56,57.27a14.87,14.87,0,0,1-3.43-.44V57c0,1.63,1.09,2.43,2.71,2.43a7.24,7.24,0,0,0,3.87-1.27l1.29,2.19a9.71,9.71,0,0,1-6.19,2.09c-3.38,0-5.62-1.91-5.62-5.28a7.46,7.46,0,0,1,2.42-5.68,8,8,0,0,1,5.63-2.27,7.22,7.22,0,0,1,3.63.85,2.89,2.89,0,0,1,1.47,2.69A4,4,0,0,1,60.21,56Zm-3.43-4.36a3.86,3.86,0,0,0-2.47,1,3.53,3.53,0,0,0-1.37,2,13.3,13.3,0,0,0,3.38-.05c1-.19,2-.78,2-1.78C58.33,52,57.81,51.67,56.78,51.67Z"
                fill="#7e358a" />
            <path
                d="M69.24,49.46H72l-.54,3.17H68.72l-.31,1.65A19.68,19.68,0,0,0,67.92,58c0,.64.36,1,1.06,1a3.22,3.22,0,0,0,1.24-.24L69.91,62a12.53,12.53,0,0,1-2.92.41c-2.16,0-3.25-1-3.25-3a16.08,16.08,0,0,1,.16-2.12c.1-.74.23-1.62.41-2.6l.39-2.06H63l.52-3.17h1.72l.26-1.6a9.21,9.21,0,0,0,0-1l0-.79h4a3.4,3.4,0,0,1,.08.85A6.12,6.12,0,0,1,69.44,48Z"
                fill="#7e358a" />
            <path
                d="M84.22,53.86A7.53,7.53,0,0,1,79,55.59H76.87l-1,6.58h-4L74.6,44.38h6.14c3.2,0,5.47,1.36,5.47,4.46A6.36,6.36,0,0,1,84.22,53.86Zm-4.57-6.24H78.11l-.75,4.72h1.55c1.88,0,3.14-1,3.14-2.83C82.05,48.24,81.25,47.62,79.65,47.62Z"
                fill="#7e358a" />
            <path
                d="M97.09,56a6.58,6.58,0,0,1-4.18,1.24,14.74,14.74,0,0,1-3.43-.44V57c0,1.63,1.08,2.43,2.71,2.43a7.26,7.26,0,0,0,3.87-1.27l1.28,2.19a9.68,9.68,0,0,1-6.18,2.09c-3.38,0-5.63-1.91-5.63-5.28A7.43,7.43,0,0,1,88,51.49a7.93,7.93,0,0,1,5.62-2.27,7.26,7.26,0,0,1,3.64.85,2.89,2.89,0,0,1,1.47,2.69A4,4,0,0,1,97.09,56Zm-3.43-4.36a3.88,3.88,0,0,0-2.48,1,3.58,3.58,0,0,0-1.37,2,13.28,13.28,0,0,0,3.38-.05c1-.19,2-.78,2-1.78C95.2,52,94.69,51.67,93.66,51.67Z"
                fill="#7e358a" />
            <path
                d="M106.11,49.46h2.74l-.55,3.17h-2.7l-.31,1.65A19.68,19.68,0,0,0,104.8,58c0,.64.36,1,1,1a3.19,3.19,0,0,0,1.24-.24L106.78,62a12.39,12.39,0,0,1-2.91.41c-2.17,0-3.25-1-3.25-3a16,16,0,0,1,.15-2.12c.11-.74.24-1.62.42-2.6l.38-2.06H99.85l.51-3.17h1.73l.26-1.6c0-.26.05-.6.05-1l-.05-.79h4a3,3,0,0,1,.08.85,6.06,6.06,0,0,1-.1,1.16Z"
                fill="#7e358a" />
        </g>
    </g>
</svg>